<svg id="svg" xmlns="http://www.w3.org/2000/svg" xmlns:xlink="http://www.w3.org/1999/xlink" width="400" height="400" viewBox="0, 0, 400,400"><g id="svgg"><path id="path0" d="M202.680 64.535 C 202.415 65.031,202.198 66.068,202.198 66.839 C 202.198 68.162,202.123 68.227,200.884 67.979 C 199.298 67.662,199.285 67.707,198.894 74.429 C 198.742 77.046,198.513 79.617,198.385 80.143 C 198.256 80.669,198.100 81.989,198.038 83.077 C 197.975 84.165,197.784 85.870,197.614 86.866 C 197.444 87.862,197.239 90.137,197.159 91.921 C 196.633 103.677,195.954 109.962,195.093 111.052 C 194.875 111.328,194.801 113.764,194.930 116.466 C 195.167 121.455,194.849 123.077,193.633 123.077 C 192.434 123.077,192.117 124.486,192.944 126.139 C 194.309 128.867,194.860 136.102,194.058 140.767 C 193.964 141.312,193.784 142.647,193.659 143.734 C 193.533 144.820,193.177 145.908,192.869 146.151 C 191.802 146.992,191.962 150.446,193.057 150.217 C 194.100 150.000,194.266 153.438,193.234 153.859 C 192.724 154.067,183.209 154.229,172.088 154.220 C 160.967 154.211,145.736 154.211,138.242 154.220 C 130.747 154.230,123.429 154.170,121.978 154.088 C 107.005 153.242,107.821 153.269,89.970 153.039 C 84.688 152.972,84.353 152.916,84.597 152.147 C 84.876 151.267,83.031 151.283,81.905 152.170 C 81.621 152.394,76.817 152.545,71.136 152.508 C 65.495 152.472,53.862 152.466,45.285 152.495 C 36.406 152.526,28.740 152.359,27.483 152.109 C 26.268 151.867,24.780 151.578,24.176 151.466 C 23.571 151.355,22.463 151.021,21.713 150.725 C 19.825 149.979,18.901 150.438,18.901 152.122 C 18.901 153.378,18.801 153.477,17.793 153.224 C 16.329 152.856,15.867 153.997,16.980 155.230 C 17.744 156.078,17.799 157.004,17.758 168.335 L 17.714 180.529 16.220 183.341 C 15.398 184.888,14.622 186.253,14.495 186.374 C 11.558 189.181,12.819 192.936,15.824 190.330 C 16.382 189.846,16.919 189.451,17.019 189.451 C 17.119 189.451,17.091 192.170,16.957 195.495 C 16.823 198.819,16.603 205.000,16.469 209.231 C 16.189 218.017,15.981 219.693,15.037 220.774 C 14.467 221.426,14.451 221.714,14.934 222.616 C 15.474 223.626,15.374 229.291,14.729 234.286 C 14.619 235.132,14.438 236.912,14.327 238.242 C 13.617 246.695,13.062 251.619,12.494 254.505 C 11.349 260.313,10.734 259.746,17.582 259.195 C 31.212 258.100,40.580 258.504,42.489 260.271 L 43.621 261.319 43.326 268.202 C 43.124 272.915,43.180 275.177,43.502 275.375 C 44.402 275.932,47.416 273.062,47.377 271.687 C 47.357 270.975,47.746 269.999,48.278 269.428 C 48.989 268.665,49.097 268.281,48.727 267.835 C 48.368 267.403,48.380 266.742,48.772 265.342 C 49.066 264.294,49.199 262.763,49.070 261.939 C 48.809 260.286,49.816 258.228,50.637 258.735 C 50.921 258.911,51.002 258.838,50.830 258.560 C 50.274 257.660,50.868 257.575,62.198 256.927 C 64.615 256.789,67.978 256.581,69.670 256.465 C 71.363 256.349,75.516 256.159,78.901 256.042 C 82.286 255.925,87.824 255.709,91.209 255.562 C 99.422 255.206,99.079 255.633,90.110 256.933 C 89.062 257.085,87.417 257.325,83.113 257.957 C 82.046 258.114,81.080 258.519,80.967 258.858 C 80.812 259.322,81.021 259.399,81.809 259.171 C 82.386 259.005,84.637 258.686,86.813 258.464 C 90.744 258.061,93.281 257.731,95.385 257.348 C 95.989 257.238,97.275 257.035,98.242 256.897 C 99.209 256.760,100.495 256.560,101.099 256.454 C 106.566 255.490,108.260 255.337,108.692 255.769 C 109.275 256.352,108.825 256.533,104.077 257.627 C 102.076 258.087,100.044 258.563,99.560 258.684 C 99.077 258.805,97.237 259.257,95.472 259.689 C 89.348 261.185,93.151 261.878,100.000 260.513 C 101.934 260.128,104.110 259.706,104.835 259.575 C 105.560 259.445,108.824 258.855,112.088 258.265 C 115.352 257.675,118.912 257.073,120.000 256.926 C 121.088 256.779,122.275 256.582,122.637 256.487 C 123.435 256.278,127.008 255.842,131.297 255.431 C 133.718 255.199,134.360 255.250,134.028 255.650 C 133.638 256.120,132.761 256.364,129.231 256.987 C 125.532 257.639,120.912 258.583,119.780 258.918 C 119.055 259.133,117.967 259.395,117.363 259.500 C 114.782 259.950,105.503 262.006,103.077 262.666 C 99.425 263.660,94.190 265.032,92.088 265.546 C 91.121 265.782,88.945 266.365,87.253 266.841 C 85.560 267.317,83.434 267.909,82.527 268.157 C 81.544 268.425,80.879 268.876,80.879 269.274 C 80.879 269.642,81.032 269.848,81.218 269.733 C 81.405 269.617,82.443 269.393,83.526 269.234 C 85.800 268.899,89.390 268.134,95.604 266.660 C 98.022 266.086,102.264 265.082,105.031 264.430 C 107.798 263.777,110.190 263.163,110.347 263.066 C 110.614 262.901,117.575 261.363,120.000 260.933 C 122.163 260.549,136.514 257.545,138.022 257.161 C 138.868 256.945,140.549 256.646,141.758 256.498 C 142.967 256.349,145.143 256.054,146.593 255.842 C 148.044 255.630,153.088 255.320,157.802 255.155 C 162.516 254.989,167.659 254.789,169.231 254.711 C 175.687 254.389,188.389 254.014,195.604 253.933 L 203.297 253.846 203.540 257.363 C 203.674 259.297,203.723 267.011,203.649 274.505 C 203.575 282.000,203.528 289.645,203.544 291.495 C 203.560 293.345,203.377 294.979,203.138 295.127 C 202.861 295.298,202.847 295.902,203.100 296.783 C 203.319 297.546,203.391 302.043,203.260 306.777 C 203.051 314.376,202.762 319.139,201.907 329.069 C 201.590 332.751,202.411 332.999,204.622 329.890 C 205.380 328.823,205.457 329.786,204.888 333.233 C 204.546 335.308,204.680 335.444,206.619 335.001 C 206.754 334.970,208.820 333.456,211.210 331.636 C 214.784 328.915,215.624 328.448,215.937 329.008 C 216.413 329.858,217.143 329.457,217.143 328.346 C 217.143 327.393,221.594 323.615,224.198 322.359 C 225.132 321.908,226.117 321.143,226.386 320.659 C 226.655 320.176,227.702 319.191,228.712 318.471 C 229.723 317.752,231.934 316.184,233.626 314.987 C 235.319 313.791,237.707 312.006,238.934 311.021 C 241.465 308.990,241.608 308.882,249.587 302.997 C 252.805 300.623,256.267 298.034,257.279 297.242 C 258.292 296.450,261.297 294.237,263.956 292.324 C 266.615 290.411,269.187 288.478,269.670 288.027 C 270.154 287.577,270.900 287.074,271.329 286.911 C 271.758 286.747,272.253 286.237,272.428 285.777 C 272.604 285.317,273.637 284.271,274.725 283.452 C 278.721 280.443,282.908 277.563,284.850 276.488 C 287.778 274.866,298.504 267.751,299.780 266.583 C 300.385 266.030,302.160 264.916,303.726 264.108 C 305.292 263.299,307.270 261.927,308.122 261.059 C 308.973 260.191,310.802 258.733,312.185 257.819 C 313.569 256.904,314.808 255.834,314.940 255.441 C 315.071 255.047,316.482 253.736,318.075 252.527 C 319.668 251.319,321.827 249.637,322.873 248.791 C 323.919 247.945,325.724 246.560,326.884 245.714 C 329.287 243.962,329.455 243.833,332.747 241.193 C 334.077 240.127,335.818 238.918,336.616 238.505 C 337.414 238.093,338.173 237.480,338.303 237.142 C 338.561 236.470,344.292 232.131,346.920 230.618 C 347.824 230.097,348.566 229.447,348.568 229.173 C 348.570 228.900,349.214 228.184,350.000 227.583 C 350.786 226.982,352.220 225.781,353.187 224.915 C 354.154 224.048,356.282 222.489,357.916 221.450 C 364.539 217.238,365.056 216.839,365.205 215.822 C 365.287 215.261,365.584 214.575,365.864 214.297 C 366.848 213.321,371.203 210.549,371.752 210.549 C 372.058 210.549,372.308 210.324,372.308 210.048 C 372.308 209.333,373.451 208.525,376.610 207.008 C 378.149 206.270,379.577 205.250,379.831 204.709 C 380.556 203.164,384.185 200.693,385.572 200.799 C 386.423 200.863,386.929 200.605,387.297 199.918 C 387.874 198.839,387.379 198.298,382.418 194.596 C 381.088 193.603,379.788 192.584,379.528 192.330 C 378.742 191.561,364.800 181.366,361.765 179.341 C 360.039 178.189,353.745 173.750,350.330 171.276 C 347.060 168.908,345.377 167.742,336.044 161.383 C 330.287 157.461,329.157 156.710,322.857 152.624 C 320.198 150.899,317.824 149.330,317.582 149.138 C 317.341 148.946,315.462 147.684,313.407 146.333 C 303.247 139.653,288.080 129.655,284.029 126.969 C 281.531 125.312,279.306 123.956,279.084 123.956 C 278.863 123.956,278.681 123.790,278.681 123.587 C 278.681 123.384,278.236 122.981,277.692 122.691 C 276.613 122.115,275.950 121.714,272.967 119.835 C 270.423 118.232,267.594 116.361,267.033 115.911 C 266.791 115.717,265.407 114.805,263.956 113.885 C 262.505 112.965,259.835 111.271,258.022 110.120 C 256.209 108.969,253.978 107.507,253.064 106.871 C 252.150 106.235,251.057 105.516,250.634 105.275 C 249.327 104.527,228.805 90.829,228.571 90.548 C 228.451 90.402,225.582 88.435,222.198 86.176 C 218.813 83.918,215.622 81.752,215.106 81.364 C 214.590 80.977,213.799 80.410,213.348 80.105 C 212.897 79.801,211.143 78.553,209.451 77.333 C 207.758 76.113,206.080 74.943,205.720 74.734 C 205.239 74.454,204.990 73.118,204.776 69.655 C 204.461 64.580,203.679 62.669,202.680 64.535 M206.229 77.473 C 206.326 78.016,206.274 79.055,206.112 79.780 C 205.904 80.716,205.803 80.827,205.766 80.165 C 205.738 79.651,205.591 78.613,205.440 77.857 C 205.277 77.045,205.346 76.484,205.608 76.484 C 205.852 76.484,206.131 76.929,206.229 77.473 M202.958 81.840 C 203.004 83.392,202.948 83.537,202.650 82.637 C 202.167 81.182,202.108 79.453,202.550 79.726 C 202.743 79.846,202.927 80.797,202.958 81.840 M218.312 96.585 C 218.664 97.427,218.869 98.201,218.767 98.303 C 218.514 98.556,217.346 96.726,216.939 95.439 C 216.426 93.817,217.546 94.752,218.312 96.585 M220.659 101.801 C 221.264 102.351,222.648 103.210,223.736 103.710 C 224.824 104.211,226.254 104.965,226.915 105.387 C 227.575 105.809,229.652 107.134,231.530 108.332 C 233.408 109.530,235.011 110.668,235.092 110.860 C 235.172 111.052,235.434 111.209,235.672 111.209 C 235.911 111.209,236.365 111.456,236.681 111.758 C 237.280 112.332,237.516 112.498,241.099 114.875 C 251.132 121.531,255.108 124.148,259.213 126.798 C 261.822 128.482,264.022 130.015,264.103 130.205 C 264.183 130.394,264.423 130.549,264.635 130.549 C 264.964 130.549,268.217 132.619,273.136 135.957 C 273.834 136.430,276.552 138.275,279.176 140.057 C 281.801 141.839,284.154 143.297,284.405 143.297 C 284.657 143.297,284.977 143.593,285.116 143.956 C 285.255 144.319,285.609 144.615,285.902 144.615 C 286.195 144.615,287.452 145.357,288.695 146.264 C 289.938 147.170,292.621 148.963,294.657 150.249 C 296.692 151.534,298.822 153.017,299.390 153.545 C 299.958 154.073,300.586 154.452,300.787 154.387 C 301.229 154.243,305.055 156.940,305.055 157.396 C 305.055 157.574,304.016 158.572,302.747 159.613 C 299.226 162.501,294.073 167.625,294.069 168.242 C 294.063 169.237,294.691 168.826,297.918 165.725 C 299.673 164.039,302.244 161.813,303.631 160.780 C 305.019 159.747,306.220 158.753,306.300 158.571 C 306.500 158.123,307.584 158.153,307.766 158.612 C 307.846 158.816,309.841 160.224,312.198 161.742 C 316.580 164.564,316.890 164.911,315.934 165.914 C 315.632 166.231,311.920 170.024,307.685 174.344 C 299.248 182.950,296.918 185.490,293.227 190.109 C 291.875 191.800,290.324 193.677,289.780 194.280 C 289.236 194.883,288.791 195.625,288.791 195.930 C 288.791 196.234,288.643 196.489,288.462 196.495 C 288.280 196.502,287.647 197.293,287.054 198.254 C 286.462 199.214,285.819 200.000,285.626 200.000 C 285.433 200.000,285.275 200.213,285.275 200.473 C 285.275 200.989,281.344 206.282,280.784 206.520 C 280.595 206.601,280.440 206.930,280.440 207.253 C 280.440 207.575,280.291 207.905,280.110 207.985 C 279.768 208.137,276.485 212.124,274.945 214.256 C 274.462 214.926,273.409 216.350,272.606 217.422 C 269.413 221.682,271.919 220.253,275.819 215.589 C 277.025 214.147,278.212 212.755,278.457 212.495 C 278.701 212.236,279.495 211.274,280.220 210.358 C 281.456 208.796,282.020 208.115,283.880 205.934 C 284.293 205.451,285.220 204.264,285.941 203.297 C 286.663 202.330,287.451 201.318,287.692 201.047 C 287.934 200.777,288.609 199.986,289.193 199.289 C 289.776 198.592,290.765 197.413,291.391 196.670 C 292.016 195.926,293.121 194.556,293.846 193.625 C 294.571 192.694,295.363 191.720,295.604 191.460 C 295.846 191.200,296.825 189.999,297.779 188.791 C 299.638 186.437,303.985 181.814,312.088 173.576 C 314.868 170.749,317.557 167.878,318.063 167.194 C 318.925 166.029,319.028 165.998,319.724 166.694 C 320.132 167.102,321.736 168.271,323.289 169.292 C 324.989 170.410,326.165 171.505,326.244 172.044 C 326.339 172.698,326.729 172.957,327.692 173.006 C 328.418 173.042,329.263 173.098,329.571 173.130 C 329.880 173.161,330.320 173.681,330.549 174.286 C 330.811 174.975,331.310 175.385,331.887 175.385 C 332.606 175.385,332.746 175.576,332.527 176.264 C 332.329 176.888,332.448 177.143,332.937 177.143 C 333.316 177.143,333.626 176.927,333.626 176.662 C 333.626 176.398,334.665 176.936,335.934 177.858 C 338.425 179.667,347.378 185.682,351.109 188.053 C 353.848 189.794,353.901 190.151,351.758 192.371 C 350.852 193.310,349.441 194.928,348.624 195.966 C 347.320 197.622,338.952 203.666,338.517 203.265 C 338.297 203.064,339.970 201.073,344.552 196.082 C 350.746 189.336,350.763 189.314,350.247 188.692 C 349.217 187.451,348.969 187.673,337.324 200.236 C 330.934 207.131,329.670 208.599,329.670 209.127 C 329.670 209.789,324.067 213.307,323.536 212.979 C 323.283 212.822,322.893 213.173,322.671 213.758 C 322.339 214.631,318.924 217.143,318.068 217.143 C 317.591 217.143,323.065 209.567,324.421 208.352 C 324.556 208.231,324.955 207.708,325.308 207.190 C 325.960 206.234,332.056 199.433,334.066 197.419 C 340.224 191.249,344.360 185.810,341.163 188.086 C 338.547 189.949,328.082 200.637,323.736 205.885 C 322.769 207.053,321.154 208.925,320.148 210.045 C 319.009 211.312,318.498 212.195,318.796 212.379 C 319.090 212.560,318.368 213.667,316.932 215.238 C 315.644 216.649,314.175 218.365,313.668 219.054 C 313.162 219.742,312.154 220.612,311.429 220.986 C 310.703 221.361,306.055 224.358,301.099 227.646 C 296.143 230.935,291.808 233.696,291.466 233.782 C 290.765 233.958,285.961 237.110,284.615 238.275 C 284.132 238.694,283.126 239.402,282.380 239.848 C 280.173 241.168,265.925 250.916,265.495 251.401 C 265.374 251.537,263.198 253.021,260.659 254.699 C 258.121 256.378,255.945 257.876,255.824 258.029 C 255.329 258.657,250.111 261.984,250.122 261.665 C 250.129 261.474,250.919 260.437,251.878 259.360 C 253.100 257.986,253.481 257.264,253.154 256.942 C 252.829 256.622,252.399 256.881,251.729 257.801 C 249.975 260.210,247.918 261.950,247.126 261.697 C 246.599 261.528,246.538 261.574,246.923 261.852 C 248.020 262.646,242.853 267.225,237.912 269.838 C 236.771 270.441,236.482 269.549,237.473 268.481 C 238.918 266.922,239.965 265.036,239.729 264.420 C 239.353 263.441,238.971 263.569,238.151 264.945 C 237.754 265.610,237.069 266.553,236.627 267.040 C 236.186 267.528,235.033 269.110,234.066 270.557 C 232.125 273.460,231.196 274.399,229.231 275.445 C 228.505 275.831,227.497 276.526,226.989 276.989 C 226.219 277.692,225.983 277.732,225.566 277.229 C 224.796 276.302,223.851 273.289,224.022 272.308 C 224.106 271.824,224.424 268.997,224.729 266.026 C 225.033 263.054,225.479 260.483,225.721 260.311 C 225.962 260.140,227.038 258.818,228.113 257.374 C 229.188 255.929,230.416 254.347,230.841 253.857 C 231.265 253.368,231.894 252.582,232.237 252.112 C 232.839 251.287,232.902 251.285,234.051 252.038 C 235.506 252.991,235.937 252.745,234.728 251.651 C 233.714 250.733,233.614 249.980,234.396 249.149 C 234.698 248.828,235.736 247.380,236.703 245.931 C 237.669 244.482,238.906 242.804,239.450 242.202 C 239.994 241.600,240.440 240.906,240.440 240.659 C 240.440 240.413,240.885 239.715,241.429 239.110 C 241.973 238.504,243.206 236.825,244.170 235.378 C 245.134 233.931,246.036 232.648,246.175 232.527 C 246.558 232.194,249.670 226.957,249.670 226.646 C 249.670 224.989,243.083 232.648,235.385 243.255 C 234.901 243.922,234.061 244.995,233.517 245.640 C 232.973 246.285,232.528 246.947,232.528 247.111 C 232.526 248.011,231.095 248.804,230.446 248.266 C 229.863 247.782,229.814 247.882,230.066 249.032 C 230.285 250.030,230.137 250.590,229.464 251.313 C 228.973 251.840,228.571 252.386,228.571 252.528 C 228.571 252.959,225.736 256.668,225.392 256.686 C 225.039 256.705,225.295 253.145,225.944 249.011 C 226.708 244.143,226.872 242.880,227.417 237.690 C 227.995 232.180,230.241 228.100,231.927 229.500 C 232.887 230.296,233.561 229.471,232.715 228.536 C 231.707 227.422,232.619 226.191,234.166 226.579 C 235.141 226.824,235.192 226.746,234.940 225.399 C 234.731 224.278,234.890 223.710,235.653 222.857 C 236.953 221.402,242.639 215.390,248.125 209.670 C 250.560 207.132,253.531 203.868,254.728 202.418 C 255.924 200.967,257.017 199.681,257.156 199.560 C 257.295 199.440,257.992 198.549,258.705 197.582 C 259.417 196.615,260.198 195.603,260.440 195.333 C 261.129 194.563,262.486 192.912,264.381 190.537 C 265.340 189.335,266.230 188.253,266.359 188.132 C 266.488 188.011,268.071 186.330,269.878 184.396 C 271.684 182.462,275.177 178.960,277.640 176.614 C 281.010 173.404,281.983 172.237,281.571 171.895 C 280.986 171.410,265.844 186.351,261.072 192.121 C 255.849 198.437,251.990 202.970,249.893 205.254 C 246.689 208.743,235.890 219.939,232.267 223.527 C 230.553 225.225,229.034 226.907,228.892 227.263 C 228.750 227.620,228.710 226.375,228.803 224.496 C 228.992 220.650,229.149 220.220,230.356 220.220 C 231.302 220.220,231.519 219.517,230.661 219.231 C 230.243 219.092,234.523 213.828,237.363 210.989 C 237.484 210.868,238.965 209.187,240.655 207.253 C 242.346 205.319,243.841 203.637,243.978 203.516 C 244.115 203.396,244.512 202.880,244.861 202.370 C 245.209 201.861,246.507 200.279,247.744 198.854 C 248.982 197.429,250.838 195.275,251.870 194.066 C 256.991 188.063,266.000 178.803,273.187 172.155 C 276.088 169.471,278.541 167.072,278.638 166.824 C 278.851 166.281,280.822 164.396,281.176 164.396 C 281.315 164.396,282.386 163.407,283.558 162.198 C 284.729 160.989,285.799 160.000,285.935 160.000 C 286.072 160.000,286.812 159.357,287.580 158.571 C 288.348 157.786,288.984 157.238,288.994 157.354 C 289.003 157.470,289.604 157.039,290.330 156.396 C 293.202 153.850,293.762 153.423,294.558 153.170 C 295.579 152.846,295.648 152.088,294.657 152.088 C 293.996 152.088,291.972 153.415,290.477 154.829 C 290.154 155.134,288.955 156.136,287.813 157.053 C 286.670 157.971,285.482 158.960,285.171 159.251 C 284.860 159.542,283.809 160.473,282.834 161.319 C 276.462 166.851,274.084 168.991,270.619 172.308 C 266.020 176.711,252.516 190.815,248.129 195.798 C 246.438 197.718,244.626 199.738,244.102 200.287 C 243.579 200.836,242.880 201.671,242.550 202.143 C 239.178 206.956,225.465 220.789,224.451 220.400 C 223.988 220.222,223.489 220.387,223.166 220.822 C 222.780 221.342,221.575 221.613,218.717 221.823 L 214.796 222.111 216.738 220.396 C 222.077 215.682,244.468 192.843,249.017 187.473 C 252.255 183.648,260.706 175.195,266.813 169.670 C 272.805 164.250,286.187 151.096,285.951 150.859 C 285.074 149.982,272.373 161.821,247.429 186.768 C 210.130 224.071,211.944 222.418,208.318 222.418 C 205.249 222.418,205.221 222.355,207.363 220.271 C 211.553 216.192,216.652 209.912,216.167 209.427 C 215.976 209.236,208.770 216.226,205.570 219.706 C 204.368 221.013,202.938 222.112,202.273 222.241 C 201.009 222.486,185.494 222.727,185.494 222.502 C 185.494 222.427,186.264 221.537,187.204 220.524 C 190.822 216.625,191.948 214.919,190.879 214.957 C 190.698 214.963,188.784 216.632,186.625 218.666 C 182.305 222.737,181.132 223.153,175.016 222.780 L 172.669 222.637 173.824 221.319 C 175.116 219.843,177.767 215.423,177.512 215.168 C 177.422 215.078,175.967 216.331,174.278 217.952 C 170.375 221.702,168.211 222.996,165.971 222.918 C 163.847 222.844,163.780 222.779,164.730 221.726 C 165.150 221.260,166.083 220.087,166.802 219.121 C 167.522 218.154,168.511 216.950,169.000 216.445 C 169.490 215.940,170.613 214.655,171.497 213.588 C 172.380 212.521,173.523 211.167,174.036 210.578 C 176.403 207.863,180.142 203.689,181.538 202.201 C 183.874 199.713,185.590 197.739,186.892 196.041 C 187.539 195.197,188.594 193.912,189.237 193.187 C 189.879 192.462,190.932 191.203,191.576 190.390 C 192.220 189.577,193.211 188.390,193.777 187.753 C 194.343 187.115,195.918 185.110,197.276 183.297 C 199.894 179.802,199.949 179.731,201.369 178.022 C 201.871 177.418,202.587 176.330,202.960 175.604 C 203.334 174.879,203.777 174.187,203.946 174.066 C 204.582 173.609,206.688 169.619,206.429 169.360 C 206.071 169.002,204.685 170.579,198.237 178.681 C 194.140 183.828,192.409 185.968,191.868 186.556 C 191.626 186.818,190.842 187.824,190.126 188.791 C 189.409 189.758,188.618 190.769,188.368 191.037 C 187.904 191.534,187.597 191.882,182.201 198.034 C 179.029 201.650,176.980 203.900,173.403 207.692 C 171.457 209.756,167.705 213.988,165.940 216.111 L 165.153 217.057 164.125 215.891 C 163.560 215.250,162.557 214.189,161.895 213.534 L 160.693 212.342 161.606 211.336 C 162.108 210.783,162.891 209.863,163.347 209.292 C 163.803 208.722,164.868 207.520,165.714 206.622 C 166.560 205.724,168.242 203.839,169.451 202.432 C 172.098 199.352,173.158 198.195,177.521 193.623 C 179.368 191.688,182.165 188.643,183.736 186.858 C 185.308 185.073,186.841 183.357,187.143 183.046 C 187.445 182.735,187.692 182.358,187.692 182.209 C 187.692 182.060,188.137 181.462,188.681 180.880 C 189.950 179.524,190.198 179.212,192.527 176.044 C 194.572 173.264,195.044 172.657,195.934 171.664 C 196.236 171.328,196.484 170.949,196.484 170.823 C 196.484 169.163,199.312 166.641,201.009 166.787 C 202.025 166.874,205.896 166.965,209.609 166.989 L 216.362 167.033 216.060 168.681 C 215.764 170.305,215.163 171.480,213.707 173.282 C 212.551 174.713,205.926 182.289,202.643 185.934 C 201.010 187.747,199.108 189.923,198.416 190.769 C 197.723 191.615,197.046 192.407,196.911 192.527 C 196.776 192.648,195.242 194.626,193.501 196.923 C 191.760 199.220,190.117 201.359,189.849 201.677 C 188.528 203.246,189.987 202.405,191.407 200.780 C 192.309 199.747,194.464 197.400,196.194 195.566 C 197.925 193.732,200.518 190.899,201.958 189.270 C 203.397 187.642,204.979 185.855,205.474 185.300 C 205.969 184.746,207.462 183.045,208.791 181.521 C 210.121 179.997,211.654 178.299,212.198 177.747 C 212.742 177.195,213.187 176.599,213.187 176.422 C 213.187 176.245,213.938 175.198,214.857 174.094 C 215.776 172.991,217.012 170.967,217.604 169.596 L 218.681 167.104 220.664 167.239 C 221.754 167.312,223.411 167.692,224.344 168.082 C 226.623 169.034,226.824 168.989,226.592 167.582 C 225.415 160.451,225.405 159.121,226.532 159.121 C 227.186 159.121,256.703 129.464,256.703 128.807 C 256.703 127.889,255.919 128.410,253.372 131.020 C 251.941 132.487,248.297 135.884,245.275 138.568 C 242.253 141.252,236.660 146.579,232.846 150.405 C 225.163 158.115,225.456 157.914,224.719 155.961 L 224.190 154.560 228.029 151.044 C 233.583 145.958,248.352 131.063,248.352 130.548 C 248.352 129.303,246.495 130.568,242.060 134.835 C 223.996 152.215,224.615 151.715,224.615 148.900 C 224.615 147.698,225.732 146.390,233.318 138.706 C 243.048 128.851,245.714 125.957,245.714 125.255 C 245.714 124.269,242.590 127.030,233.158 136.350 C 227.824 141.621,223.373 145.934,223.268 145.934 C 223.163 145.934,223.081 144.735,223.086 143.269 L 223.096 140.604 227.042 136.747 C 238.164 125.880,244.637 118.175,241.788 119.194 C 241.283 119.375,231.995 128.482,226.436 134.247 C 224.174 136.593,222.264 138.452,222.191 138.377 C 222.119 138.303,221.924 137.154,221.757 135.824 C 221.589 134.495,221.371 133.273,221.270 133.110 C 221.170 132.946,224.117 129.782,227.821 126.077 C 235.128 118.766,237.399 116.300,238.196 114.810 C 239.551 112.280,236.899 114.460,228.867 122.481 L 220.220 131.116 220.220 128.742 C 220.220 127.436,220.006 125.677,219.745 124.832 C 219.484 123.988,219.281 122.634,219.294 121.824 C 219.307 121.013,219.026 119.787,218.670 119.098 C 217.462 116.763,217.698 116.335,223.846 109.756 C 225.710 107.762,225.766 107.586,224.798 106.782 C 224.056 106.166,224.001 106.214,219.049 111.712 C 217.373 113.573,217.197 113.665,216.967 112.806 C 216.321 110.399,216.680 109.257,218.683 107.343 C 221.805 104.362,221.451 102.847,218.161 105.110 C 216.192 106.465,215.501 106.397,215.358 104.835 C 215.336 104.593,215.260 104.099,215.191 103.736 C 215.121 103.374,214.923 101.929,214.750 100.526 L 214.436 97.975 216.998 99.388 C 218.408 100.166,220.055 101.251,220.659 101.801 M202.068 126.264 C 201.964 126.808,201.878 126.363,201.878 125.275 C 201.878 124.187,201.964 123.742,202.068 124.286 C 202.173 124.830,202.173 125.720,202.068 126.264 M269.011 129.022 C 269.011 129.496,268.164 129.174,267.192 128.330 L 266.154 127.429 267.582 128.121 C 268.368 128.502,269.011 128.908,269.011 129.022 M245.159 146.281 C 232.446 159.008,230.331 161.236,230.330 161.905 C 230.328 163.656,251.628 142.638,256.886 135.702 C 259.730 131.950,257.139 134.287,245.159 146.281 M261.271 139.006 C 251.202 147.733,231.160 167.998,232.053 168.550 C 232.946 169.102,263.736 138.942,263.736 137.515 C 263.736 136.921,263.540 137.039,261.271 139.006 M202.134 143.770 C 201.971 146.207,201.694 148.333,201.520 148.496 C 201.346 148.658,201.324 147.011,201.471 144.835 C 201.618 142.659,201.743 140.533,201.748 140.110 C 201.754 139.687,201.910 139.341,202.095 139.341 C 202.280 139.341,202.298 141.334,202.134 143.770 M266.937 144.055 C 265.056 145.680,263.418 147.129,263.297 147.274 C 263.176 147.419,261.890 148.584,260.440 149.863 C 256.644 153.210,245.714 164.075,245.714 164.501 C 245.714 164.699,247.495 163.496,249.672 161.827 C 253.492 158.900,271.209 142.125,271.209 141.437 C 271.209 140.631,270.144 141.284,266.937 144.055 M276.467 144.015 C 272.829 147.021,270.917 148.849,262.082 157.764 C 255.986 163.915,252.884 167.346,253.165 167.626 C 253.445 167.907,254.233 167.458,255.430 166.336 C 267.509 155.012,282.830 138.756,276.467 144.015 M273.698 153.956 C 266.574 161.028,263.410 164.655,263.920 165.166 C 264.228 165.474,265.282 164.436,273.868 155.369 C 279.537 149.383,281.328 147.253,280.691 147.253 C 280.558 147.253,277.412 150.269,273.698 153.956 M197.285 154.044 C 196.496 154.954,195.859 153.498,196.483 152.210 L 197.074 150.989 197.361 152.308 C 197.519 153.033,197.485 153.814,197.285 154.044 M56.595 162.013 C 56.134 162.474,46.477 162.741,46.759 162.285 C 46.946 161.984,48.664 161.798,51.276 161.798 C 53.594 161.798,55.594 161.696,55.719 161.570 C 55.844 161.445,56.130 161.456,56.354 161.594 C 56.578 161.733,56.687 161.921,56.595 162.013 M91.209 162.637 C 89.988 163.162,89.126 163.162,89.451 162.637 C 89.600 162.396,90.254 162.212,90.905 162.229 C 91.961 162.256,91.994 162.300,91.209 162.637 M36.923 165.688 C 36.923 166.155,36.099 166.747,35.275 166.872 C 34.645 166.967,34.629 166.916,34.992 165.970 C 35.276 165.230,36.923 164.990,36.923 165.688 M74.649 166.097 C 75.106 166.387,75.003 166.732,74.172 167.698 L 73.113 168.930 71.282 167.900 C 70.275 167.334,69.451 166.723,69.451 166.543 C 69.451 165.864,73.706 165.500,74.649 166.097 M84.835 166.072 C 84.835 168.341,81.395 169.084,79.019 167.328 C 77.161 165.954,77.503 165.714,81.319 165.714 C 83.253 165.714,84.835 165.875,84.835 166.072 M94.505 166.100 C 94.505 167.028,93.257 167.541,92.276 167.016 C 91.507 166.604,91.434 166.420,91.919 166.113 C 92.710 165.612,94.505 165.603,94.505 166.100 M105.295 167.437 L 103.787 168.946 102.003 167.710 C 99.549 166.009,99.728 165.789,103.512 165.864 L 106.804 165.929 105.295 167.437 M125.180 167.401 C 124.593 168.045,123.139 169.643,121.947 170.953 C 115.923 177.573,116.314 177.443,112.138 174.224 C 111.831 173.987,113.507 171.673,114.986 170.291 C 116.052 169.294,116.372 168.681,116.190 167.983 C 115.835 166.627,115.690 166.711,112.719 169.973 L 110.041 172.913 108.217 171.621 C 106.020 170.066,106.019 170.060,107.756 167.899 L 109.138 166.179 114.459 166.057 C 117.386 165.989,121.235 166.001,123.013 166.082 L 126.246 166.230 125.180 167.401 M151.323 168.073 C 149.881 169.591,147.155 172.568,145.275 174.680 C 145.033 174.952,143.651 176.557,142.204 178.246 C 140.757 179.936,139.468 181.418,139.339 181.538 C 139.210 181.659,137.843 183.192,136.301 184.945 C 133.225 188.443,132.880 188.592,131.233 187.143 L 130.109 186.154 131.400 184.698 C 132.110 183.897,133.545 182.293,134.587 181.133 C 142.363 172.487,142.849 171.868,141.857 171.868 C 141.525 171.868,138.335 174.835,134.769 178.462 C 127.566 185.786,128.149 185.397,126.453 184.009 L 125.214 182.995 127.927 180.399 C 135.809 172.855,141.099 167.405,141.099 166.829 C 141.099 166.297,142.112 166.158,146.703 166.057 C 153.563 165.907,153.435 165.851,151.323 168.073 M64.615 166.603 C 65.344 167.085,64.330 168.139,61.835 169.493 C 60.589 170.169,58.462 169.491,58.462 168.419 C 58.462 167.166,63.305 165.737,64.615 166.603 M139.780 166.593 C 139.780 166.835,139.585 167.033,139.346 167.033 C 139.108 167.033,137.177 168.665,135.056 170.659 C 122.449 182.515,122.985 182.158,120.721 180.192 C 120.204 179.743,119.395 179.095,118.925 178.752 C 118.114 178.160,118.325 177.856,122.988 172.910 C 125.693 170.040,127.908 167.346,127.909 166.923 C 127.912 166.229,128.489 166.154,133.846 166.154 C 137.509 166.154,139.780 166.322,139.780 166.593 M196.359 166.773 C 196.443 166.847,194.006 170.477,193.086 171.648 C 192.896 171.890,191.657 173.473,190.332 175.165 C 189.007 176.857,187.723 178.454,187.478 178.713 C 187.233 178.973,186.440 179.952,185.714 180.889 C 184.989 181.826,183.684 183.394,182.814 184.373 C 179.245 188.390,177.705 190.081,175.824 192.048 C 173.019 194.982,169.238 199.124,167.692 200.957 C 161.556 208.234,155.876 214.175,154.615 214.636 C 154.192 214.791,153.846 215.143,153.846 215.418 C 153.846 215.693,154.143 215.804,154.505 215.665 C 155.318 215.353,155.387 216.410,154.606 217.221 C 154.140 217.707,150.842 221.807,150.463 222.373 C 150.087 222.934,142.323 222.921,142.508 222.360 C 142.617 222.029,143.103 221.559,143.587 221.315 C 144.071 221.072,144.391 220.645,144.298 220.368 C 144.156 219.940,145.489 218.122,147.551 215.934 C 148.265 215.177,148.502 215.227,150.149 216.484 C 151.615 217.602,152.967 217.925,152.967 217.158 C 152.967 216.925,152.534 216.503,152.006 216.220 C 149.652 214.960,149.196 214.179,150.177 213.080 C 150.664 212.534,151.486 211.611,152.004 211.027 L 152.946 209.967 154.719 210.766 C 156.985 211.788,157.349 211.426,155.565 209.925 L 154.170 208.751 155.048 207.782 C 155.530 207.249,156.298 206.351,156.754 205.787 C 158.394 203.756,161.350 200.377,166.154 195.042 C 167.242 193.834,168.429 192.506,168.791 192.091 C 169.154 191.676,171.751 188.885,174.563 185.888 C 177.374 182.892,180.520 179.451,181.552 178.242 C 182.585 177.033,184.435 174.997,185.664 173.718 C 188.229 171.047,188.745 170.269,188.181 169.920 C 187.772 169.667,185.435 171.839,181.090 176.511 C 179.755 177.947,177.183 180.522,175.375 182.234 C 173.567 183.946,170.911 186.616,169.472 188.168 C 168.034 189.719,165.265 192.688,163.319 194.764 C 159.651 198.677,157.106 201.659,155.126 204.362 C 152.720 207.647,152.470 207.730,149.939 206.075 C 147.189 204.276,147.108 204.765,150.807 200.866 C 158.199 193.074,162.183 188.907,166.979 183.952 C 169.789 181.049,172.681 177.911,173.407 176.980 C 174.132 176.048,175.170 174.764,175.714 174.126 C 176.728 172.936,177.007 172.121,176.310 172.381 C 175.086 172.838,155.007 192.583,142.934 205.203 L 140.269 207.988 138.299 206.633 C 134.854 204.263,134.722 204.030,136.139 202.812 C 137.516 201.628,138.050 201.523,138.813 202.286 C 139.223 202.696,139.463 202.690,139.890 202.258 C 140.330 201.814,140.286 201.617,139.670 201.269 C 138.297 200.495,141.056 196.484,142.962 196.484 C 143.630 196.484,143.730 196.347,143.376 195.919 C 142.869 195.309,143.069 195.061,149.641 188.127 C 162.336 174.732,167.405 168.535,166.448 167.578 C 165.852 166.982,165.533 167.182,163.440 169.463 C 162.152 170.867,160.011 173.148,158.681 174.532 C 157.352 175.917,155.488 177.912,154.540 178.965 C 153.593 180.018,151.218 182.560,149.262 184.615 C 147.307 186.670,144.563 189.605,143.164 191.136 L 140.620 193.920 138.991 192.690 C 138.095 192.014,137.101 191.206,136.782 190.895 C 136.462 190.584,136.017 190.330,135.793 190.330 C 135.093 190.330,135.343 189.533,136.374 188.479 C 136.918 187.922,137.887 186.776,138.528 185.931 C 139.169 185.087,140.356 183.677,141.166 182.798 C 142.932 180.881,147.200 175.840,149.270 173.225 C 149.732 172.642,151.049 171.193,152.198 170.006 C 154.471 167.655,154.550 167.482,153.736 166.642 C 153.276 166.167,195.820 166.298,196.359 166.773 M237.202 167.313 C 235.562 168.724,235.904 169.067,237.600 167.712 C 238.315 167.140,238.802 166.572,238.681 166.450 C 238.560 166.328,237.895 166.716,237.202 167.313 M31.299 167.628 C 31.222 168.062,31.486 168.378,31.959 168.419 C 32.392 168.455,33.044 168.514,33.407 168.549 C 34.109 168.617,34.067 169.533,33.321 170.433 C 32.253 171.719,29.206 168.495,30.109 167.035 C 30.546 166.327,31.451 166.778,31.299 167.628 M90.110 167.983 C 90.110 168.186,90.395 168.352,90.743 168.352 C 92.125 168.352,91.898 169.405,90.165 171.038 C 88.011 173.067,88.124 173.051,85.991 171.602 L 84.304 170.456 86.165 168.560 C 87.945 166.746,90.110 166.429,90.110 167.983 M100.769 168.296 C 102.730 169.511,102.764 169.729,101.258 171.419 L 100.098 172.721 98.730 171.766 C 97.978 171.241,97.264 170.686,97.143 170.533 C 97.022 170.380,96.585 170.070,96.172 169.845 C 95.487 169.472,95.517 169.313,96.518 168.035 C 97.713 166.508,97.904 166.519,100.769 168.296 M44.835 168.517 C 44.835 169.098,42.771 171.429,42.257 171.429 C 41.312 171.429,39.879 169.246,40.407 168.611 C 41.313 167.519,44.835 167.444,44.835 168.517 M53.173 167.894 C 53.713 168.236,53.650 168.448,52.786 169.197 C 51.802 170.051,51.428 170.041,50.246 169.130 C 48.792 168.010,51.528 166.854,53.173 167.894 M77.154 167.931 C 77.310 168.183,78.212 168.699,79.159 169.078 L 80.881 169.767 79.672 171.187 L 78.462 172.607 76.813 171.688 C 74.829 170.583,74.368 169.475,75.413 168.320 C 76.277 167.365,76.741 167.262,77.154 167.931 M232.903 181.758 C 209.628 205.294,198.278 217.220,198.252 218.169 C 198.229 218.979,202.069 215.362,212.950 204.324 C 237.614 179.303,242.722 173.976,245.650 170.220 C 249.275 165.571,245.806 168.711,232.903 181.758 M71.209 170.208 C 71.209 171.610,67.625 174.145,66.375 173.627 C 63.974 172.632,63.920 172.100,66.008 169.952 L 67.912 167.993 69.560 168.913 C 70.467 169.418,71.209 170.001,71.209 170.208 M59.253 172.620 C 58.410 173.661,57.161 173.699,55.795 172.726 L 54.447 171.767 55.399 170.754 L 56.351 169.741 58.018 170.914 C 59.209 171.753,59.562 172.240,59.253 172.620 M49.391 171.522 C 49.893 172.319,47.904 174.945,46.799 174.945 C 45.998 174.945,44.789 173.380,45.055 172.687 C 45.725 170.940,48.547 170.183,49.391 171.522 M97.866 173.260 C 99.469 175.026,96.013 177.773,94.031 176.307 C 93.345 175.800,92.589 175.385,92.351 175.385 C 91.216 175.385,91.484 174.266,92.989 172.725 L 94.649 171.024 95.926 171.776 C 96.628 172.189,97.501 172.857,97.866 173.260 M30.000 172.040 C 30.945 172.757,30.952 172.941,30.074 173.819 C 29.155 174.738,28.571 174.312,28.571 172.721 C 28.571 171.298,28.848 171.166,30.000 172.040 M38.813 172.144 C 40.699 173.102,40.655 173.012,39.830 174.272 C 38.855 175.760,38.177 175.681,38.453 174.112 C 38.732 172.531,37.622 171.937,36.420 173.025 C 35.408 173.940,35.340 173.328,36.332 172.232 C 37.212 171.260,37.084 171.265,38.813 172.144 M105.934 171.768 C 105.934 171.955,106.626 172.481,107.473 172.936 C 109.331 173.937,109.341 174.025,107.757 175.542 C 106.532 176.716,104.176 176.566,104.176 175.314 C 104.176 175.111,103.879 174.945,103.516 174.945 C 102.579 174.945,102.700 174.012,103.818 172.623 C 104.720 171.502,105.934 171.012,105.934 171.768 M244.688 178.571 C 238.463 184.811,233.213 190.410,228.761 195.556 C 228.052 196.375,227.268 197.265,227.017 197.534 C 226.767 197.802,225.997 198.769,225.307 199.682 C 222.921 202.841,224.508 201.767,228.181 197.737 C 230.209 195.511,234.958 190.511,238.734 186.626 C 249.331 175.721,252.726 172.117,252.737 171.758 C 252.769 170.730,251.105 172.138,244.688 178.571 M74.989 172.578 C 76.825 173.449,76.826 173.521,75.044 175.525 C 73.432 177.337,72.969 177.452,71.413 176.433 C 70.010 175.514,70.044 175.219,71.758 173.424 C 73.470 171.632,73.164 171.712,74.989 172.578 M85.203 173.024 C 88.409 175.123,85.784 177.161,82.417 175.188 L 80.465 174.044 81.411 172.956 C 82.600 171.588,83.022 171.596,85.203 173.024 M232.023 173.093 C 231.653 173.507,229.686 175.435,227.653 177.376 C 221.391 183.356,207.774 198.001,207.540 199.007 C 207.161 200.641,210.938 197.120,221.099 186.367 C 224.604 182.657,228.921 178.210,230.692 176.485 C 233.312 173.931,233.798 173.254,233.303 172.844 C 232.835 172.455,232.541 172.512,232.023 173.093 M55.674 175.579 C 55.338 176.682,52.250 178.640,51.546 178.197 C 48.833 176.485,51.367 172.958,54.272 174.404 C 55.113 174.822,55.744 175.351,55.674 175.579 M64.261 174.871 C 66.018 175.965,66.059 176.692,64.412 177.573 C 63.498 178.063,63.190 177.986,61.782 176.912 L 60.188 175.695 61.167 174.652 C 61.706 174.079,62.257 173.666,62.392 173.735 C 62.527 173.804,63.368 174.315,64.261 174.871 M33.017 176.520 C 32.506 177.169,32.088 177.443,32.088 177.127 C 32.088 176.468,33.447 174.839,33.747 175.139 C 33.857 175.249,33.528 175.870,33.017 176.520 M44.287 175.800 C 45.391 176.721,45.270 177.539,43.905 178.391 C 42.186 179.465,40.553 177.092,42.009 175.636 C 42.876 174.769,43.068 174.783,44.287 175.800 M81.094 176.452 C 81.959 177.039,82.907 177.605,83.201 177.709 C 83.521 177.824,82.981 178.649,81.856 179.765 C 80.048 181.558,79.938 181.602,78.999 180.918 C 78.462 180.527,77.577 179.980,77.033 179.703 C 75.727 179.038,75.779 178.714,77.473 176.941 C 79.208 175.123,79.148 175.132,81.094 176.452 M114.183 177.932 C 114.265 178.180,113.786 178.889,113.119 179.508 C 110.963 181.507,107.557 178.756,109.467 176.559 L 110.486 175.387 112.259 176.435 C 113.234 177.011,114.100 177.685,114.183 177.932 M94.066 178.636 C 94.066 179.157,92.488 181.099,92.065 181.099 C 91.675 181.099,89.894 180.003,88.896 179.150 L 87.903 178.300 89.041 177.112 L 90.178 175.924 92.122 177.011 C 93.191 177.608,94.066 178.340,94.066 178.636 M103.184 176.934 C 104.892 177.974,104.985 178.840,103.533 180.204 C 102.387 181.281,101.377 180.991,99.393 179.014 C 98.808 178.431,100.794 175.554,101.518 175.938 C 101.650 176.008,102.400 176.456,103.184 176.934 M36.778 176.926 C 37.108 177.919,34.665 179.908,33.969 179.212 C 33.399 178.643,33.443 178.426,34.335 177.400 C 35.324 176.263,36.482 176.038,36.778 176.926 M60.580 178.791 L 62.006 180.000 60.952 181.209 C 59.614 182.743,59.196 182.725,57.076 181.046 L 55.344 179.674 56.793 178.650 C 58.653 177.335,58.872 177.343,60.580 178.791 M70.089 178.093 C 71.458 178.716,71.483 179.051,70.247 180.203 C 69.035 181.332,68.543 181.327,67.307 180.176 C 65.552 178.541,67.641 176.977,70.089 178.093 M215.488 181.012 C 209.493 187.059,205.275 192.088,206.200 192.088 C 206.807 192.088,210.048 188.830,213.848 184.399 C 215.297 182.709,217.125 180.632,217.908 179.784 C 219.235 178.348,219.654 177.582,219.115 177.582 C 218.990 177.582,217.358 179.126,215.488 181.012 M50.111 180.001 C 50.615 180.609,50.536 180.872,49.558 181.850 L 48.418 182.991 47.040 181.831 L 45.662 180.672 46.784 179.550 C 47.973 178.360,48.848 178.479,50.111 180.001 M40.010 181.747 C 38.710 183.131,38.535 183.128,37.777 181.711 C 36.838 179.956,38.776 178.361,40.163 179.747 L 41.053 180.638 40.010 181.747 M88.022 180.497 C 90.918 181.994,91.044 182.450,89.100 184.394 L 87.651 185.844 85.584 184.492 C 83.444 183.092,82.751 181.675,84.421 182.112 C 85.000 182.264,85.258 182.164,85.137 181.834 C 84.606 180.374,86.282 179.597,88.022 180.497 M108.871 180.769 C 110.658 181.986,110.658 181.927,108.841 183.688 L 107.352 185.131 105.874 183.807 L 104.396 182.483 105.687 181.132 C 107.228 179.518,107.061 179.537,108.871 180.769 M119.166 180.989 C 121.679 182.401,121.758 182.734,120.018 184.596 L 118.717 185.989 116.263 184.137 L 113.809 182.284 115.009 181.032 C 116.480 179.497,116.509 179.497,119.166 180.989 M77.713 182.327 L 78.723 182.985 77.521 184.240 C 75.995 185.833,75.590 185.745,71.680 182.981 C 71.577 182.908,72.050 182.266,72.732 181.555 C 74.071 180.157,74.481 180.220,77.713 182.327 M98.676 181.287 C 99.541 181.874,100.489 182.445,100.784 182.555 C 101.126 182.684,100.840 183.251,99.986 184.131 L 98.654 185.505 96.799 184.303 C 95.780 183.641,94.945 182.904,94.945 182.664 C 94.945 182.321,96.620 180.362,97.013 180.246 C 97.063 180.232,97.811 180.700,98.676 181.287 M31.894 181.293 C 32.562 181.789,32.646 182.092,32.278 182.692 C 30.876 184.982,28.883 184.409,29.880 182.002 C 30.512 180.478,30.705 180.410,31.894 181.293 M67.234 183.324 C 67.311 184.350,64.750 185.862,63.774 185.367 C 61.861 184.398,61.639 183.470,63.033 182.273 L 64.275 181.205 65.745 182.141 C 66.554 182.656,67.224 183.188,67.234 183.324 M55.036 183.052 C 57.415 184.045,57.766 184.730,56.504 185.915 L 55.437 186.917 53.791 185.876 C 52.886 185.304,51.961 184.710,51.735 184.557 C 50.315 183.596,53.195 182.282,55.036 183.052 M46.132 185.301 C 45.240 186.376,44.004 186.475,42.846 185.564 L 41.740 184.694 42.899 183.782 L 44.058 182.870 45.344 183.786 C 46.351 184.502,46.522 184.831,46.132 185.301 M114.946 185.165 C 117.210 186.830,117.302 187.183,115.826 188.570 C 114.610 189.712,113.994 189.560,111.392 187.473 L 110.110 186.446 111.401 185.091 C 112.964 183.451,112.606 183.444,114.946 185.165 M36.227 184.897 C 36.526 185.677,35.426 187.692,34.701 187.692 C 33.829 187.692,33.465 185.759,34.183 184.945 C 35.035 183.980,35.867 183.960,36.227 184.897 M95.994 188.184 C 94.517 189.726,94.487 189.727,92.249 188.314 L 90.449 187.178 91.861 185.721 L 93.274 184.264 95.240 185.591 L 97.207 186.918 95.994 188.184 M105.950 186.177 C 106.331 186.632,104.526 189.011,103.801 189.011 C 101.756 189.011,100.899 185.768,102.617 184.534 C 103.038 184.232,105.223 185.309,105.950 186.177 M125.765 185.091 L 127.050 186.006 125.686 187.728 C 124.101 189.730,123.913 189.770,122.180 188.489 C 120.530 187.269,120.547 186.777,122.283 185.338 C 123.973 183.938,124.130 183.927,125.765 185.091 M70.330 185.002 C 70.330 185.214,70.909 185.628,71.617 185.921 C 74.140 186.966,74.529 187.891,72.884 188.933 C 71.676 189.698,71.340 189.750,70.778 189.260 C 70.411 188.940,69.446 188.341,68.634 187.929 L 67.157 187.181 68.386 185.898 C 69.620 184.610,70.330 184.283,70.330 185.002 M83.771 185.949 C 83.994 185.957,84.656 186.363,85.243 186.851 L 86.310 187.740 85.023 188.991 L 83.736 190.243 81.190 188.810 L 78.643 187.377 80.246 185.970 C 81.716 184.680,81.913 184.619,82.608 185.248 C 83.025 185.625,83.548 185.941,83.771 185.949 M61.887 186.804 C 62.768 187.538,62.823 187.759,62.327 188.564 C 61.495 189.909,60.011 190.139,58.891 189.096 L 57.951 188.220 58.945 187.077 C 60.121 185.725,60.545 185.685,61.887 186.804 M50.110 187.326 C 50.110 187.608,50.234 187.715,50.385 187.563 C 50.707 187.242,53.187 188.440,53.187 188.917 C 53.187 189.094,52.779 189.494,52.280 189.805 C 50.619 190.843,47.215 188.842,48.339 187.488 C 48.999 186.693,50.110 186.592,50.110 187.326 M41.867 189.261 C 41.883 189.467,41.376 190.025,40.739 190.500 C 38.824 191.930,36.818 189.619,38.507 187.929 C 39.227 187.209,41.784 188.223,41.867 189.261 M131.082 188.871 C 131.787 189.650,131.746 189.776,130.281 191.330 C 128.462 193.258,128.654 193.217,127.027 192.014 L 125.737 191.060 127.374 189.233 C 129.091 187.315,129.627 187.263,131.082 188.871 M101.117 189.094 C 102.684 190.252,102.711 190.516,101.398 191.829 L 100.379 192.848 98.761 192.018 C 96.869 191.047,96.834 190.904,98.104 189.326 C 99.265 187.883,99.459 187.868,101.117 189.094 M110.763 189.341 C 113.266 190.722,113.373 191.029,111.849 192.475 C 110.822 193.449,110.691 193.472,109.954 192.805 C 109.518 192.410,108.979 192.081,108.757 192.073 C 108.534 192.065,107.878 191.664,107.298 191.181 L 106.245 190.304 107.265 189.218 C 108.501 187.902,108.130 187.889,110.763 189.341 M120.996 189.849 L 122.650 191.102 121.386 192.455 L 120.122 193.809 118.276 192.451 L 116.430 191.093 117.638 189.832 C 119.100 188.306,118.957 188.306,120.996 189.849 M32.967 189.492 C 32.967 189.756,32.571 190.076,32.088 190.202 C 31.562 190.340,31.203 190.809,31.195 191.370 C 31.183 192.214,31.137 192.231,30.737 191.544 C 30.143 190.525,30.960 189.011,32.103 189.011 C 32.578 189.011,32.967 189.227,32.967 189.492 M68.410 190.756 L 69.905 191.429 68.857 192.637 C 67.463 194.246,66.155 194.008,63.758 191.707 C 62.816 190.803,65.236 188.689,66.250 189.530 C 66.616 189.834,67.588 190.386,68.410 190.756 M78.957 190.362 C 81.591 191.869,81.659 192.000,80.498 193.339 C 79.392 194.614,78.750 194.537,76.368 192.844 L 74.340 191.401 75.302 190.215 C 76.480 188.762,76.136 188.748,78.957 190.362 M92.308 191.850 C 92.308 192.138,91.845 192.809,91.280 193.340 L 90.253 194.305 89.123 193.416 C 88.502 192.927,87.817 192.527,87.601 192.527 C 86.298 192.527,86.244 191.438,87.487 190.250 L 88.794 189.000 90.551 190.163 C 91.517 190.802,92.308 191.562,92.308 191.850 M57.767 191.854 C 58.593 192.500,58.589 192.533,57.590 193.400 C 55.839 194.918,53.181 192.915,54.708 191.228 C 55.525 190.325,55.914 190.405,57.767 191.854 M356.236 191.617 C 356.929 192.384,353.906 195.371,353.176 194.641 C 353.066 194.531,355.192 190.889,355.426 190.787 C 355.449 190.777,355.814 191.151,356.236 191.617 M37.118 191.990 C 38.800 193.313,37.347 194.186,35.606 192.899 C 34.656 192.196,34.439 191.823,34.834 191.572 C 35.646 191.057,36.018 191.125,37.118 191.990 M46.798 191.950 C 48.540 192.780,48.650 193.045,47.661 194.035 C 46.094 195.601,43.176 194.385,43.680 192.376 C 44.021 191.017,44.660 190.930,46.798 191.950 M135.463 191.775 C 135.783 192.086,136.786 192.794,137.692 193.349 C 139.717 194.587,139.725 194.810,137.817 196.718 C 135.967 198.568,136.143 198.564,133.909 196.820 C 130.858 194.437,130.913 194.579,132.371 192.810 C 133.772 191.110,134.523 190.859,135.463 191.775 M107.229 193.476 C 109.570 194.931,109.573 195.967,107.238 196.708 C 105.305 197.322,102.893 194.659,104.021 193.157 C 104.992 191.865,104.570 191.823,107.229 193.476 M116.895 193.609 C 119.356 195.162,119.353 195.180,116.279 198.226 L 113.480 201.001 112.285 200.061 C 111.628 199.544,110.832 199.121,110.516 199.121 C 109.419 199.121,109.489 198.370,110.692 197.217 L 111.903 196.057 113.510 197.149 C 116.384 199.102,116.966 198.358,114.465 195.929 L 112.886 194.396 113.888 193.461 C 115.110 192.323,114.837 192.310,116.895 193.609 M96.908 193.708 C 98.787 194.604,98.798 194.712,97.186 196.437 C 95.613 198.121,95.417 198.124,93.849 196.486 L 92.588 195.171 93.624 194.069 C 94.851 192.762,94.912 192.756,96.908 193.708 M126.289 193.753 C 127.021 194.561,125.704 196.923,124.522 196.923 C 123.096 196.923,122.482 195.167,123.521 194.061 C 124.741 192.762,125.333 192.696,126.289 193.753 M73.350 193.998 C 73.620 194.323,74.636 194.948,75.607 195.386 C 77.316 196.156,77.348 196.210,76.604 197.033 C 74.950 198.861,72.721 198.581,69.922 196.195 C 69.690 195.997,72.137 193.407,72.556 193.407 C 72.723 193.407,73.080 193.673,73.350 193.998 M86.480 194.725 C 88.714 196.041,88.740 196.208,86.978 197.854 C 85.617 199.125,85.199 199.115,83.956 197.787 C 83.835 197.658,83.190 197.133,82.523 196.621 L 81.309 195.690 82.688 194.530 C 83.446 193.892,84.190 193.428,84.341 193.498 C 84.492 193.569,85.455 194.121,86.480 194.725 M35.408 194.764 C 36.076 195.844,34.730 196.244,33.744 195.258 L 32.772 194.286 33.942 194.286 C 34.586 194.286,35.246 194.501,35.408 194.764 M62.538 195.165 C 63.152 195.648,63.871 196.044,64.135 196.044 C 64.958 196.044,64.661 197.307,63.720 197.811 C 62.502 198.463,58.968 197.105,58.915 195.965 C 58.845 194.463,61.031 193.980,62.538 195.165 M43.388 197.891 C 42.608 198.387,42.448 198.339,41.163 197.235 C 39.311 195.644,40.528 194.847,42.459 196.388 C 43.470 197.195,43.756 197.657,43.388 197.891 M52.982 195.875 C 54.362 196.779,54.344 197.166,52.861 198.441 C 50.807 200.208,48.763 198.165,50.614 196.195 C 51.765 194.970,51.629 194.988,52.982 195.875 M131.188 196.554 C 131.804 196.835,132.308 197.217,132.308 197.405 C 132.308 197.592,133.000 197.996,133.846 198.302 C 135.724 198.981,135.734 199.132,134.026 201.078 C 132.526 202.786,131.995 202.727,129.700 200.598 C 129.084 200.028,128.331 199.560,128.026 199.560 C 127.352 199.560,127.296 198.842,127.940 198.444 C 128.197 198.286,128.756 198.472,129.183 198.858 C 130.050 199.642,131.429 199.801,131.429 199.117 C 131.429 198.872,131.033 198.334,130.549 197.920 C 128.967 196.565,129.361 195.722,131.188 196.554 M103.383 197.642 C 105.400 199.040,105.386 198.829,103.583 200.740 C 101.045 203.430,97.280 200.717,99.624 197.887 C 101.033 196.187,101.261 196.172,103.383 197.642 M122.926 197.428 L 123.931 198.372 121.261 201.384 C 118.239 204.793,118.345 204.745,116.782 203.401 L 115.624 202.407 118.362 199.494 C 121.475 196.182,121.559 196.143,122.926 197.428 M32.331 197.840 C 32.745 198.510,31.847 199.291,31.026 198.976 C 30.631 198.825,30.454 198.430,30.604 198.039 C 30.904 197.257,31.900 197.143,32.331 197.840 M92.502 198.725 C 94.408 199.849,94.424 200.060,92.714 201.499 C 91.028 202.918,90.988 202.916,89.189 201.345 L 87.709 200.053 88.766 198.928 C 90.048 197.563,90.492 197.539,92.502 198.725 M58.492 199.451 C 60.613 200.950,60.619 200.864,58.287 202.273 L 56.355 203.440 55.128 202.159 L 53.901 200.879 55.165 199.560 C 56.689 197.970,56.411 197.979,58.492 199.451 M81.960 199.641 C 85.261 201.968,82.416 204.147,78.991 201.915 L 77.112 200.691 78.226 199.475 C 79.618 197.956,79.566 197.954,81.960 199.641 M40.849 199.384 C 40.954 199.489,40.827 199.788,40.567 200.048 C 40.019 200.597,38.242 199.840,38.242 199.058 C 38.242 198.624,40.353 198.888,40.849 199.384 M70.659 200.335 C 72.312 201.594,72.327 201.645,71.360 202.713 C 70.451 203.717,69.839 203.725,68.647 202.747 C 68.131 202.324,67.180 201.599,66.533 201.137 L 65.357 200.295 66.366 199.478 C 67.539 198.529,68.553 198.731,70.659 200.335 M48.014 200.440 C 48.316 200.923,48.911 201.319,49.337 201.319 C 50.263 201.319,50.364 202.006,49.486 202.343 C 49.143 202.475,48.421 202.199,47.880 201.731 C 47.340 201.262,46.737 200.879,46.540 200.879 C 46.343 200.879,46.295 200.582,46.434 200.220 C 46.782 199.313,47.361 199.394,48.014 200.440 M35.165 200.188 C 35.165 200.292,34.854 200.688,34.474 201.068 C 33.460 202.082,32.692 201.911,33.626 200.879 C 34.349 200.081,35.165 199.715,35.165 200.188 M129.076 201.591 L 131.922 203.183 130.906 204.339 C 130.347 204.974,128.960 206.448,127.823 207.613 L 125.756 209.731 123.303 207.878 C 120.450 205.725,120.438 206.089,123.478 202.673 C 126.290 199.512,125.598 199.646,129.076 201.591 M108.571 200.791 C 108.571 200.984,109.264 201.392,110.110 201.698 C 112.032 202.394,112.026 202.585,110.000 204.823 L 108.352 206.644 107.381 205.739 C 106.847 205.242,106.229 204.835,106.006 204.835 C 104.614 204.835,104.648 203.545,106.081 202.025 C 107.487 200.535,108.571 199.997,108.571 200.791 M38.242 202.582 C 38.242 202.945,36.309 203.956,35.617 203.956 C 35.406 203.956,35.528 203.363,35.889 202.639 C 36.511 201.392,38.242 201.351,38.242 202.582 M98.272 202.658 C 100.585 204.249,100.571 204.184,98.905 205.777 C 97.266 207.343,96.844 207.337,95.010 205.720 C 93.657 204.527,93.595 204.364,94.244 203.715 C 94.633 203.326,95.154 202.628,95.403 202.164 C 95.983 201.079,95.974 201.077,98.272 202.658 M365.846 201.925 C 365.653 202.259,364.086 204.088,362.364 205.991 C 360.642 207.894,358.674 210.143,357.990 210.989 C 355.957 213.506,347.701 221.795,347.701 221.319 C 347.702 221.077,348.903 219.593,350.371 218.022 C 351.839 216.451,354.161 213.891,355.531 212.335 C 360.901 206.234,366.799 200.282,365.846 201.925 M45.275 202.590 C 45.275 202.777,44.978 202.930,44.615 202.930 C 43.926 202.930,43.757 202.543,44.237 202.063 C 44.565 201.735,45.275 202.095,45.275 202.590 M89.534 204.651 C 89.937 205.042,89.783 205.424,88.867 206.301 L 87.675 207.443 85.816 206.334 C 83.693 205.068,83.558 204.590,84.945 203.253 L 85.934 202.300 87.473 203.221 C 88.319 203.728,89.247 204.372,89.534 204.651 M64.946 203.978 C 66.951 205.452,66.977 206.048,65.081 207.168 C 62.310 208.804,59.098 205.780,61.429 203.729 C 62.944 202.395,62.779 202.384,64.946 203.978 M54.125 204.825 L 55.558 206.133 54.515 207.242 C 53.488 208.336,52.308 208.721,52.308 207.963 C 52.308 207.750,52.719 207.468,53.222 207.336 C 54.502 207.001,54.217 205.108,52.857 204.914 C 52.313 204.837,51.868 204.491,51.868 204.145 C 51.868 203.182,52.552 203.388,54.125 204.825 M77.118 204.439 C 78.978 205.537,79.010 205.710,77.579 206.954 C 76.198 208.154,75.992 208.149,74.095 206.861 L 72.546 205.810 73.448 204.663 C 74.539 203.276,75.089 203.242,77.118 204.439 M41.758 204.376 C 41.758 204.606,41.251 205.302,40.631 205.922 C 39.067 207.487,38.298 206.822,39.826 205.227 C 41.069 203.930,41.758 203.626,41.758 204.376 M116.060 205.514 C 116.643 206.217,116.172 207.237,114.574 208.731 L 113.463 209.770 112.084 208.789 L 110.706 207.807 111.946 206.438 C 113.891 204.292,114.865 204.074,116.060 205.514 M135.165 206.158 C 135.890 206.642,137.126 207.451,137.910 207.957 C 139.561 209.020,139.571 208.989,136.321 212.694 C 133.498 215.913,133.943 215.875,131.051 213.139 L 128.695 210.911 129.991 209.521 C 132.443 206.893,133.187 205.987,133.187 205.631 C 133.187 205.064,133.748 205.214,135.165 206.158 M34.272 206.484 C 34.248 207.049,33.112 208.352,32.643 208.352 C 31.786 208.352,31.188 207.230,31.747 206.671 C 32.314 206.103,34.294 205.956,34.272 206.484 M44.303 206.828 C 42.762 208.663,42.454 208.901,42.284 208.390 C 42.189 208.104,42.556 207.485,43.101 207.012 C 44.275 205.994,45.112 205.866,44.303 206.828 M104.270 207.253 C 105.160 207.857,106.104 208.352,106.368 208.352 C 106.874 208.352,106.557 208.815,104.675 210.820 C 103.652 211.911,103.623 211.915,102.697 211.100 C 102.181 210.645,101.194 209.921,100.505 209.492 L 99.252 208.713 100.477 207.433 C 101.969 205.876,102.226 205.864,104.270 207.253 M148.784 207.143 C 151.187 208.355,151.183 208.249,148.901 210.768 L 147.033 212.829 145.865 211.909 C 145.222 211.403,144.505 210.989,144.270 210.989 C 142.702 210.989,142.768 209.579,144.415 207.892 C 146.407 205.852,146.271 205.876,148.784 207.143 M93.637 207.582 C 95.518 208.856,95.605 209.268,94.209 210.287 C 92.011 211.891,89.059 209.362,90.837 207.397 C 91.758 206.380,91.874 206.387,93.637 207.582 M185.122 208.892 C 183.874 210.160,182.211 212.139,181.426 213.290 C 180.642 214.441,179.753 215.383,179.451 215.384 C 179.148 215.384,178.901 215.582,178.901 215.824 C 178.901 217.675,183.288 213.769,186.224 209.304 C 188.262 206.206,187.899 206.070,185.122 208.892 M82.382 207.300 C 83.430 207.702,83.226 208.417,81.692 209.727 C 80.523 210.724,80.145 210.836,79.274 210.439 C 77.929 209.826,77.970 209.537,79.594 208.171 C 81.033 206.960,81.289 206.880,82.382 207.300 M120.659 208.819 C 121.385 209.282,122.423 209.893,122.967 210.176 C 124.338 210.889,124.220 211.352,122.073 213.679 L 120.200 215.710 117.902 213.598 C 115.185 211.099,115.250 211.405,117.030 209.465 C 118.653 207.697,118.849 207.662,120.659 208.819 M37.363 208.723 C 37.363 209.353,35.686 210.650,35.117 210.460 C 34.766 210.343,34.940 209.944,35.614 209.316 C 36.690 208.313,37.363 208.085,37.363 208.723 M47.912 208.943 C 47.912 209.772,46.306 211.135,45.741 210.786 C 45.433 210.595,45.535 210.137,46.043 209.438 C 46.886 208.279,47.912 208.008,47.912 208.943 M60.180 209.142 C 61.502 209.946,61.489 210.290,60.099 211.382 C 59.246 212.051,56.264 210.881,56.264 209.878 C 56.264 208.327,58.231 207.957,60.180 209.142 M71.978 209.226 C 73.756 210.310,73.563 212.308,71.680 212.308 C 71.421 212.308,71.203 212.555,71.195 212.857 C 71.186 213.193,70.954 213.107,70.597 212.637 C 70.276 212.214,69.853 211.868,69.656 211.868 C 68.178 211.868,67.688 210.362,68.844 209.368 C 70.273 208.140,70.203 208.144,71.978 209.226 M362.121 210.052 C 361.559 210.745,361.016 211.239,360.914 211.149 C 360.728 210.984,362.638 208.791,362.967 208.791 C 363.064 208.791,362.684 209.359,362.121 210.052 M85.963 209.717 C 86.422 210.459,83.834 212.841,82.940 212.499 C 81.926 212.109,82.007 211.579,83.277 210.310 C 84.429 209.157,85.474 208.926,85.963 209.717 M40.440 210.361 C 40.440 210.631,39.776 211.304,38.609 212.219 C 37.462 213.118,37.202 212.052,38.315 211.015 C 39.223 210.169,40.440 209.794,40.440 210.361 M51.169 210.486 C 51.297 210.692,50.910 211.323,50.310 211.886 C 48.957 213.157,48.007 212.555,49.040 211.081 C 49.733 210.092,50.750 209.807,51.169 210.486 M100.220 212.340 C 100.220 213.318,98.183 213.955,97.014 213.343 C 95.581 212.592,95.561 212.425,96.756 211.153 L 97.687 210.161 98.954 211.097 C 99.650 211.612,100.220 212.171,100.220 212.340 M110.730 210.879 L 111.667 211.648 109.918 213.551 L 108.170 215.454 107.066 214.650 C 105.600 213.582,105.647 213.300,107.582 211.578 C 109.499 209.872,109.502 209.871,110.730 210.879 M349.877 213.078 C 349.063 214.226,348.283 215.264,348.145 215.385 C 348.006 215.505,346.908 216.791,345.705 218.242 C 344.501 219.692,343.218 221.176,342.852 221.538 C 341.939 222.445,338.026 227.137,336.621 229.011 C 334.630 231.667,323.133 243.077,322.448 243.077 C 321.930 243.077,322.788 241.914,325.714 238.652 C 327.286 236.900,328.933 235.052,329.375 234.546 C 329.817 234.040,332.488 231.253,335.309 228.352 C 338.131 225.451,340.835 222.511,341.319 221.819 C 341.802 221.128,342.403 220.337,342.654 220.061 C 342.905 219.786,343.576 218.769,344.146 217.802 C 345.281 215.874,350.728 210.362,351.115 210.749 C 351.248 210.882,350.691 211.930,349.877 213.078 M144.024 212.355 L 146.009 213.720 144.763 215.097 C 144.077 215.854,142.778 217.229,141.876 218.153 L 140.235 219.833 138.249 218.467 C 135.926 216.868,135.928 216.876,137.396 215.165 C 141.532 210.342,141.264 210.456,144.024 212.355 M90.738 213.575 C 91.069 214.112,89.704 215.824,88.944 215.824 C 87.963 215.824,85.714 214.407,85.714 213.788 C 85.714 211.649,89.450 211.491,90.738 213.575 M77.401 212.574 C 77.959 213.246,75.775 215.772,74.602 215.812 C 73.637 215.846,73.848 214.332,74.970 213.161 C 76.401 211.668,76.608 211.618,77.401 212.574 M43.838 213.051 C 44.105 213.855,41.343 215.148,40.719 214.512 C 40.345 214.131,40.486 213.786,41.280 213.137 C 42.404 212.219,43.548 212.181,43.838 213.051 M55.055 213.162 C 56.447 213.859,56.530 214.176,55.573 215.133 C 54.306 216.401,50.890 215.059,51.947 213.709 C 52.664 212.793,53.336 212.284,53.626 212.439 C 53.747 212.503,54.390 212.828,55.055 213.162 M101.978 213.338 C 101.978 214.123,100.375 215.551,100.062 215.045 C 99.772 214.575,100.966 212.747,101.563 212.747 C 101.791 212.747,101.978 213.013,101.978 213.338 M116.809 214.779 C 119.536 216.657,119.515 216.558,117.692 218.825 C 115.826 221.147,115.412 221.276,113.962 219.989 L 112.747 218.911 113.844 218.054 L 114.940 217.197 113.684 217.335 C 112.993 217.410,112.281 217.710,112.102 217.999 C 111.860 218.390,111.589 218.339,111.051 217.801 C 110.377 217.127,110.438 216.938,111.919 215.131 C 113.843 212.783,113.905 212.779,116.809 214.779 M129.548 214.615 C 132.382 216.543,132.408 216.616,130.882 218.294 C 128.980 220.384,128.184 220.506,126.257 219.001 C 125.354 218.296,124.273 217.534,123.854 217.308 C 123.182 216.945,123.304 216.681,124.894 215.042 C 127.053 212.818,126.921 212.830,129.548 214.615 M162.385 215.440 C 164.719 217.944,164.722 218.281,162.433 221.001 C 160.785 222.958,159.697 222.813,157.228 220.306 L 155.147 218.194 157.399 215.690 C 160.121 212.665,159.811 212.680,162.385 215.440 M66.502 214.081 C 66.794 214.331,67.413 214.798,67.878 215.120 C 69.390 216.164,66.863 217.484,65.306 216.463 C 63.990 215.601,63.858 214.734,64.945 214.101 C 65.912 213.538,65.869 213.539,66.502 214.081 M34.956 215.791 C 34.796 216.293,34.373 216.703,34.016 216.703 C 33.481 216.703,33.505 216.517,34.155 215.647 C 35.067 214.429,35.371 214.484,34.956 215.791 M45.516 216.137 C 44.844 216.715,44.184 217.078,44.050 216.944 C 43.655 216.549,45.799 214.506,46.290 214.809 C 46.546 214.968,46.215 215.536,45.516 216.137 M80.833 214.907 C 81.183 215.129,81.326 215.610,81.166 216.027 C 81.012 216.430,80.676 216.629,80.419 216.471 C 80.163 216.313,79.594 216.597,79.156 217.102 C 78.389 217.986,76.921 218.375,76.925 217.692 C 76.928 217.259,79.516 214.504,79.912 214.512 C 80.081 214.516,80.496 214.694,80.833 214.907 M195.025 214.792 C 194.484 215.333,194.712 216.264,195.385 216.264 C 196.117 216.264,196.208 215.885,195.678 215.048 C 195.483 214.743,195.190 214.627,195.025 214.792 M95.306 216.861 C 95.511 217.893,93.433 218.773,92.540 218.033 C 91.686 217.324,91.697 217.094,92.637 215.933 C 93.493 214.879,95.018 215.409,95.306 216.861 M106.158 215.829 C 107.000 216.759,105.765 218.901,104.387 218.901 C 103.527 218.901,102.297 217.254,102.685 216.621 C 103.850 214.716,104.928 214.470,106.158 215.829 M59.290 217.253 C 58.684 218.404,57.991 218.934,57.493 218.626 C 57.017 218.332,58.538 216.295,59.246 216.278 C 59.694 216.267,59.703 216.470,59.290 217.253 M51.389 217.889 C 51.679 218.094,50.018 219.780,49.527 219.780 C 49.281 219.780,48.717 219.451,48.273 219.050 C 46.472 217.419,49.263 216.379,51.389 217.889 M72.438 217.518 C 73.316 218.075,71.919 219.046,70.767 218.681 C 70.029 218.446,69.947 218.263,70.360 217.765 C 70.942 217.064,71.599 216.986,72.438 217.518 M63.554 218.503 C 64.377 219.412,64.372 219.437,63.201 220.445 C 60.967 222.366,59.173 220.731,61.176 218.600 C 62.346 217.353,62.508 217.347,63.554 218.503 M81.404 219.011 C 80.594 219.821,80.440 219.858,80.440 219.240 C 80.440 218.836,80.784 218.312,81.205 218.077 C 82.375 217.422,82.483 217.932,81.404 219.011 M98.006 218.352 C 97.943 219.702,96.853 220.646,96.042 220.053 C 95.325 219.528,95.286 219.330,95.785 218.729 C 96.374 218.018,98.035 217.736,98.006 218.352 M110.968 219.451 C 112.016 220.236,113.240 221.119,113.689 221.413 C 114.589 222.001,113.195 223.736,111.823 223.736 C 111.364 223.736,108.144 221.579,106.891 220.432 C 106.736 220.290,108.624 218.022,108.897 218.022 C 108.989 218.022,109.921 218.665,110.968 219.451 M126.785 220.965 C 127.309 222.330,126.560 222.114,125.049 220.464 C 124.206 219.543,123.516 218.608,123.516 218.384 C 123.516 217.801,126.464 220.129,126.785 220.965 M136.547 219.231 C 140.149 221.506,137.348 224.082,132.358 223.083 L 129.991 222.609 132.138 220.326 C 134.679 217.624,134.194 217.745,136.547 219.231 M42.383 218.844 C 42.674 219.316,41.183 221.099,40.498 221.099 C 39.647 221.099,39.951 219.922,40.989 219.198 C 42.195 218.356,42.096 218.381,42.383 218.844 M31.490 221.006 C 30.493 222.003,30.212 221.462,31.082 220.221 C 31.565 219.530,31.877 219.368,32.002 219.741 C 32.105 220.052,31.875 220.621,31.490 221.006 M70.317 219.763 C 70.673 219.988,70.829 220.306,70.666 220.470 C 70.263 220.872,69.011 220.361,69.011 219.794 C 69.011 219.236,69.466 219.225,70.317 219.763 M122.759 220.392 C 123.431 220.969,124.579 221.690,125.311 221.993 C 126.921 222.660,126.543 223.128,124.133 223.451 C 123.142 223.583,122.153 223.725,121.935 223.766 C 120.848 223.970,120.000 223.668,120.000 223.077 C 120.000 222.279,119.274 222.200,118.993 222.967 C 118.832 223.406,118.674 223.406,118.210 222.968 C 117.732 222.518,117.896 222.143,119.120 220.880 C 120.888 219.056,121.163 219.019,122.759 220.392 M90.105 221.324 C 89.154 222.471,87.883 223.004,87.356 222.477 C 86.797 221.918,87.657 220.732,88.996 220.217 C 90.183 219.759,90.851 220.426,90.105 221.324 M101.464 220.659 C 101.643 221.204,101.564 221.222,101.009 220.764 C 100.310 220.187,99.692 220.578,99.290 221.854 C 99.172 222.226,98.920 222.257,98.462 221.955 C 97.901 221.586,97.961 221.388,98.863 220.632 C 100.042 219.644,101.132 219.655,101.464 220.659 M156.654 220.931 C 158.739 222.347,158.196 222.901,154.835 222.786 C 152.262 222.698,152.103 222.473,153.486 220.882 C 154.664 219.528,154.588 219.527,156.654 220.931 M54.811 221.695 C 54.653 222.105,54.221 222.261,53.653 222.112 C 52.545 221.822,52.492 221.286,53.516 220.709 C 54.428 220.194,55.170 220.759,54.811 221.695 M75.165 220.648 C 75.165 220.884,74.522 221.394,73.736 221.783 L 72.308 222.489 73.626 221.370 C 75.140 220.086,75.165 220.074,75.165 220.648 M46.348 221.333 C 47.192 221.971,47.192 221.985,46.348 222.623 C 44.749 223.833,43.103 223.133,43.926 221.594 C 44.509 220.505,45.161 220.435,46.348 221.333 M66.813 222.418 C 66.813 222.901,66.533 223.297,66.190 223.297 C 65.847 223.297,65.254 223.417,64.871 223.564 C 63.977 223.907,63.974 223.121,64.867 222.229 C 65.825 221.270,66.813 221.366,66.813 222.418 M334.883 224.286 C 334.084 225.313,333.325 226.253,333.198 226.374 C 330.502 228.937,323.139 238.284,320.879 242.011 C 319.345 244.541,312.107 252.483,312.095 251.648 C 312.092 251.407,312.589 250.628,313.200 249.917 C 313.811 249.207,314.422 248.183,314.558 247.641 C 314.693 247.100,315.083 246.550,315.424 246.419 C 315.765 246.288,316.044 245.893,316.044 245.540 C 316.044 245.187,316.291 244.637,316.593 244.317 C 316.896 243.998,318.302 242.009,319.720 239.897 C 322.062 236.406,323.952 234.311,326.374 232.519 C 326.858 232.161,328.125 230.681,329.190 229.231 C 331.453 226.148,335.978 221.504,336.191 222.045 C 336.271 222.250,335.683 223.259,334.883 224.286 M33.626 223.297 C 33.461 223.817,33.227 224.143,33.107 224.022 C 32.986 223.901,33.022 223.377,33.187 222.857 C 33.352 222.337,33.586 222.011,33.707 222.132 C 33.828 222.252,33.791 222.777,33.626 223.297 M93.635 222.648 C 94.360 223.521,94.234 223.601,91.758 223.841 C 89.337 224.076,89.051 223.570,91.099 222.674 C 92.956 221.862,92.983 221.862,93.635 222.648 M104.186 224.097 C 102.411 224.274,102.015 223.909,103.109 223.106 C 103.848 222.564,104.061 222.579,104.777 223.220 C 105.566 223.927,105.543 223.962,104.186 224.097 M58.462 223.762 C 58.462 223.990,58.042 224.176,57.529 224.176 C 56.752 224.176,56.687 224.066,57.139 223.521 C 57.688 222.860,58.462 223.001,58.462 223.762 M51.681 224.562 C 51.242 225.273,49.670 225.454,49.670 224.794 C 49.670 224.424,50.122 224.176,50.795 224.176 C 51.414 224.176,51.813 224.350,51.681 224.562 M341.306 228.585 C 339.390 230.511,337.625 232.088,337.383 232.088 C 337.141 232.088,338.609 230.413,340.646 228.365 C 342.683 226.318,344.448 224.741,344.569 224.862 C 344.690 224.983,343.221 226.658,341.306 228.585 M42.198 225.934 C 42.198 226.176,41.802 226.374,41.319 226.374 C 40.835 226.374,40.440 226.176,40.440 225.934 C 40.440 225.692,40.835 225.495,41.319 225.495 C 41.802 225.495,42.198 225.692,42.198 225.934 M177.805 228.569 C 177.366 229.054,176.805 229.451,176.559 229.451 C 176.312 229.451,176.574 228.957,177.141 228.353 C 178.351 227.066,178.980 227.270,177.805 228.569 M151.437 228.557 C 150.587 229.932,143.029 235.483,142.596 235.050 C 142.424 234.879,143.337 234.115,149.011 229.685 C 150.941 228.178,151.966 227.701,151.437 228.557 M103.623 229.595 C 101.956 230.960,97.582 233.439,97.582 233.019 C 97.582 232.300,103.458 228.612,104.615 228.604 C 104.736 228.604,104.290 229.050,103.623 229.595 M157.518 231.341 C 153.516 235.052,150.812 237.313,149.757 237.830 C 148.566 238.415,155.084 232.163,157.797 230.120 C 160.639 227.979,160.504 228.573,157.518 231.341 M88.999 229.603 C 86.586 231.250,85.714 231.713,85.714 231.346 C 85.714 231.124,86.456 230.512,87.363 229.987 C 89.167 228.941,90.389 228.654,88.999 229.603 M114.478 230.372 C 112.825 232.114,105.934 237.463,105.934 237.004 C 105.934 236.497,108.351 234.244,111.868 231.473 C 115.283 228.782,116.455 228.287,114.478 230.372 M37.961 234.083 C 35.662 236.190,32.527 238.378,32.527 237.875 C 32.527 237.416,38.689 232.541,39.279 232.533 C 39.487 232.530,38.894 233.227,37.961 234.083 M60.462 234.104 C 58.643 235.434,53.793 238.171,52.747 238.457 C 51.461 238.809,55.053 236.249,58.572 234.305 C 60.860 233.041,62.095 232.910,60.462 234.104 M98.264 237.623 C 95.036 240.671,89.877 244.310,89.425 243.858 C 89.319 243.751,91.441 241.900,94.140 239.744 C 102.222 233.289,103.609 232.575,98.264 237.623 M45.540 237.290 C 45.112 237.981,41.742 240.131,41.486 239.875 C 41.052 239.441,41.743 238.711,43.435 237.818 C 45.191 236.890,45.896 236.713,45.540 237.290 M310.769 239.841 C 310.769 239.995,310.027 240.951,309.121 241.965 C 308.214 242.979,307.176 244.188,306.813 244.653 C 306.451 245.117,305.462 246.386,304.615 247.473 C 301.973 250.866,301.498 251.428,297.632 255.744 C 296.088 257.467,294.517 259.328,294.141 259.879 C 293.765 260.429,293.338 260.978,293.192 261.099 C 293.046 261.220,292.009 262.505,290.889 263.956 C 288.411 267.163,284.130 271.812,284.918 270.440 C 285.231 269.896,285.636 269.451,285.820 269.451 C 286.004 269.451,286.154 269.170,286.154 268.828 C 286.154 268.485,286.304 268.139,286.487 268.059 C 286.670 267.978,287.509 267.022,288.351 265.934 C 289.193 264.846,290.042 263.758,290.237 263.516 C 290.931 262.655,293.752 258.191,295.542 255.120 C 298.738 249.639,310.769 237.567,310.769 239.841 M37.802 240.208 C 37.802 240.383,31.338 244.832,29.560 245.881 C 29.258 246.060,29.011 246.002,29.011 245.752 C 29.011 245.224,36.439 240.062,37.253 240.025 C 37.555 240.011,37.802 240.094,37.802 240.208 M316.095 242.662 C 315.583 243.354,315.165 244.016,315.165 244.133 C 315.165 245.383,304.830 258.823,304.287 258.280 C 304.087 258.080,305.011 256.177,305.478 255.824 C 305.639 255.703,307.287 253.297,309.141 250.476 C 310.994 247.655,313.399 244.392,314.485 243.223 C 315.570 242.055,316.480 240.901,316.506 240.659 C 316.532 240.418,316.659 240.486,316.789 240.812 C 316.919 241.138,316.606 241.971,316.095 242.662 M139.610 241.238 C 139.195 241.911,134.945 244.361,134.945 243.928 C 134.945 243.691,135.874 242.908,137.009 242.188 C 139.040 240.900,140.046 240.533,139.610 241.238 M42.637 246.823 C 42.637 247.243,38.520 249.671,37.826 249.659 C 37.450 249.653,38.222 248.961,39.540 248.121 C 41.834 246.659,42.637 246.323,42.637 246.823 M127.875 246.760 C 127.317 247.268,123.997 248.642,124.227 248.269 C 124.378 248.025,125.120 247.556,125.877 247.227 C 127.188 246.656,128.267 246.404,127.875 246.760 M306.664 250.911 C 306.263 251.355,305.934 251.933,305.934 252.196 C 305.934 252.459,305.782 252.740,305.596 252.821 C 305.409 252.901,304.527 254.078,303.634 255.435 C 302.016 257.894,299.007 260.912,298.589 260.494 C 298.341 260.246,301.810 255.603,304.140 253.060 C 304.980 252.144,305.971 251.020,306.343 250.562 C 306.714 250.104,307.103 249.814,307.206 249.917 C 307.309 250.020,307.065 250.467,306.664 250.911 M269.011 252.747 C 268.407 253.220,267.714 253.607,267.473 253.607 C 267.231 253.607,267.527 253.220,268.132 252.747 C 268.736 252.274,269.429 251.888,269.670 251.888 C 269.912 251.888,269.615 252.274,269.011 252.747 M292.461 253.325 C 291.772 254.126,290.714 255.144,290.110 255.588 C 289.505 256.032,289.993 255.376,291.192 254.132 C 293.660 251.571,294.340 251.138,292.461 253.325 M32.773 252.981 C 32.304 253.336,31.710 253.620,31.454 253.612 C 31.198 253.605,31.373 253.308,31.842 252.953 C 32.312 252.598,32.905 252.314,33.161 252.322 C 33.417 252.329,33.242 252.626,32.773 252.981 M284.262 256.363 C 280.080 261.055,275.165 266.118,275.165 265.732 C 275.165 264.773,286.056 252.942,286.515 253.402 C 286.627 253.514,285.613 254.846,284.262 256.363 M118.599 255.174 C 118.376 255.397,112.000 256.703,111.133 256.703 C 109.554 256.703,111.504 255.556,113.441 255.346 C 116.855 254.977,118.863 254.910,118.599 255.174 M289.470 261.614 C 288.834 262.660,288.075 263.911,287.783 264.394 C 285.265 268.559,276.044 278.117,276.044 276.564 C 276.044 276.202,281.832 268.380,282.609 267.692 C 282.745 267.571,283.842 266.286,285.045 264.835 C 289.259 259.755,291.664 258.005,289.470 261.614 M280.682 266.418 C 280.020 267.419,278.035 269.747,276.273 271.592 C 274.510 273.436,271.765 276.527,270.173 278.462 C 267.557 281.640,252.983 296.037,250.862 297.539 C 249.159 298.744,250.387 297.155,254.286 293.108 C 256.462 290.850,260.615 286.442,263.516 283.314 C 266.418 280.185,271.307 275.044,274.382 271.890 C 277.457 268.735,280.322 265.722,280.748 265.194 C 282.023 263.617,281.978 264.460,280.682 266.418 M271.599 267.363 C 271.314 267.907,270.565 268.958,269.936 269.700 C 269.306 270.442,268.021 271.984,267.080 273.127 C 266.139 274.270,264.775 275.839,264.048 276.614 C 263.321 277.388,260.431 280.593,257.627 283.736 C 254.822 286.878,252.330 289.667,252.088 289.933 C 250.227 291.979,245.439 297.714,243.297 300.464 C 242.571 301.395,241.236 303.018,240.330 304.072 C 239.423 305.125,238.681 306.124,238.681 306.290 C 238.679 306.830,234.316 311.445,234.301 310.923 C 234.281 310.252,237.280 305.808,238.048 305.371 C 238.381 305.182,239.028 304.178,239.487 303.140 C 240.163 301.613,245.890 295.006,252.527 288.096 C 253.011 287.592,254.784 285.640,256.467 283.756 C 258.151 281.873,260.030 279.784,260.643 279.114 C 261.256 278.444,262.384 277.133,263.149 276.201 C 263.913 275.268,264.903 274.110,265.348 273.626 C 265.793 273.143,267.421 271.313,268.966 269.560 C 271.948 266.179,272.434 265.773,271.599 267.363 M256.508 274.969 C 252.540 278.619,252.122 278.201,255.987 274.449 C 257.622 272.861,259.096 271.696,259.261 271.861 C 259.425 272.026,258.187 273.425,256.508 274.969 M224.615 277.779 C 224.615 278.222,224.226 279.051,223.751 279.622 L 222.886 280.659 222.872 279.691 C 222.852 278.413,223.764 276.449,224.240 276.743 C 224.447 276.871,224.615 277.337,224.615 277.779 M246.538 281.396 C 244.102 284.818,221.978 307.103,221.978 306.135 C 221.978 305.450,246.714 280.000,247.381 280.000 C 247.464 280.000,247.085 280.628,246.538 281.396 M245.705 286.479 C 244.416 287.871,241.761 290.692,239.804 292.747 C 237.847 294.802,235.265 297.670,234.067 299.121 C 232.868 300.571,231.784 301.857,231.658 301.978 C 231.532 302.099,230.243 303.582,228.793 305.275 C 225.087 309.602,225.466 309.195,220.301 314.396 C 216.090 318.636,214.505 319.831,214.505 318.767 C 214.505 317.173,221.950 308.990,231.648 299.923 C 233.220 298.454,237.456 294.161,241.062 290.384 C 244.668 286.606,247.715 283.612,247.833 283.731 C 247.952 283.849,246.994 285.086,245.705 286.479 M230.768 293.716 L 228.904 295.604 230.580 293.527 C 231.502 292.385,232.341 291.535,232.444 291.639 C 232.548 291.742,231.794 292.677,230.768 293.716 M223.297 298.500 C 223.297 299.109,217.954 304.694,217.656 304.396 C 217.487 304.227,222.637 298.341,223.187 298.075 C 223.247 298.046,223.297 298.237,223.297 298.500 M245.714 301.050 C 245.714 301.617,243.988 303.604,243.971 303.056 C 243.958 302.655,245.307 300.681,245.604 300.665 C 245.665 300.662,245.714 300.835,245.714 301.050 M220.392 317.994 C 219.470 319.097,218.535 320.000,218.315 320.000 C 217.858 320.000,218.494 319.091,220.387 317.040 C 222.330 314.933,222.334 315.671,220.392 317.994 M212.892 322.338 C 212.190 323.515,210.307 325.714,210.000 325.714 C 209.322 325.714,209.712 324.731,211.052 323.064 C 212.273 321.545,213.700 320.981,212.892 322.338 M214.869 324.342 C 213.299 326.283,211.898 327.084,213.152 325.324 C 213.960 324.189,215.175 323.144,215.748 323.090 C 215.827 323.083,215.431 323.646,214.869 324.342 " stroke="none" fill="#f73c59" fill-rule="evenodd"></path></g></svg>