<svg id="svg" xmlns="http://www.w3.org/2000/svg" xmlns:xlink="http://www.w3.org/1999/xlink" width="400" height="400" viewBox="0, 0, 400,400"><g id="svgg"><path id="path0" d="M179.516 96.001 C 179.238 96.726,180.422 99.149,183.292 103.729 C 185.325 106.975,190.330 116.109,190.330 116.576 C 190.330 116.706,189.761 116.927,189.066 117.066 C 187.168 117.446,187.067 118.466,188.651 121.257 C 189.425 122.621,190.218 123.802,190.414 123.883 C 190.609 123.963,190.769 124.191,190.769 124.388 C 190.769 124.585,192.429 127.508,194.457 130.883 C 196.486 134.259,198.637 137.889,199.237 138.950 C 202.004 143.842,205.425 149.761,208.913 155.692 C 216.142 167.986,216.325 168.610,212.584 168.181 C 211.344 168.039,207.066 167.821,203.077 167.696 C 199.088 167.571,192.956 167.370,189.451 167.249 C 185.945 167.128,179.912 166.923,176.044 166.793 C 172.176 166.663,167.330 166.456,165.275 166.333 C 153.843 165.649,134.511 165.610,133.506 166.268 C 132.657 166.824,132.313 166.841,131.410 166.367 C 130.115 165.689,126.280 165.392,114.286 165.039 C 109.330 164.894,103.890 164.701,102.198 164.610 C 100.505 164.519,94.868 164.329,89.670 164.187 C 84.473 164.046,79.429 163.843,78.462 163.737 C 76.210 163.491,61.265 162.875,59.670 162.962 C 59.005 162.998,58.214 163.052,57.912 163.081 C 57.610 163.111,55.088 163.018,52.308 162.877 C 45.638 162.536,23.323 162.273,22.364 162.524 C 21.951 162.632,21.493 163.196,21.348 163.778 C 20.908 165.530,20.220 164.969,20.220 162.857 C 20.220 160.607,19.385 160.875,27.033 160.670 C 33.560 160.496,33.407 160.521,33.407 159.604 C 33.407 158.849,33.054 158.769,29.780 158.778 C 27.786 158.783,24.831 158.764,23.214 158.734 L 20.274 158.681 20.000 156.593 C 19.322 151.410,17.438 151.391,17.389 156.567 L 17.363 159.309 15.495 159.680 C 13.271 160.122,12.946 161.042,15.117 160.750 C 17.982 160.364,17.802 158.154,17.802 193.720 C 17.802 211.559,17.680 227.004,17.531 228.044 C 17.154 230.670,18.709 232.527,21.285 232.527 C 23.251 232.527,22.992 233.193,20.879 233.568 C 18.450 233.998,17.613 234.375,17.367 235.150 C 16.772 237.024,18.009 237.835,20.933 237.489 C 21.871 237.378,23.132 237.321,23.736 237.364 C 25.312 237.474,24.395 237.526,34.945 236.727 C 36.637 236.599,40.297 236.379,43.077 236.238 C 45.857 236.098,49.260 235.902,50.640 235.804 C 52.019 235.705,53.238 235.771,53.349 235.951 C 53.460 236.130,55.496 236.143,57.874 235.980 C 60.252 235.817,66.154 235.651,70.989 235.611 C 75.824 235.572,80.571 235.467,81.538 235.379 C 86.766 234.901,106.813 234.635,106.813 235.042 C 106.813 235.610,104.029 236.110,99.780 236.305 C 97.967 236.388,94.604 236.554,92.308 236.674 C 90.011 236.793,85.061 237.006,81.308 237.146 C 75.289 237.372,72.731 237.524,67.446 237.972 C 62.815 238.365,65.016 240.093,69.951 239.938 C 72.073 239.872,73.943 239.951,74.106 240.113 C 74.268 240.276,74.721 240.255,75.113 240.066 C 75.504 239.878,79.357 239.753,83.674 239.788 C 87.992 239.823,92.541 239.700,93.784 239.515 C 95.917 239.196,99.717 238.968,110.989 238.482 C 113.648 238.368,118.593 238.148,121.978 237.994 C 125.363 237.840,129.516 237.651,131.209 237.574 C 132.901 237.498,136.165 237.308,138.462 237.153 C 146.106 236.635,191.179 236.269,203.297 236.625 C 210.495 236.837,213.150 237.194,213.456 237.993 C 213.634 238.457,210.931 245.789,208.178 252.308 C 207.617 253.637,206.901 255.418,206.587 256.264 C 206.273 257.110,205.535 258.885,204.947 260.209 C 199.905 271.554,195.883 282.023,196.225 282.914 C 196.345 283.227,195.562 285.344,194.485 287.617 C 193.409 289.890,192.527 292.094,192.527 292.515 C 192.527 292.936,192.059 293.648,191.487 294.098 C 190.772 294.661,190.380 295.511,190.232 296.822 C 190.114 297.870,189.477 299.544,188.817 300.542 C 188.156 301.540,187.685 302.714,187.769 303.151 C 188.010 304.401,189.370 304.393,189.942 303.139 C 190.464 301.993,194.706 298.395,197.363 296.845 C 198.209 296.351,201.204 294.541,204.020 292.823 C 206.835 291.105,210.890 288.777,213.030 287.649 C 215.171 286.521,219.203 284.388,221.990 282.909 C 224.777 281.430,227.744 279.888,228.584 279.483 C 229.423 279.078,239.166 274.281,250.235 268.824 C 261.304 263.366,270.458 258.901,270.577 258.901 C 270.696 258.901,272.194 258.209,273.907 257.363 C 275.619 256.516,277.295 255.824,277.631 255.824 C 277.967 255.824,278.242 255.640,278.242 255.414 C 278.242 255.189,278.687 254.873,279.231 254.712 C 282.479 253.752,313.880 237.671,314.668 236.564 C 315.238 235.763,317.796 234.205,322.055 232.065 C 325.637 230.264,328.668 228.678,328.790 228.539 C 329.248 228.018,360.976 212.466,368.259 209.193 C 376.714 205.393,379.439 203.915,380.733 202.427 C 381.514 201.530,383.381 200.534,385.604 199.831 C 386.495 199.550,386.627 198.120,385.824 197.454 C 385.207 196.942,385.800 197.241,360.879 184.870 C 350.846 179.889,340.462 174.638,337.802 173.200 C 332.304 170.229,332.500 170.294,332.110 171.310 C 331.905 171.844,332.249 172.430,333.272 173.285 C 334.276 174.124,332.823 173.547,328.571 171.418 C 324.797 169.528,321.908 167.774,321.099 166.881 C 320.266 165.963,318.889 165.140,317.363 164.650 C 316.033 164.222,314.728 163.694,314.463 163.476 C 313.814 162.944,308.925 160.280,305.934 158.829 C 304.604 158.183,303.418 157.540,303.297 157.399 C 302.963 157.010,302.364 156.688,289.890 150.187 C 288.440 149.431,287.154 148.709,287.033 148.582 C 286.912 148.455,285.035 147.462,282.862 146.374 C 280.689 145.286,278.191 143.963,277.310 143.434 C 276.429 142.905,275.320 142.574,274.844 142.699 C 273.836 142.962,270.769 141.790,270.769 141.141 C 270.769 140.568,259.775 134.165,256.154 132.628 C 255.489 132.346,254.945 131.780,254.945 131.370 C 254.945 130.199,251.977 128.300,243.822 124.254 C 234.499 119.629,233.846 119.429,233.846 121.203 C 233.846 122.928,234.498 123.421,240.440 126.187 C 243.220 127.481,246.187 128.963,247.033 129.481 C 247.879 129.998,249.016 130.562,249.560 130.735 C 250.104 130.907,250.549 131.228,250.549 131.447 C 250.549 132.172,235.308 124.957,232.308 122.813 C 231.582 122.294,229.308 121.042,227.253 120.031 C 222.702 117.791,221.856 117.295,221.417 116.612 C 221.229 116.320,220.791 116.190,220.444 116.323 C 220.096 116.456,219.260 116.181,218.587 115.710 C 217.914 115.239,215.088 113.703,212.308 112.296 C 205.422 108.813,203.556 107.832,201.758 106.752 C 200.912 106.244,198.440 104.891,196.264 103.744 C 194.088 102.598,191.319 101.113,190.110 100.444 C 181.959 95.935,179.877 95.061,179.516 96.001 M213.626 125.055 C 214.328 125.900,213.612 125.909,212.502 125.069 C 211.785 124.527,211.763 124.421,212.364 124.410 C 212.757 124.402,213.325 124.692,213.626 125.055 M217.300 125.495 C 217.662 125.857,218.122 126.158,218.320 126.164 C 218.519 126.169,219.164 126.544,219.754 126.998 L 220.826 127.822 219.534 127.596 C 218.823 127.472,218.044 127.134,217.802 126.845 C 217.560 126.556,217.016 126.189,216.593 126.031 C 215.792 125.730,215.522 124.835,216.232 124.835 C 216.457 124.835,216.937 125.132,217.300 125.495 M215.200 128.198 C 215.087 128.493,215.673 129.475,216.502 130.381 C 217.331 131.286,217.941 132.095,217.857 132.180 C 217.497 132.540,215.385 131.395,215.385 130.839 C 215.385 130.503,214.989 129.726,214.505 129.111 C 213.417 127.727,213.417 127.661,214.516 127.661 C 215.037 127.661,215.321 127.884,215.200 128.198 M222.684 130.865 C 224.484 133.107,221.153 132.381,219.120 130.089 L 218.242 129.099 219.972 129.370 C 221.126 129.551,222.029 130.049,222.684 130.865 M227.692 131.439 C 227.692 131.675,227.396 131.868,227.033 131.868 C 226.670 131.868,226.374 131.654,226.374 131.392 C 226.374 131.130,226.126 130.999,225.824 131.101 C 225.316 131.272,224.222 130.268,224.190 129.600 C 224.182 129.441,224.967 129.693,225.934 130.160 C 226.901 130.627,227.692 131.203,227.692 131.439 M232.512 134.834 C 232.520 135.136,233.326 136.224,234.302 137.252 C 236.855 139.941,254.108 169.336,253.493 169.950 C 252.482 170.961,250.371 170.261,250.065 168.813 C 249.889 167.978,249.394 167.039,248.964 166.725 C 248.535 166.411,248.142 165.868,248.090 165.520 C 248.039 165.171,247.313 163.737,246.478 162.333 C 245.642 160.929,244.135 158.396,243.130 156.703 C 240.568 152.390,240.169 151.929,239.287 152.267 C 238.440 152.592,237.826 151.885,237.795 150.549 C 237.784 150.066,237.314 148.731,236.751 147.582 C 235.638 145.310,235.645 145.238,236.909 146.027 C 239.083 147.385,238.230 145.479,233.090 137.494 C 231.315 134.736,231.105 134.560,229.787 134.727 C 228.983 134.829,228.235 134.678,228.042 134.376 C 227.383 133.338,227.709 133.097,228.804 133.814 C 230.201 134.730,230.923 134.318,230.566 132.809 L 230.291 131.648 231.393 132.967 C 232.000 133.692,232.503 134.533,232.512 134.834 M219.142 134.789 C 220.235 135.969,220.512 136.703,219.862 136.703 C 219.435 136.703,217.143 134.368,217.143 133.932 C 217.143 133.267,218.119 133.686,219.142 134.789 M226.484 136.172 C 227.390 137.046,228.135 137.968,228.139 138.221 C 228.154 139.247,228.923 139.867,229.824 139.581 C 230.740 139.291,230.738 139.274,229.589 137.539 C 228.514 135.914,228.570 134.509,229.678 135.293 C 230.279 135.718,232.527 139.223,232.527 139.734 C 232.527 139.961,232.682 140.212,232.872 140.293 C 233.334 140.490,235.247 143.801,235.026 144.022 C 234.613 144.434,233.358 143.545,232.544 142.264 C 230.750 139.440,230.896 139.567,230.149 140.188 C 229.531 140.701,229.554 140.888,230.379 142.047 L 231.296 143.335 230.044 143.024 C 227.525 142.399,226.090 141.571,225.578 140.448 C 224.898 138.956,224.918 138.755,225.714 139.060 C 226.451 139.343,226.488 139.270,226.107 138.278 C 225.960 137.895,225.538 137.582,225.170 137.582 C 224.480 137.582,221.538 134.737,221.538 134.070 C 221.538 133.240,224.942 134.687,226.484 136.172 M238.757 136.552 C 239.529 137.250,239.861 138.462,239.281 138.462 C 238.975 138.462,236.923 136.338,236.923 136.021 C 236.923 135.563,238.013 135.879,238.757 136.552 M243.012 138.925 C 243.536 139.765,243.544 139.860,243.050 139.361 C 242.702 139.009,242.121 138.453,241.758 138.124 C 241.224 137.641,241.217 137.558,241.721 137.689 C 242.063 137.778,242.644 138.334,243.012 138.925 M222.640 139.783 C 223.079 140.268,223.308 140.794,223.150 140.952 C 222.830 141.273,221.099 139.856,221.099 139.273 C 221.099 138.631,221.810 138.867,222.640 139.783 M239.973 139.730 C 240.217 140.185,240.908 140.682,241.508 140.832 C 242.421 141.061,245.275 144.404,245.275 145.244 C 245.275 146.666,241.158 144.444,240.628 142.736 C 240.461 142.198,239.955 141.233,239.503 140.591 C 238.578 139.278,238.490 138.901,239.105 138.901 C 239.339 138.901,239.729 139.274,239.973 139.730 M246.076 139.466 C 246.431 139.894,246.337 140.031,245.690 140.031 C 245.220 140.031,244.835 139.777,244.835 139.466 C 244.835 139.155,245.009 138.901,245.221 138.901 C 245.433 138.901,245.818 139.155,246.076 139.466 M249.553 142.088 C 249.789 142.390,250.188 143.231,250.440 143.956 C 250.692 144.681,252.402 147.741,254.240 150.755 C 258.189 157.229,258.276 157.578,255.714 156.627 C 253.888 155.948,250.996 151.785,246.966 144.034 C 246.215 142.590,246.327 141.612,247.088 142.971 C 247.753 144.159,248.706 143.928,248.459 142.637 C 248.236 141.472,248.836 141.171,249.553 142.088 M257.572 147.912 C 262.366 155.024,264.694 159.121,263.942 159.121 C 262.258 159.121,260.616 157.592,258.686 154.227 C 257.526 152.204,255.716 149.208,254.662 147.569 C 251.319 142.365,254.051 142.687,257.572 147.912 M227.253 147.473 C 229.798 150.588,230.029 151.345,228.120 150.324 C 227.435 149.956,224.176 145.040,224.176 144.372 C 224.176 143.837,224.777 144.442,227.253 147.473 M231.787 145.119 C 232.315 145.396,232.891 145.865,233.067 146.161 C 233.243 146.457,234.295 147.908,235.406 149.386 C 237.799 152.569,237.677 153.171,234.838 152.203 C 232.332 151.349,231.714 150.779,230.067 147.803 C 229.365 146.534,228.643 145.495,228.462 145.495 C 228.280 145.495,228.132 145.297,228.132 145.055 C 228.132 144.455,230.605 144.499,231.787 145.119 M245.698 146.804 C 246.998 147.500,259.780 168.855,259.780 170.331 C 259.780 170.564,258.755 170.502,256.379 170.126 C 256.321 170.117,255.485 168.542,254.522 166.627 C 253.559 164.711,252.565 163.016,252.312 162.860 C 252.060 162.704,251.981 162.370,252.137 162.118 C 252.293 161.866,252.148 161.487,251.815 161.276 C 251.376 160.998,251.360 160.891,251.758 160.886 C 252.615 160.875,252.403 160.128,251.474 159.885 C 251.016 159.765,250.310 158.968,249.905 158.115 C 249.500 157.262,248.787 156.218,248.321 155.796 C 247.151 154.738,247.259 154.142,248.575 154.394 C 250.042 154.674,249.225 153.611,247.674 153.222 C 247.080 153.072,246.593 152.722,246.593 152.444 C 246.593 152.165,246.330 151.625,246.008 151.243 C 243.085 147.776,242.913 145.314,245.698 146.804 M263.555 149.352 C 264.048 150.104,264.373 150.282,264.596 149.921 C 265.011 149.250,266.045 149.691,277.143 155.276 C 280.769 157.101,286.035 159.701,288.845 161.053 C 291.655 162.406,294.186 163.791,294.468 164.131 C 294.751 164.472,296.111 165.299,297.491 165.969 C 301.627 167.977,309.660 172.445,309.815 172.823 C 309.894 173.017,310.332 173.623,310.786 174.170 L 311.613 175.165 311.436 174.176 C 311.339 173.632,311.329 173.187,311.414 173.187 C 311.653 173.187,343.291 189.394,347.033 191.433 C 348.242 192.092,351.604 193.861,354.505 195.364 C 361.037 198.749,361.039 198.761,355.623 201.758 C 353.111 203.149,351.166 204.519,351.044 204.984 C 350.900 205.531,350.572 205.712,350.031 205.542 C 349.540 205.388,345.932 206.819,340.705 209.240 C 333.558 212.550,332.066 213.100,331.475 212.638 C 330.836 212.140,330.832 212.168,331.429 212.939 C 332.030 213.717,332.019 213.765,331.296 213.494 C 330.860 213.331,330.600 213.352,330.717 213.542 C 330.915 213.862,317.137 221.112,316.348 221.103 C 316.152 221.101,316.110 220.908,316.254 220.675 C 316.398 220.441,315.977 219.436,315.318 218.440 C 314.305 216.909,314.203 216.497,314.657 215.770 C 315.287 214.761,314.969 214.000,314.062 214.348 C 313.111 214.713,312.220 212.548,312.956 211.661 C 313.426 211.095,313.372 210.989,312.613 210.989 C 312.118 210.989,311.299 210.464,310.795 209.823 C 309.556 208.249,309.235 208.749,310.194 210.759 C 311.068 212.592,309.929 214.271,308.011 213.977 C 306.831 213.796,304.777 210.117,305.574 209.612 C 306.009 209.336,305.957 209.243,305.363 209.238 C 304.874 209.233,304.285 208.589,303.820 207.551 L 303.068 205.872 300.875 206.886 C 299.668 207.444,298.422 207.903,298.106 207.906 C 297.789 207.910,297.649 208.104,297.794 208.338 C 297.953 208.595,298.952 208.412,300.308 207.877 C 302.668 206.947,303.274 207.148,303.290 208.866 C 303.297 209.671,299.269 211.268,298.471 210.775 C 298.221 210.620,298.022 210.898,298.022 211.403 C 298.022 211.900,298.197 212.308,298.411 212.308 C 299.441 212.308,300.329 215.426,299.488 216.087 C 297.576 217.590,296.147 218.143,295.787 217.518 C 294.944 216.054,294.112 215.192,293.823 215.481 C 293.649 215.655,293.846 216.313,294.260 216.945 C 295.615 219.013,292.675 221.613,291.229 219.625 L 290.542 218.681 290.595 219.780 C 290.685 221.683,290.585 221.861,289.006 222.610 C 287.164 223.484,286.757 223.302,286.360 221.424 C 286.004 219.742,284.394 216.703,283.860 216.703 C 283.654 216.703,283.690 217.086,283.941 217.554 C 284.191 218.021,284.396 218.583,284.396 218.803 C 284.396 219.208,278.264 223.042,278.037 222.780 C 277.267 221.889,276.455 219.570,276.865 219.433 C 277.672 219.164,277.433 218.383,276.593 218.545 C 276.170 218.627,275.368 218.196,274.810 217.589 L 273.797 216.484 274.075 217.582 C 274.228 218.187,274.928 219.791,275.631 221.147 C 277.031 223.848,276.947 224.133,274.358 225.474 C 273.142 226.104,273.290 226.239,272.297 223.588 C 271.618 221.777,271.592 221.404,272.124 221.068 C 272.632 220.746,272.607 220.672,271.988 220.666 C 271.287 220.660,269.556 218.637,269.940 218.274 C 270.034 218.186,270.882 217.794,271.826 217.403 C 272.769 217.012,273.451 216.601,273.340 216.491 C 273.088 216.238,268.795 217.472,267.033 218.304 L 265.714 218.926 267.365 218.721 C 269.396 218.469,270.912 220.505,269.901 222.124 C 269.441 222.860,269.467 222.945,270.080 222.709 C 270.840 222.418,271.270 223.173,271.839 225.790 C 272.114 227.053,271.986 227.290,270.475 228.317 C 268.496 229.661,267.692 229.751,267.692 228.625 C 267.692 228.171,267.397 227.554,267.035 227.254 C 266.673 226.954,266.150 225.948,265.871 225.018 C 265.593 224.089,264.887 222.879,264.302 222.330 L 263.240 221.332 263.717 222.588 C 264.067 223.508,264.060 224.005,263.692 224.449 C 263.244 224.989,263.425 225.221,264.223 225.128 C 264.879 225.052,265.662 227.328,265.221 228.028 C 264.463 229.229,262.475 229.530,261.855 228.538 C 260.888 226.989,260.740 227.663,261.405 230.580 C 261.767 232.168,261.995 233.517,261.911 233.577 C 260.069 234.904,258.280 235.584,257.960 235.080 C 257.432 234.247,257.501 233.228,258.132 232.566 C 258.579 232.096,258.508 232.041,257.745 232.271 C 256.921 232.520,255.385 230.246,255.385 228.777 C 255.385 228.658,256.522 228.046,257.912 227.417 C 260.877 226.076,260.404 225.584,257.094 226.567 C 255.824 226.944,254.746 227.253,254.699 227.253 C 254.651 227.253,254.359 226.641,254.049 225.893 C 253.377 224.272,253.491 224.167,257.363 222.857 C 261.015 221.621,261.875 220.963,259.341 221.345 C 258.253 221.508,256.868 221.888,256.264 222.188 C 254.007 223.309,252.818 223.370,252.295 222.393 C 251.683 221.251,252.166 220.612,254.265 219.789 C 255.122 219.452,255.824 218.995,255.824 218.772 C 255.824 218.550,255.478 218.516,255.055 218.698 C 254.632 218.879,253.495 219.263,252.527 219.551 C 251.560 219.838,249.815 220.518,248.649 221.060 C 245.666 222.449,243.086 220.244,245.679 218.522 C 247.152 217.544,246.739 217.231,244.616 217.717 C 242.321 218.242,242.397 218.288,242.072 216.182 C 241.789 214.347,242.345 214.068,246.813 213.802 C 248.022 213.731,250.297 213.462,251.868 213.205 C 253.440 212.949,255.556 212.630,256.572 212.497 L 258.419 212.255 259.029 214.345 C 259.364 215.495,259.868 216.513,260.149 216.606 C 260.837 216.836,260.767 215.848,260.000 214.505 C 258.987 212.733,259.200 212.450,261.964 211.906 C 263.407 211.622,264.699 211.209,264.835 210.989 C 264.972 210.768,265.423 210.707,265.838 210.853 C 266.389 211.047,266.469 210.982,266.132 210.614 C 265.527 209.953,261.411 209.722,258.903 210.208 C 256.445 210.684,255.007 210.892,251.648 211.255 C 250.198 211.412,247.283 211.775,245.170 212.061 C 242.579 212.413,241.185 212.437,240.884 212.137 C 240.199 211.452,240.358 210.110,241.125 210.110 C 242.410 210.110,241.355 209.366,240.016 209.328 C 238.453 209.283,238.332 209.761,239.588 211.016 C 240.945 212.373,240.437 212.961,237.867 213.011 C 236.614 213.035,235.461 213.183,235.304 213.340 C 235.147 213.498,234.062 213.626,232.894 213.626 C 231.053 213.626,230.769 213.745,230.769 214.517 C 230.769 215.314,231.026 215.399,233.228 215.327 C 235.769 215.244,236.463 215.655,236.477 217.253 C 236.483 217.939,235.927 218.028,231.319 218.074 C 225.014 218.138,224.967 218.132,224.286 217.248 C 223.984 216.856,223.736 216.764,223.736 217.043 C 223.736 217.751,221.972 218.631,221.500 218.160 C 221.148 217.808,218.510 217.812,204.540 218.188 C 198.708 218.344,196.923 218.139,196.923 217.313 C 196.923 216.978,197.187 216.703,197.509 216.703 C 197.832 216.703,198.095 216.407,198.095 216.044 C 198.095 215.681,197.782 215.383,197.399 215.382 C 197.016 215.380,196.153 215.092,195.480 214.741 C 194.807 214.390,194.365 214.279,194.498 214.494 C 195.425 215.993,185.325 216.000,184.113 214.501 L 183.227 213.407 183.490 214.615 C 183.721 215.677,183.622 215.824,182.673 215.824 C 181.864 215.824,181.610 216.045,181.659 216.703 C 181.713 217.419,182.041 217.582,183.416 217.582 C 184.431 217.582,184.998 217.758,184.835 218.022 C 184.686 218.264,183.141 218.459,181.403 218.455 C 179.262 218.450,178.452 218.315,178.894 218.036 C 179.409 217.710,179.204 217.480,177.919 216.944 C 175.774 216.047,172.308 216.161,172.308 217.127 C 172.308 217.304,172.753 217.663,173.297 217.925 C 174.147 218.335,173.963 218.406,171.978 218.432 C 170.120 218.456,169.670 218.321,169.670 217.740 C 169.670 217.110,169.200 217.048,165.947 217.251 C 163.050 217.432,162.108 217.345,161.705 216.859 C 161.088 216.116,160.220 216.303,160.219 217.179 C 160.219 217.671,159.273 217.817,155.714 217.875 L 151.209 217.948 151.209 216.692 C 151.209 215.052,150.994 214.964,148.132 215.430 C 144.955 215.948,143.311 216.147,139.341 216.498 C 137.527 216.659,135.710 216.969,135.301 217.187 C 134.842 217.433,134.456 217.419,134.290 217.150 C 134.142 216.911,133.356 216.821,132.543 216.950 C 127.565 217.741,125.824 217.503,125.824 216.031 C 125.824 214.648,127.742 214.358,129.099 215.536 C 130.058 216.369,130.067 216.367,130.340 215.279 C 130.636 214.101,135.180 213.222,136.668 214.055 C 137.030 214.257,137.813 214.214,138.438 213.958 C 139.056 213.704,140.154 213.477,140.879 213.452 C 143.748 213.353,142.878 211.456,139.980 211.491 C 137.306 211.523,135.925 210.747,136.410 209.485 C 136.797 208.475,138.410 208.636,139.374 209.780 L 140.208 210.769 140.104 209.672 C 140.024 208.830,140.230 208.541,140.989 208.432 C 141.568 208.349,141.978 207.983,141.978 207.549 C 141.978 206.810,135.579 206.854,128.254 207.644 C 126.202 207.865,125.199 207.373,126.023 206.548 C 126.372 206.199,130.194 205.782,133.516 205.730 C 134.287 205.718,134.505 205.459,134.505 204.561 L 134.505 203.407 130.659 203.667 C 128.544 203.810,124.928 204.055,122.623 204.212 C 119.048 204.454,118.345 204.390,117.835 203.776 C 116.979 202.745,117.079 202.716,122.725 202.379 C 128.438 202.037,129.282 201.780,128.356 200.665 C 127.845 200.048,127.149 199.986,123.549 200.237 C 114.952 200.836,114.985 200.836,114.101 200.071 C 113.323 199.397,113.278 199.397,113.521 200.065 C 113.961 201.277,108.738 201.661,107.579 200.502 C 106.768 199.691,107.724 199.285,110.674 199.187 C 112.056 199.141,114.077 198.972,115.165 198.811 C 118.066 198.382,119.281 198.370,119.823 198.765 C 120.105 198.971,120.646 198.742,121.125 198.213 C 122.642 196.536,120.724 196.267,113.846 197.190 C 109.917 197.717,105.934 197.846,105.934 197.446 C 105.934 197.210,105.647 196.907,105.297 196.773 C 104.892 196.617,104.741 196.740,104.883 197.109 C 105.297 198.187,97.618 198.735,96.366 197.717 C 95.760 197.225,95.701 197.252,95.948 197.912 C 96.174 198.515,96.001 198.681,95.151 198.681 C 94.554 198.681,93.972 198.706,93.856 198.736 C 91.291 199.408,89.522 199.454,88.161 198.885 C 86.217 198.073,85.909 198.076,86.593 198.901 C 86.894 199.264,86.968 199.569,86.757 199.580 C 84.478 199.695,80.140 200.032,78.022 200.259 C 74.191 200.668,72.379 200.507,71.772 199.702 C 70.899 198.542,71.550 198.218,74.500 198.343 C 76.034 198.408,77.421 198.330,77.581 198.170 C 78.029 197.722,76.976 196.044,76.248 196.044 C 75.471 196.044,75.389 195.310,76.139 195.060 C 76.679 194.880,73.984 192.126,73.243 192.101 C 73.032 192.094,73.106 191.791,73.407 191.429 C 73.882 190.856,73.778 190.548,73.222 190.879 C 72.951 191.041,70.769 188.920,70.769 188.495 C 70.769 188.295,71.280 188.132,71.905 188.132 C 73.476 188.132,73.034 187.069,71.395 186.904 C 69.196 186.684,68.654 186.339,69.808 185.894 C 71.039 185.420,70.679 184.615,69.236 184.615 C 68.226 184.615,66.813 185.629,66.813 186.354 C 66.813 187.503,64.339 187.153,63.204 185.844 L 62.012 184.470 62.105 185.746 L 62.198 187.022 58.742 187.370 C 56.436 187.602,55.096 187.561,54.718 187.247 C 54.313 186.911,54.104 186.918,53.986 187.273 C 53.894 187.549,52.560 187.839,50.968 187.929 C 49.399 188.017,47.279 188.223,46.256 188.386 C 45.008 188.586,44.396 188.523,44.396 188.196 C 44.396 187.691,45.139 187.465,48.132 187.055 C 49.099 186.923,50.127 186.781,50.416 186.741 C 50.796 186.687,50.817 186.433,50.492 185.827 C 50.245 185.365,49.775 185.089,49.449 185.215 C 48.200 185.694,47.742 184.235,48.966 183.677 C 49.595 183.390,50.110 182.879,50.110 182.541 C 50.110 182.203,49.952 182.024,49.759 182.143 C 48.969 182.631,48.159 181.640,48.759 180.918 C 49.072 180.540,49.211 179.924,49.068 179.549 C 48.918 179.159,49.084 178.761,49.455 178.619 C 49.813 178.482,50.004 178.206,49.880 178.006 C 49.757 177.807,49.857 177.519,50.103 177.367 C 50.348 177.215,50.549 177.399,50.549 177.776 C 50.549 178.153,50.797 178.495,51.099 178.537 C 52.744 178.762,53.910 178.621,54.424 178.135 C 55.131 177.466,54.658 176.551,53.779 176.888 C 53.428 177.023,53.248 176.960,53.378 176.749 C 53.889 175.922,56.328 175.940,56.849 176.774 C 57.412 177.675,58.082 177.862,57.912 177.070 C 57.764 176.378,60.474 175.815,61.072 176.413 C 61.401 176.742,61.538 176.625,61.538 176.019 C 61.538 175.265,61.791 175.179,63.583 175.321 C 65.405 175.466,65.594 175.398,65.322 174.690 C 65.038 173.950,65.071 173.945,65.813 174.615 C 66.493 175.231,67.512 175.308,72.865 175.150 C 78.868 174.971,79.121 174.999,79.121 175.833 C 79.121 176.312,78.911 176.703,78.655 176.703 C 78.399 176.703,78.313 176.903,78.464 177.148 C 78.880 177.820,81.391 177.517,81.110 176.829 C 80.983 176.518,80.759 175.967,80.612 175.604 C 80.412 175.109,80.685 174.929,81.711 174.879 C 82.462 174.843,83.308 174.793,83.590 174.769 C 83.872 174.745,84.185 174.973,84.286 175.275 C 84.386 175.577,84.156 175.824,83.773 175.824 C 83.390 175.824,83.077 176.100,83.077 176.438 C 83.077 177.088,113.684 177.182,115.174 176.536 C 116.906 175.786,184.218 176.979,210.549 178.227 C 213.330 178.359,219.264 178.572,223.736 178.701 C 228.209 178.831,232.165 179.022,232.527 179.126 C 232.890 179.231,234.868 179.418,236.923 179.542 C 240.307 179.747,242.875 180.332,244.240 181.210 C 244.517 181.388,245.166 181.189,245.682 180.767 L 246.621 180.000 245.281 178.382 C 244.441 177.366,244.118 176.655,244.414 176.472 C 245.116 176.038,247.033 176.635,247.033 177.287 C 247.033 178.609,248.105 179.368,249.562 179.077 C 251.360 178.717,251.478 177.582,249.717 177.582 C 248.974 177.582,248.337 177.299,248.184 176.901 C 247.959 176.315,248.440 176.235,251.660 176.323 C 254.083 176.390,255.581 176.243,255.919 175.905 C 256.320 175.504,256.187 175.385,255.337 175.385 C 253.875 175.385,252.861 174.558,252.503 173.075 C 252.215 171.878,252.235 171.864,254.347 171.884 C 255.522 171.895,257.275 171.871,258.242 171.831 C 260.894 171.722,260.875 171.711,261.978 174.066 C 263.226 176.731,264.603 177.234,263.482 174.615 C 263.095 173.709,262.671 172.708,262.540 172.391 C 261.845 170.701,266.569 172.038,267.416 173.771 C 268.437 175.863,269.395 175.361,268.621 173.139 C 268.110 171.673,268.632 170.703,269.607 171.306 C 269.838 171.448,269.885 171.336,269.712 171.057 C 269.540 170.778,268.918 170.549,268.331 170.549 C 267.453 170.549,266.996 170.017,265.749 167.541 C 264.915 165.886,263.627 163.504,262.886 162.247 C 262.145 160.990,261.538 159.845,261.538 159.703 C 261.538 159.057,264.738 160.055,265.438 160.919 C 266.021 161.639,266.410 161.782,266.955 161.476 C 267.693 161.064,267.108 159.929,260.255 148.485 L 259.282 146.861 261.060 147.559 C 262.038 147.944,263.161 148.750,263.555 149.352 M232.264 154.797 C 232.631 155.320,232.846 155.883,232.744 156.049 C 232.641 156.215,233.044 156.611,233.638 156.929 C 235.274 157.805,238.630 163.298,237.272 162.878 C 236.718 162.707,235.867 162.470,235.383 162.352 C 234.209 162.065,231.381 157.015,232.031 156.365 C 232.361 156.035,232.173 155.596,231.391 154.872 C 230.625 154.162,230.487 153.846,230.941 153.846 C 231.303 153.846,231.898 154.274,232.264 154.797 M238.373 154.692 C 238.960 154.915,239.569 155.431,239.725 155.839 C 239.947 156.416,239.838 156.513,239.236 156.273 C 238.810 156.104,237.967 155.879,237.363 155.772 C 235.680 155.476,235.165 155.234,235.165 154.739 C 235.165 154.176,236.947 154.150,238.373 154.692 M239.538 157.838 C 241.599 158.280,245.678 163.260,244.744 164.194 C 244.439 164.499,239.821 163.198,239.677 162.766 C 239.605 162.552,238.858 161.330,238.015 160.051 C 235.966 156.940,235.887 157.056,239.538 157.838 M257.712 157.768 C 258.838 158.196,259.616 159.388,263.224 166.216 L 265.464 170.454 264.171 170.644 C 262.394 170.905,262.384 170.894,259.637 165.860 C 258.296 163.401,256.692 160.587,256.072 159.605 C 254.545 157.186,254.960 156.721,257.712 157.768 M228.303 164.946 C 229.002 166.215,229.381 167.055,229.146 166.813 C 228.101 165.737,224.763 161.015,224.485 160.220 C 223.986 158.793,226.903 162.404,228.303 164.946 M240.316 167.162 C 241.095 168.395,241.648 169.488,241.545 169.590 C 241.246 169.890,238.191 168.176,238.162 167.692 C 238.147 167.451,237.664 166.694,237.089 166.010 C 235.679 164.334,235.773 163.955,237.473 164.480 C 238.480 164.791,239.319 165.583,240.316 167.162 M246.813 166.868 C 247.055 167.265,247.698 168.136,248.242 168.804 C 249.540 170.397,249.514 170.456,247.582 170.267 C 244.571 169.973,244.028 169.684,242.647 167.638 L 241.276 165.607 243.825 165.877 C 245.497 166.053,246.525 166.394,246.813 166.868 M58.677 169.677 C 58.525 169.923,57.416 170.089,56.212 170.046 C 53.551 169.952,54.290 169.247,57.059 169.238 C 58.231 169.233,58.848 169.401,58.677 169.677 M78.681 169.670 C 78.681 170.102,78.007 170.258,76.264 170.229 C 74.534 170.200,74.534 169.980,76.264 169.670 C 77.231 169.497,78.170 169.327,78.352 169.293 C 78.533 169.259,78.681 169.429,78.681 169.670 M83.898 170.345 C 84.010 170.457,83.168 170.549,82.025 170.549 C 80.868 170.549,80.059 170.370,80.199 170.144 C 80.439 169.755,83.473 169.920,83.898 170.345 M91.705 170.679 C 91.875 170.850,91.499 170.989,90.868 170.989 C 90.238 170.989,89.594 170.782,89.438 170.529 C 89.124 170.021,91.183 170.157,91.705 170.679 M102.418 171.001 C 102.418 171.494,95.152 171.343,94.649 170.839 C 94.489 170.680,96.172 170.549,98.388 170.549 C 100.850 170.549,102.418 170.725,102.418 171.001 M244.066 172.770 C 245.476 174.298,245.558 174.741,244.505 175.151 C 243.767 175.438,240.444 172.267,240.441 171.271 C 240.438 170.491,242.904 171.510,244.066 172.770 M37.582 171.868 C 37.433 172.110,36.432 172.308,35.359 172.308 C 34.285 172.308,33.407 172.110,33.407 171.868 C 33.407 171.626,34.407 171.429,35.630 171.429 C 37.001 171.429,37.750 171.597,37.582 171.868 M250.428 172.290 C 250.551 172.312,251.868 174.843,251.868 175.056 C 251.868 175.523,246.903 174.574,246.546 174.039 C 245.015 171.743,245.005 171.760,247.763 172.025 C 249.175 172.160,250.374 172.280,250.428 172.290 M43.956 175.824 C 43.956 176.066,43.450 176.264,42.831 176.264 C 42.193 176.264,41.824 176.073,41.978 175.824 C 42.127 175.582,42.634 175.385,43.103 175.385 C 43.572 175.385,43.956 175.582,43.956 175.824 M35.497 177.253 C 35.397 177.555,34.887 177.865,34.363 177.942 C 33.651 178.047,33.478 177.909,33.676 177.393 C 33.989 176.577,35.764 176.440,35.497 177.253 M41.319 178.915 C 41.319 179.569,40.128 179.929,39.231 179.547 C 38.567 179.265,38.613 179.174,39.560 178.884 C 41.133 178.405,41.319 178.408,41.319 178.915 M45.714 178.875 C 45.714 179.526,45.072 179.760,44.032 179.488 C 42.633 179.122,42.867 178.462,44.396 178.462 C 45.121 178.462,45.714 178.648,45.714 178.875 M35.857 179.727 C 35.546 180.231,33.846 180.674,33.846 180.252 C 33.846 179.695,34.398 179.341,35.264 179.341 C 35.722 179.341,35.988 179.515,35.857 179.727 M41.948 182.240 C 41.906 182.797,39.650 183.533,39.240 183.123 C 39.054 182.937,39.260 182.524,39.697 182.205 C 40.558 181.575,41.997 181.597,41.948 182.240 M32.088 183.553 C 32.088 184.329,31.142 184.194,30.870 183.379 C 30.774 183.092,31.009 182.857,31.392 182.857 C 31.775 182.857,32.088 183.170,32.088 183.553 M37.202 183.393 C 37.319 183.582,37.254 183.753,37.059 183.773 C 36.863 183.793,36.209 183.867,35.604 183.937 C 34.303 184.088,33.734 183.835,34.088 183.262 C 34.385 182.780,36.889 182.886,37.202 183.393 M46.399 185.153 C 46.547 185.302,46.268 185.638,45.779 185.900 C 44.857 186.393,44.104 185.883,44.591 185.094 C 44.855 184.668,45.949 184.704,46.399 185.153 M43.516 185.505 C 43.516 185.753,43.022 186.144,42.418 186.374 C 41.207 186.834,41.057 187.255,41.830 188.028 C 42.218 188.416,42.086 188.634,41.280 188.936 C 38.927 189.817,38.242 189.940,38.242 189.480 C 38.242 189.222,38.425 189.011,38.650 189.011 C 39.203 189.011,40.440 187.739,40.440 187.171 C 40.440 186.728,36.504 186.978,34.563 187.545 C 34.002 187.709,33.805 187.596,33.940 187.189 C 34.050 186.861,34.518 186.557,34.981 186.513 C 36.505 186.367,38.439 185.980,39.780 185.552 C 41.571 184.980,43.516 184.956,43.516 185.505 M69.500 189.800 C 69.808 190.610,69.801 191.019,69.478 191.126 C 68.560 191.432,69.032 192.088,70.171 192.088 C 71.236 192.088,72.480 193.101,72.513 193.997 C 72.521 194.200,71.458 194.299,70.151 194.217 C 68.844 194.134,67.858 194.201,67.960 194.365 C 68.063 194.530,67.962 194.779,67.736 194.918 C 67.212 195.242,64.957 194.393,64.521 193.709 C 63.986 192.867,64.125 192.414,64.835 192.686 C 65.198 192.826,65.495 192.748,65.495 192.514 C 65.495 192.280,65.717 192.137,65.989 192.198 C 66.261 192.258,66.574 192.060,66.685 191.758 C 66.796 191.456,66.660 191.209,66.384 191.209 C 66.108 191.209,65.991 191.033,66.123 190.819 C 66.256 190.605,66.050 190.169,65.667 189.851 C 65.036 189.327,65.047 189.245,65.782 188.986 C 67.711 188.307,69.043 188.599,69.500 189.800 M63.041 189.278 C 63.916 189.613,63.945 190.595,63.090 190.923 C 62.434 191.175,61.099 190.166,61.099 189.419 C 61.099 188.953,62.019 188.886,63.041 189.278 M59.662 190.628 C 59.783 190.994,59.469 191.049,58.598 190.815 C 57.872 190.621,56.597 190.714,55.505 191.042 C 53.846 191.540,52.134 191.093,53.708 190.572 C 56.008 189.812,59.405 189.844,59.662 190.628 M52.176 191.037 C 52.460 191.884,47.823 192.589,47.033 191.820 C 46.548 191.347,46.510 191.093,46.889 190.858 C 47.710 190.351,51.995 190.496,52.176 191.037 M34.099 192.914 C 33.787 193.418,32.088 193.861,32.088 193.439 C 32.088 192.882,32.640 192.527,33.506 192.527 C 33.963 192.527,34.230 192.701,34.099 192.914 M62.308 193.740 C 62.610 194.133,62.854 194.663,62.850 194.919 C 62.846 195.233,62.739 195.228,62.521 194.904 C 62.343 194.639,61.258 194.466,60.110 194.518 C 58.361 194.598,58.022 194.486,58.022 193.827 C 58.022 192.424,61.244 192.359,62.308 193.740 M53.079 194.396 C 52.865 195.048,49.231 195.412,49.231 194.781 C 49.231 194.343,50.352 194.016,52.234 193.906 C 52.876 193.869,53.192 194.052,53.079 194.396 M74.134 196.185 C 74.425 196.476,73.881 196.581,72.088 196.581 C 70.589 196.581,70.330 196.499,70.330 196.022 C 70.330 195.527,73.617 195.668,74.134 196.185 M64.129 196.750 C 65.061 197.045,64.451 197.395,62.608 197.623 C 61.540 197.756,60.820 197.628,60.591 197.266 C 60.351 196.888,60.231 196.870,60.227 197.212 C 60.219 197.752,58.603 197.508,58.234 196.911 C 58.117 196.721,58.417 196.669,58.900 196.796 C 59.384 196.922,59.780 196.824,59.780 196.577 C 59.780 196.159,62.622 196.273,64.129 196.750 M68.948 196.435 C 69.770 196.956,69.037 197.315,67.228 197.277 C 65.460 197.241,64.943 197.021,65.293 196.453 C 65.610 195.941,68.148 195.929,68.948 196.435 M53.626 196.923 C 53.626 197.165,53.219 197.363,52.721 197.363 C 52.224 197.363,51.938 197.165,52.088 196.923 C 52.237 196.681,52.645 196.484,52.993 196.484 C 53.341 196.484,53.626 196.681,53.626 196.923 M47.033 197.751 C 47.033 197.964,46.637 198.243,46.154 198.369 C 45.582 198.519,45.275 198.383,45.275 197.981 C 45.275 197.641,45.670 197.363,46.154 197.363 C 46.637 197.363,47.033 197.537,47.033 197.751 M70.330 199.315 C 70.330 200.451,69.664 200.631,64.396 200.923 C 63.429 200.977,62.313 201.182,61.917 201.379 C 61.381 201.645,61.132 201.491,60.945 200.778 C 60.607 199.487,60.496 199.528,64.842 199.334 C 66.951 199.239,68.785 199.054,68.917 198.922 C 69.399 198.439,70.330 198.698,70.330 199.315 M33.407 200.471 C 33.407 200.944,33.654 201.730,33.956 202.217 C 34.517 203.122,33.784 204.130,32.792 203.817 C 32.325 203.670,31.945 200.568,32.285 199.681 C 32.606 198.844,33.407 199.408,33.407 200.471 M59.001 201.073 C 59.563 202.077,59.456 202.137,56.666 202.379 C 53.944 202.615,53.443 202.417,52.976 200.925 C 52.656 199.900,52.697 199.880,54.508 200.169 C 56.034 200.413,56.324 200.352,56.122 199.826 C 55.767 198.900,58.431 200.054,59.001 201.073 M105.698 199.827 C 106.119 200.248,106.294 200.876,106.132 201.386 C 105.802 202.428,106.626 203.516,107.746 203.516 C 108.936 203.516,108.762 204.331,107.504 204.647 C 106.487 204.902,103.953 205.023,102.313 204.895 C 101.873 204.860,101.576 204.509,101.613 204.066 C 101.752 202.412,101.506 201.758,100.747 201.758 C 99.913 201.758,98.901 200.969,98.901 200.319 C 98.901 199.694,101.707 200.148,102.330 200.873 C 102.819 201.442,102.861 201.387,102.613 200.494 C 102.454 199.920,102.493 199.549,102.700 199.670 C 102.907 199.791,103.473 199.731,103.956 199.536 C 104.440 199.342,104.870 199.169,104.914 199.152 C 104.957 199.135,105.310 199.438,105.698 199.827 M50.110 200.440 C 50.473 200.674,50.547 200.869,50.275 200.872 C 50.003 200.876,49.162 201.003,48.407 201.154 C 47.319 201.371,47.033 201.280,47.033 200.714 C 47.033 199.905,49.009 199.728,50.110 200.440 M46.392 200.908 C 46.796 201.563,46.327 201.919,45.486 201.596 C 45.097 201.447,44.903 201.126,45.053 200.882 C 45.409 200.306,46.027 200.318,46.392 200.908 M97.802 201.319 C 98.577 202.174,98.570 202.199,97.541 202.231 C 96.959 202.250,96.187 202.327,95.824 202.403 C 92.106 203.184,91.988 203.176,91.250 202.127 L 90.526 201.099 93.505 200.847 C 95.143 200.708,96.601 200.560,96.745 200.517 C 96.889 200.474,97.365 200.835,97.802 201.319 M89.586 202.308 C 89.681 202.796,89.463 203.077,88.989 203.077 C 88.377 203.077,88.341 203.194,88.791 203.736 C 89.181 204.205,90.211 204.396,92.362 204.396 C 95.675 204.396,96.437 205.018,93.590 205.400 C 91.484 205.682,91.581 205.613,91.207 207.104 C 90.978 208.017,91.090 208.318,91.721 208.481 C 92.279 208.625,92.166 208.705,91.355 208.740 C 90.710 208.768,89.857 208.916,89.461 209.068 C 88.882 209.290,88.767 209.100,88.876 208.100 C 89.001 206.945,88.874 206.832,87.082 206.518 C 84.715 206.102,84.453 205.871,85.488 205.114 C 86.409 204.440,86.109 202.953,85.128 203.329 C 84.788 203.460,84.163 203.221,83.739 202.797 C 83.006 202.064,83.008 202.013,83.792 201.728 C 85.530 201.097,89.428 201.487,89.586 202.308 M40.000 202.162 C 40.000 202.596,36.400 203.579,36.059 203.238 C 35.931 203.110,36.143 202.774,36.531 202.492 C 37.368 201.883,40.000 201.633,40.000 202.162 M82.857 202.584 C 82.857 202.952,82.294 203.234,81.423 203.302 C 79.860 203.425,79.088 202.773,80.054 202.145 C 80.932 201.573,82.857 201.874,82.857 202.584 M78.559 202.921 C 78.787 203.617,74.793 203.907,74.235 203.235 C 73.659 202.541,74.511 202.225,76.669 202.332 C 77.617 202.379,78.468 202.644,78.559 202.921 M71.429 203.475 C 71.429 204.127,71.128 204.210,67.206 204.646 C 64.776 204.916,63.189 203.958,64.610 203.080 C 65.577 202.483,71.429 202.822,71.429 203.475 M63.219 204.555 C 63.312 205.026,63.062 205.275,62.497 205.275 C 61.711 205.275,61.099 204.495,61.099 203.495 C 61.099 202.815,63.070 203.801,63.219 204.555 M115.824 203.920 C 115.824 204.615,112.293 205.092,110.493 204.640 C 108.849 204.228,109.274 203.584,111.319 203.389 C 114.477 203.089,115.824 203.247,115.824 203.920 M43.708 204.350 C 43.842 204.566,43.627 204.867,43.231 205.019 C 42.376 205.348,41.997 205.077,42.400 204.425 C 42.753 203.853,43.379 203.817,43.708 204.350 M59.212 204.505 C 59.102 204.808,58.803 205.010,58.550 204.956 C 58.296 204.902,57.134 205.147,55.967 205.501 C 54.801 205.855,53.797 206.146,53.736 206.149 C 52.892 206.186,54.004 204.751,55.055 204.448 C 57.228 203.820,59.452 203.851,59.212 204.505 M100.248 204.649 C 100.944 205.488,100.436 205.912,97.885 206.618 C 96.963 206.873,95.924 207.191,95.577 207.324 C 95.229 207.457,94.945 207.371,94.945 207.131 C 94.945 206.892,95.390 206.574,95.934 206.425 C 96.744 206.203,96.806 206.079,96.276 205.738 C 95.552 205.273,95.596 205.210,97.143 204.512 C 98.697 203.810,99.584 203.849,100.248 204.649 M34.725 205.667 C 34.725 206.072,33.685 206.593,32.877 206.593 C 32.600 206.593,32.636 206.333,32.967 205.934 C 33.564 205.215,34.725 205.038,34.725 205.667 M52.224 206.044 C 52.143 206.467,51.785 206.813,51.429 206.813 C 51.073 206.813,50.715 206.467,50.633 206.044 C 50.529 205.504,50.767 205.275,51.429 205.275 C 52.091 205.275,52.328 205.504,52.224 206.044 M82.963 205.836 C 82.865 206.132,82.405 206.414,81.942 206.463 C 81.478 206.513,79.516 206.731,77.582 206.950 C 75.648 207.168,73.892 207.248,73.680 207.129 C 72.916 206.698,74.997 205.943,77.582 205.712 C 82.622 205.262,83.150 205.274,82.963 205.836 M49.593 206.442 C 49.515 206.842,49.129 207.217,48.736 207.274 C 48.342 207.332,47.601 207.512,47.087 207.675 C 45.777 208.091,45.829 206.696,47.143 206.168 C 48.756 205.519,49.751 205.631,49.593 206.442 M125.158 207.831 C 125.308 208.238,125.890 209.309,126.451 210.211 C 127.879 212.503,127.766 212.747,125.275 212.747 C 123.370 212.747,123.077 212.630,123.077 211.868 C 123.077 211.385,122.879 210.989,122.637 210.989 C 121.850 210.989,122.175 210.176,123.077 209.890 C 124.370 209.480,124.147 208.791,122.721 208.791 C 122.042 208.791,121.103 208.501,120.633 208.146 C 119.486 207.278,119.121 207.314,119.121 208.297 C 119.121 209.562,114.425 209.921,113.204 208.749 C 111.772 207.375,112.873 206.934,117.988 206.832 C 120.546 206.781,122.763 206.615,122.915 206.462 C 123.326 206.051,124.843 206.978,125.158 207.831 M72.734 207.011 C 73.090 207.587,71.727 208.132,69.928 208.132 C 68.084 208.132,67.600 207.168,69.315 206.911 C 71.607 206.566,72.474 206.592,72.734 207.011 M66.571 207.938 C 66.833 208.197,66.298 208.352,65.143 208.352 C 63.446 208.352,62.903 208.013,63.554 207.362 C 63.902 207.014,66.052 207.425,66.571 207.938 M61.978 208.291 C 61.978 208.978,61.384 209.275,58.791 209.883 C 57.038 210.294,55.258 210.724,54.835 210.839 C 54.251 210.998,54.066 210.782,54.066 209.946 C 54.066 208.585,54.617 208.221,57.143 207.914 C 61.646 207.366,61.978 207.391,61.978 208.291 M111.188 208.312 C 111.836 209.525,111.760 210.125,110.994 209.831 C 110.634 209.693,109.337 209.821,108.112 210.115 C 105.823 210.664,104.674 210.129,104.629 208.494 C 104.596 207.271,110.543 207.107,111.188 208.312 M102.967 209.585 C 104.109 210.566,103.956 210.738,101.416 211.329 C 97.711 212.190,97.196 212.025,96.501 209.758 C 96.206 208.796,96.288 208.752,98.197 208.851 C 99.300 208.908,100.325 208.833,100.474 208.683 C 100.828 208.330,101.998 208.753,102.967 209.585 M51.772 209.602 C 51.898 209.981,51.687 210.139,51.186 210.042 C 50.755 209.958,50.314 209.624,50.206 209.299 C 50.080 208.920,50.291 208.762,50.792 208.859 C 51.223 208.943,51.664 209.277,51.772 209.602 M85.033 209.195 C 85.376 209.750,82.448 210.529,80.440 210.416 C 79.593 210.368,78.901 210.134,78.901 209.894 C 78.901 209.101,84.575 208.454,85.033 209.195 M135.307 209.895 C 135.591 210.519,135.824 211.093,135.824 211.169 C 135.824 211.245,134.786 211.434,133.516 211.589 C 132.247 211.744,130.779 211.988,130.253 212.132 C 129.502 212.337,129.149 212.107,128.605 211.053 C 127.685 209.274,127.670 209.304,129.560 209.147 C 134.880 208.707,134.758 208.691,135.307 209.895 M48.352 210.330 C 46.911 211.153,46.118 211.153,46.434 210.330 C 46.587 209.932,47.235 209.677,48.069 209.686 L 49.451 209.701 48.352 210.330 M77.707 210.477 C 77.838 210.875,77.578 211.016,76.897 210.916 C 76.345 210.835,75.806 210.505,75.700 210.183 C 75.568 209.784,75.828 209.643,76.510 209.743 C 77.062 209.824,77.601 210.154,77.707 210.477 M73.758 210.637 C 74.616 211.495,74.377 211.702,72.747 211.512 C 71.813 211.403,71.209 211.092,71.209 210.721 C 71.209 209.969,73.030 209.909,73.758 210.637 M70.618 211.228 C 70.944 212.077,70.814 212.203,69.331 212.472 C 68.294 212.660,68.132 212.544,68.132 211.619 C 68.132 210.367,70.165 210.047,70.618 211.228 M305.186 213.062 C 306.469 215.898,306.328 216.343,303.814 217.394 C 301.924 218.183,301.665 217.959,302.333 216.112 C 303.036 214.167,303.023 214.125,301.742 214.266 C 300.532 214.399,299.049 212.863,299.729 212.183 C 300.075 211.837,303.144 210.615,303.783 210.569 C 303.930 210.558,304.561 211.680,305.186 213.062 M120.570 212.102 C 121.004 212.699,121.202 213.202,121.010 213.220 C 120.817 213.239,120.264 213.337,119.780 213.438 C 117.743 213.864,115.946 213.741,115.572 213.150 C 114.805 211.938,115.170 211.479,117.033 211.311 C 118.060 211.218,119.099 211.114,119.341 211.080 C 119.582 211.045,120.136 211.505,120.570 212.102 M37.802 211.795 C 37.802 212.367,37.280 212.748,36.855 212.485 C 36.400 212.204,36.792 211.429,37.389 211.429 C 37.616 211.429,37.802 211.593,37.802 211.795 M67.132 212.158 C 67.366 212.870,64.659 213.407,64.026 212.773 C 63.649 212.397,63.688 212.165,64.179 211.846 C 65.024 211.298,66.916 211.498,67.132 212.158 M95.749 212.350 C 96.461 213.490,96.431 213.519,94.167 213.881 C 92.220 214.192,91.463 213.558,92.027 212.088 C 92.424 211.053,95.054 211.238,95.749 212.350 M114.615 212.673 C 115.496 213.765,115.318 213.921,112.327 214.672 C 108.566 215.617,108.465 215.599,107.636 213.827 C 106.814 212.073,106.940 211.990,110.769 211.763 C 113.182 211.619,113.904 211.790,114.615 212.673 M62.094 212.131 C 62.642 212.678,61.841 213.626,60.832 213.626 C 59.609 213.626,59.385 212.475,60.549 212.171 C 61.761 211.855,61.816 211.853,62.094 212.131 M90.346 214.416 C 90.198 214.564,89.503 214.469,88.803 214.205 C 87.798 213.826,87.481 213.850,87.300 214.321 C 86.732 215.801,83.516 215.394,83.516 213.844 C 83.516 213.174,85.433 212.591,85.641 213.198 C 85.722 213.434,85.963 213.626,86.177 213.626 C 86.391 213.626,86.456 213.341,86.323 212.993 C 86.135 212.505,86.568 212.328,88.205 212.223 C 90.259 212.092,91.450 213.312,90.346 214.416 M59.341 213.502 C 59.341 213.993,58.960 214.118,57.852 213.988 C 56.851 213.871,56.427 213.981,56.558 214.322 C 56.665 214.601,56.359 214.933,55.877 215.058 C 55.343 215.198,54.905 215.034,54.752 214.637 C 54.448 213.844,54.857 213.080,55.405 213.419 C 55.624 213.554,56.344 213.382,57.005 213.036 C 58.362 212.325,59.341 212.520,59.341 213.502 M105.837 214.948 L 106.839 216.703 105.536 216.703 C 104.819 216.703,103.732 216.894,103.120 217.126 C 102.279 217.446,101.844 217.385,101.334 216.875 C 100.477 216.019,100.471 215.385,101.319 215.385 C 101.681 215.385,101.978 215.088,101.978 214.725 C 101.978 214.363,101.632 214.063,101.209 214.059 C 100.551 214.053,100.535 213.991,101.099 213.626 C 102.767 212.549,104.789 213.113,105.837 214.948 M79.581 214.544 C 80.365 216.010,79.187 216.897,76.645 216.755 C 75.664 216.701,74.854 214.530,75.634 214.048 C 76.774 213.343,79.095 213.635,79.581 214.544 M81.931 214.620 C 82.595 215.674,81.799 216.196,81.063 215.190 C 80.720 214.721,80.440 214.161,80.440 213.945 C 80.440 213.357,81.412 213.797,81.931 214.620 M311.980 214.665 C 312.409 215.607,312.297 215.792,310.782 216.643 C 308.030 218.190,307.109 216.870,309.536 214.856 C 311.316 213.379,311.392 213.373,311.980 214.665 M72.967 214.960 C 72.392 215.344,72.406 215.459,73.077 215.854 C 74.401 216.634,73.923 217.143,71.868 217.143 C 69.818 217.143,69.503 216.857,70.440 215.848 C 70.879 215.374,70.879 215.318,70.440 215.566 C 70.137 215.736,69.890 215.681,69.890 215.443 C 69.890 214.959,70.877 214.630,72.527 214.563 C 73.401 214.528,73.491 214.609,72.967 214.960 M241.368 215.957 C 241.737 217.350,240.427 218.185,238.268 217.933 C 236.664 217.746,236.343 215.119,237.887 214.810 C 240.084 214.370,241.029 214.682,241.368 215.957 M42.733 215.488 C 41.991 215.845,41.596 215.838,41.216 215.458 C 40.825 215.067,41.064 214.952,42.220 214.975 C 43.644 215.003,43.675 215.034,42.733 215.488 M53.187 215.303 C 53.187 215.876,50.205 217.139,48.280 217.381 C 45.837 217.688,46.256 216.821,49.026 215.837 C 51.445 214.979,53.187 214.755,53.187 215.303 M66.712 216.181 C 66.816 216.492,66.440 216.703,65.787 216.703 C 65.182 216.703,64.347 216.834,63.932 216.993 C 63.407 217.195,63.238 217.098,63.379 216.676 C 63.748 215.570,66.379 215.180,66.712 216.181 M122.355 216.606 C 122.955 216.936,121.651 217.568,120.356 217.576 C 118.800 217.585,118.353 216.797,119.642 216.318 C 120.572 215.972,121.351 216.055,122.355 216.606 M40.000 216.473 C 40.000 216.583,39.600 216.886,39.112 217.148 C 38.230 217.620,37.172 217.367,37.540 216.772 C 37.752 216.428,40.000 216.155,40.000 216.473 M61.868 216.813 C 61.767 217.115,61.421 217.363,61.099 217.363 C 60.777 217.363,60.430 217.115,60.330 216.813 C 60.221 216.486,60.532 216.264,61.099 216.264 C 61.665 216.264,61.977 216.486,61.868 216.813 M117.031 217.363 C 116.900 217.878,112.527 218.071,112.527 217.561 C 112.527 216.997,113.516 216.746,115.385 216.837 C 116.352 216.885,117.093 217.121,117.031 217.363 M150.324 218.026 C 149.576 218.488,144.072 218.546,144.354 218.089 C 144.477 217.889,145.230 217.691,146.025 217.647 C 146.821 217.604,148.165 217.411,149.011 217.219 C 150.561 216.867,151.382 217.371,150.324 218.026 M195.139 217.332 C 195.710 218.020,192.892 218.697,190.728 218.391 C 189.049 218.154,189.500 217.394,191.406 217.248 C 192.361 217.174,193.235 217.022,193.348 216.909 C 193.750 216.506,194.626 216.713,195.139 217.332 M307.479 217.604 C 307.812 218.653,307.381 219.266,305.560 220.336 C 303.460 221.568,303.147 219.863,305.140 218.051 C 306.874 216.474,307.107 216.429,307.479 217.604 M301.455 218.356 C 301.545 218.963,301.243 219.465,300.576 219.816 C 300.017 220.111,299.462 220.500,299.341 220.681 C 298.734 221.592,297.358 221.283,297.233 220.208 C 296.997 218.184,301.160 216.359,301.455 218.356 M314.045 219.298 C 315.213 221.605,315.152 221.797,312.967 222.700 C 311.846 223.163,309.583 220.034,310.293 219.003 C 310.537 218.648,312.597 217.143,312.838 217.143 C 312.901 217.143,313.444 218.113,314.045 219.298 M187.979 218.226 C 187.533 218.564,186.890 218.734,186.551 218.604 C 185.432 218.175,185.909 217.582,187.363 217.596 C 188.682 217.609,188.729 217.658,187.979 218.226 M241.643 221.099 C 241.789 221.099,242.267 220.775,242.704 220.379 C 243.618 219.552,244.835 220.189,244.835 221.492 C 244.835 222.295,242.478 223.737,240.981 223.849 C 240.454 223.889,239.925 224.177,239.805 224.488 C 239.576 225.086,238.240 225.289,238.245 224.725 C 238.246 224.544,238.641 223.802,239.121 223.077 C 239.601 222.352,239.996 221.353,239.997 220.857 C 240.002 219.368,241.069 218.606,241.238 219.972 C 241.314 220.592,241.497 221.099,241.643 221.099 M296.674 222.795 C 297.769 225.133,297.696 226.046,296.359 226.762 C 295.626 227.154,295.372 226.887,294.259 224.559 L 292.992 221.909 294.066 221.099 C 295.395 220.096,295.417 220.111,296.674 222.795 M302.979 221.077 C 303.149 221.729,302.718 222.250,301.185 223.247 C 297.991 225.325,297.182 223.790,300.286 221.541 C 302.434 219.985,302.682 219.943,302.979 221.077 M309.623 221.987 C 310.517 224.221,310.555 224.037,309.033 224.824 C 307.138 225.804,306.517 225.659,305.977 224.110 C 305.311 222.199,305.317 222.178,306.923 221.149 C 308.807 219.943,308.805 219.942,309.623 221.987 M286.154 223.785 C 286.154 224.483,285.970 225.055,285.746 225.055 C 285.521 225.055,285.076 225.310,284.757 225.621 C 283.943 226.413,280.864 228.266,280.682 228.072 C 278.558 225.813,279.137 224.019,282.527 222.357 C 283.555 221.854,284.402 221.216,284.410 220.941 C 284.443 219.820,286.154 222.611,286.154 223.785 M251.591 222.527 C 251.995 224.035,252.000 224.027,249.896 225.203 L 247.923 226.305 246.985 224.987 C 245.910 223.479,246.103 223.148,248.582 222.240 C 250.980 221.362,251.287 221.392,251.591 222.527 M293.134 226.422 L 294.022 229.051 292.615 229.908 C 290.750 231.046,290.782 231.058,289.739 228.840 C 288.156 225.470,288.159 224.949,289.771 223.899 C 291.577 222.724,291.989 223.033,293.134 226.422 M304.867 225.323 C 305.113 226.552,302.253 228.573,300.271 228.571 C 299.030 228.570,300.089 226.158,301.913 224.832 C 304.123 223.226,304.458 223.281,304.867 225.323 M54.945 224.615 C 54.945 224.857,54.648 225.055,54.286 225.055 C 53.923 225.055,53.626 224.857,53.626 224.615 C 53.626 224.374,53.923 224.176,54.286 224.176 C 54.648 224.176,54.945 224.374,54.945 224.615 M245.275 224.579 C 245.275 224.801,245.386 225.272,245.521 225.626 C 245.783 226.308,243.328 227.460,242.587 227.002 C 241.846 226.544,242.202 225.187,243.187 224.712 C 244.433 224.111,245.275 224.058,245.275 224.579 M42.637 225.081 C 42.637 225.376,40.747 225.744,36.703 226.238 C 33.917 226.578,25.349 226.812,25.620 226.541 C 25.777 226.384,26.456 226.196,27.128 226.124 C 27.801 226.051,30.429 225.767,32.967 225.493 C 35.505 225.218,37.978 224.951,38.462 224.899 C 40.485 224.679,42.637 224.773,42.637 225.081 M45.714 224.785 C 45.714 224.879,45.131 225.041,44.419 225.145 C 43.706 225.250,43.223 225.173,43.346 224.975 C 43.564 224.623,45.714 224.450,45.714 224.785 M49.670 225.055 C 48.818 225.606,48.352 225.606,48.352 225.055 C 48.352 224.813,48.797 224.618,49.341 224.622 C 50.140 224.628,50.203 224.710,49.670 225.055 M198.871 225.098 C 198.988 225.215,198.484 225.356,197.752 225.412 C 196.948 225.473,196.529 225.338,196.694 225.070 C 196.958 224.644,198.435 224.662,198.871 225.098 M241.491 226.190 C 241.920 227.306,241.821 227.523,240.639 228.061 C 239.115 228.756,239.074 228.735,239.316 227.398 C 239.630 225.671,241.000 224.910,241.491 226.190 M252.966 226.370 C 253.397 227.728,249.620 230.015,248.297 229.197 C 246.910 228.339,248.060 226.442,250.291 225.909 C 252.429 225.398,252.671 225.440,252.966 226.370 M278.331 227.285 C 279.383 229.404,279.303 229.872,277.802 230.396 C 277.077 230.648,276.484 231.034,276.484 231.252 C 276.484 232.343,275.588 231.415,274.898 229.608 L 274.118 227.567 275.411 226.533 C 276.994 225.266,277.377 225.365,278.331 227.285 M214.725 226.382 C 215.973 226.614,212.255 227.065,210.761 226.863 L 209.011 226.627 210.769 226.384 C 212.372 226.162,213.540 226.162,214.725 226.382 M287.652 228.133 C 289.116 231.291,288.949 232.025,286.434 233.502 C 283.974 234.947,283.739 234.819,282.351 231.270 C 281.710 229.629,281.692 229.302,282.229 228.999 C 282.575 228.804,283.648 228.048,284.615 227.319 C 285.582 226.590,286.432 225.981,286.504 225.964 C 286.575 225.948,287.092 226.923,287.652 228.133 M133.414 227.241 C 133.261 227.489,131.948 227.692,130.498 227.692 C 127.068 227.692,127.464 227.053,130.985 226.904 C 132.753 226.829,133.596 226.946,133.414 227.241 M149.707 227.143 C 149.272 227.578,146.389 227.584,146.657 227.149 C 146.772 226.964,147.579 226.813,148.451 226.813 C 149.323 226.813,149.888 226.962,149.707 227.143 M299.013 228.376 C 299.212 229.414,298.924 229.649,295.238 231.453 C 289.917 234.058,289.029 233.952,292.870 231.171 C 294.191 230.213,294.751 230.016,295.000 230.418 C 295.242 230.810,295.421 230.720,295.635 230.098 C 295.923 229.260,297.953 227.259,298.520 227.255 C 298.673 227.254,298.895 227.758,299.013 228.376 M237.516 229.245 C 237.380 229.600,237.092 229.890,236.876 229.890 C 236.425 229.890,236.346 228.856,236.765 228.437 C 237.234 227.968,237.781 228.556,237.516 229.245 M246.598 229.020 C 247.107 229.970,246.480 230.454,244.066 230.972 C 242.762 231.252,242.637 231.185,242.637 230.212 C 242.637 228.455,245.788 227.507,246.598 229.020 M56.462 229.410 C 55.577 230.256,29.890 231.050,29.890 230.232 C 29.890 230.044,32.214 229.866,35.055 229.836 C 37.896 229.807,42.297 229.642,44.835 229.470 C 52.000 228.986,56.932 228.961,56.462 229.410 M254.259 230.220 C 254.418 230.885,254.647 231.766,254.770 232.178 C 254.956 232.807,251.495 235.165,250.386 235.165 C 250.013 235.165,248.776 230.994,249.111 230.870 C 249.298 230.801,250.242 230.371,251.209 229.914 C 253.594 228.786,253.925 228.819,254.259 230.220 M266.233 229.709 C 266.406 230.257,265.895 230.889,264.773 231.513 C 263.754 232.079,263.297 231.875,263.297 230.854 C 263.297 229.576,265.874 228.571,266.233 229.709 M273.120 230.220 C 274.448 232.831,274.417 233.254,272.821 234.240 C 270.873 235.444,270.934 235.463,269.900 233.324 C 268.762 230.969,268.754 231.020,270.440 229.941 C 272.274 228.766,272.386 228.777,273.120 230.220 M241.758 230.539 C 241.758 232.473,238.144 234.043,237.885 232.222 C 237.780 231.487,238.146 231.047,239.423 230.374 C 241.593 229.229,241.758 229.240,241.758 230.539 M29.173 230.423 C 29.055 230.613,28.465 230.769,27.860 230.769 C 27.251 230.769,26.880 230.576,27.029 230.336 C 27.176 230.098,27.767 229.942,28.342 229.990 C 28.917 230.038,29.291 230.232,29.173 230.423 M108.117 230.052 C 107.740 230.428,102.428 230.702,102.214 230.356 C 102.101 230.173,103.431 229.981,105.169 229.930 C 106.908 229.879,108.234 229.934,108.117 230.052 M195.604 230.358 C 195.604 230.513,193.874 230.780,191.758 230.953 C 185.757 231.441,182.352 231.567,182.629 231.290 C 182.953 230.966,183.140 230.942,188.125 230.576 C 190.418 230.408,192.356 230.208,192.432 230.132 C 192.694 229.870,195.604 230.077,195.604 230.358 M214.945 230.769 C 214.945 231.247,214.723 231.297,212.088 231.416 C 209.991 231.511,209.180 231.186,210.359 230.724 C 211.621 230.230,214.945 230.263,214.945 230.769 M219.254 230.563 C 218.805 231.012,217.143 231.155,217.143 230.744 C 217.143 230.516,217.670 230.330,218.315 230.330 C 218.960 230.330,219.382 230.435,219.254 230.563 M281.168 233.655 C 281.784 235.000,282.218 236.152,282.133 236.214 C 278.754 238.704,278.861 238.711,277.557 235.934 L 276.472 233.626 277.890 232.418 C 279.786 230.801,279.878 230.835,281.168 233.655 M248.017 233.297 C 248.381 236.268,245.083 238.854,244.478 236.071 C 243.798 232.943,243.785 232.997,245.330 232.327 C 247.512 231.379,247.796 231.482,248.017 233.297 M236.484 233.136 C 236.484 233.769,236.048 234.470,235.385 234.905 C 234.121 235.733,233.987 235.259,234.956 233.385 C 235.766 231.819,236.484 231.703,236.484 233.136 M268.331 234.396 C 269.430 236.864,269.229 237.624,267.183 238.719 C 266.515 239.076,264.075 233.719,264.680 233.224 C 265.118 232.866,266.639 232.113,266.948 232.101 C 267.143 232.094,267.765 233.126,268.331 234.396 M289.231 233.621 C 289.231 233.949,285.796 236.044,285.258 236.044 C 284.438 236.044,285.267 235.191,286.952 234.301 C 288.606 233.427,289.231 233.241,289.231 233.621 M242.817 234.943 C 243.201 236.471,243.097 236.634,241.355 237.233 C 239.559 237.850,239.644 237.892,239.310 236.219 C 239.084 235.092,239.215 234.855,240.294 234.430 C 242.186 233.685,242.519 233.753,242.817 234.943 M112.527 234.761 C 112.527 234.905,111.856 235.048,111.034 235.079 C 110.213 235.109,109.372 235.165,109.166 235.202 C 108.466 235.327,108.079 235.166,108.285 234.835 C 108.526 234.447,112.527 234.377,112.527 234.761 M257.803 242.857 C 258.070 245.483,258.065 245.498,256.590 246.434 L 255.109 247.373 253.045 242.478 C 250.509 236.464,250.498 236.764,253.291 235.497 L 255.594 234.452 256.564 237.336 C 257.098 238.922,257.656 241.407,257.803 242.857 M263.741 237.598 C 264.796 240.767,264.659 241.259,262.391 242.432 L 261.201 243.047 260.051 240.396 C 258.573 236.987,258.589 236.837,260.549 235.701 C 262.770 234.414,262.660 234.349,263.741 237.598 M276.056 237.840 C 276.629 239.574,276.609 239.682,275.579 240.474 C 273.987 241.698,273.558 241.524,272.711 239.307 L 271.943 237.296 273.181 236.232 C 274.662 234.959,275.206 235.264,276.056 237.840 M237.535 236.739 C 238.058 238.101,237.780 238.549,236.103 239.051 C 233.855 239.725,233.846 239.723,233.846 238.515 C 233.846 236.714,236.952 235.219,237.535 236.739 M305.746 238.053 C 305.280 238.394,304.786 238.559,304.648 238.421 C 304.510 238.283,304.778 237.891,305.243 237.551 C 305.709 237.211,306.203 237.045,306.341 237.183 C 306.479 237.321,306.211 237.713,305.746 238.053 M250.530 241.798 C 250.553 242.099,248.519 243.077,247.869 243.077 C 247.401 243.077,246.154 240.432,246.154 239.440 C 246.154 239.116,246.698 238.653,247.363 238.411 C 248.475 238.005,250.396 240.061,250.530 241.798 M302.851 239.574 C 301.304 240.752,296.298 243.258,296.029 242.988 C 295.905 242.865,297.536 241.760,299.655 240.534 C 303.376 238.380,305.096 237.863,302.851 239.574 M242.198 239.780 C 240.900 240.522,240.440 240.588,240.440 240.032 C 240.440 239.624,241.403 239.254,242.637 239.187 C 243.000 239.168,242.802 239.435,242.198 239.780 M271.269 241.233 L 272.050 243.074 270.772 243.735 C 269.052 244.624,268.796 244.579,268.202 243.276 C 267.461 241.648,267.569 240.903,268.681 239.976 C 269.993 238.883,270.343 239.053,271.269 241.233 M245.241 244.711 C 245.259 245.006,244.732 245.531,244.068 245.879 L 242.860 246.512 242.125 244.245 L 241.390 241.978 242.563 240.994 L 243.736 240.011 244.471 242.093 C 244.876 243.239,245.222 244.417,245.241 244.711 M238.587 240.944 C 238.449 241.356,234.115 243.956,233.566 243.956 C 232.484 243.956,233.746 242.001,235.275 241.307 C 237.381 240.351,238.837 240.191,238.587 240.944 M232.527 243.448 C 232.527 244.378,231.047 245.881,230.359 245.650 C 229.805 245.464,231.422 242.637,232.081 242.637 C 232.327 242.637,232.527 243.002,232.527 243.448 M266.304 244.337 C 266.584 245.271,266.813 246.143,266.813 246.273 C 266.813 246.477,263.046 247.912,262.512 247.912 C 262.408 247.912,262.435 247.621,262.572 247.265 C 262.708 246.910,262.544 246.343,262.206 246.006 C 261.682 245.481,261.859 245.196,263.434 244.032 C 265.756 242.317,265.697 242.311,266.304 244.337 M240.398 245.510 C 240.676 246.614,240.787 247.705,240.645 247.935 C 240.234 248.600,239.560 248.417,239.560 247.641 C 239.560 247.131,239.282 246.994,238.571 247.155 C 234.664 248.042,234.864 248.050,234.589 246.999 C 234.233 245.637,234.468 245.373,237.076 244.210 C 239.794 242.999,239.762 242.986,240.398 245.510 M251.790 246.093 C 252.312 247.389,252.598 248.674,252.426 248.950 C 251.810 249.936,251.835 251.096,252.468 250.853 C 254.033 250.252,254.039 252.597,252.474 253.343 C 250.473 254.298,250.398 254.275,250.691 252.811 C 250.833 252.098,250.697 251.196,250.375 250.723 C 249.738 249.787,248.833 247.362,248.514 245.735 C 248.362 244.963,248.590 244.439,249.316 243.890 C 250.509 242.989,250.558 243.033,251.790 246.093 M294.505 243.725 C 294.505 244.071,291.803 245.356,291.569 245.122 C 291.449 245.002,291.912 244.600,292.599 244.228 C 293.891 243.528,294.505 243.365,294.505 243.725 M233.000 248.860 C 232.861 249.019,231.993 249.353,231.072 249.601 C 229.170 250.115,228.768 248.730,230.531 247.737 C 231.004 247.471,231.697 246.970,232.069 246.624 C 232.762 245.983,233.650 248.117,233.000 248.860 M287.718 246.827 C 286.744 247.564,286.154 247.656,286.154 247.070 C 286.154 246.615,286.928 246.233,287.912 246.203 C 288.403 246.187,288.354 246.346,287.718 246.827 M246.788 249.267 C 247.201 250.738,247.433 252.216,247.304 252.551 C 247.176 252.887,247.359 253.450,247.711 253.802 C 248.579 254.670,248.516 255.266,247.501 255.809 C 246.273 256.466,246.076 256.382,246.235 255.275 C 246.313 254.731,246.061 253.935,245.674 253.506 C 244.341 252.029,243.649 247.905,244.616 247.198 C 245.869 246.282,245.980 246.388,246.788 249.267 M257.814 248.810 C 258.169 249.384,257.241 250.549,256.430 250.549 C 256.077 250.549,255.824 250.091,255.824 249.451 C 255.824 248.306,257.224 247.856,257.814 248.810 M237.802 249.644 C 237.802 249.872,237.595 250.186,237.342 250.343 C 236.696 250.741,235.491 250.210,235.822 249.673 C 236.168 249.114,237.802 249.090,237.802 249.644 M218.022 250.715 C 218.022 251.048,217.725 251.567,217.363 251.868 C 216.672 252.441,216.329 251.070,216.996 250.403 C 217.487 249.912,218.022 250.075,218.022 250.715 M242.328 252.238 C 242.709 254.167,242.526 255.385,241.856 255.385 C 241.375 255.385,239.961 250.967,240.279 250.454 C 240.879 249.482,241.970 250.432,242.328 252.238 M233.846 251.417 C 233.846 252.348,231.496 253.856,230.756 253.399 C 230.273 253.100,230.178 251.287,230.623 250.842 C 231.361 250.104,233.846 250.547,233.846 251.417 M239.177 254.036 C 239.852 256.075,239.669 257.143,238.644 257.143 C 237.949 257.143,236.841 252.630,237.442 252.249 C 238.349 251.674,238.418 251.746,239.177 254.036 M276.007 252.042 C 275.673 252.359,272.527 253.585,272.527 253.398 C 272.527 253.088,274.907 251.904,275.568 251.886 C 275.910 251.876,276.108 251.946,276.007 252.042 M228.611 253.511 C 229.001 254.535,228.926 254.830,228.112 255.489 C 226.298 256.958,226.116 256.464,227.301 253.297 C 227.784 252.005,228.055 252.049,228.611 253.511 M235.165 255.359 C 235.165 256.070,235.363 256.774,235.604 256.923 C 236.448 257.445,236.034 258.444,234.684 259.142 C 233.937 259.529,233.277 259.781,233.217 259.703 C 233.047 259.477,231.648 255.828,231.648 255.610 C 231.648 255.309,233.992 254.103,234.615 254.084 C 234.934 254.073,235.165 254.608,235.165 255.359 M243.648 258.119 C 242.889 258.958,242.873 258.957,242.456 258.023 C 241.947 256.882,242.915 256.022,243.843 256.791 C 244.310 257.179,244.274 257.428,243.648 258.119 M230.837 261.207 C 230.310 261.734,227.988 261.247,228.337 260.683 C 228.469 260.469,228.386 259.789,228.152 259.173 C 227.216 256.711,229.006 256.292,230.223 258.687 C 230.932 260.082,231.134 260.910,230.837 261.207 M240.737 259.165 C 241.048 259.976,239.985 260.820,239.396 260.231 C 238.916 259.751,239.356 258.462,240.000 258.462 C 240.257 258.462,240.589 258.778,240.737 259.165 M226.686 261.312 C 227.251 263.564,227.137 264.176,226.153 264.176 C 225.327 264.176,224.195 260.190,224.817 259.468 C 225.593 258.568,226.131 259.099,226.686 261.312 M236.923 261.303 C 236.923 262.168,235.207 263.075,234.641 262.509 C 234.362 262.230,234.566 261.832,235.226 261.370 C 236.482 260.490,236.923 260.473,236.923 261.303 M223.736 263.920 C 223.736 264.263,223.846 264.830,223.981 265.181 C 224.138 265.590,223.869 265.912,223.231 266.079 C 221.934 266.418,221.898 266.349,222.522 264.696 C 223.067 263.251,223.736 262.824,223.736 263.920 M231.980 263.846 C 231.881 264.148,231.320 264.451,230.735 264.518 C 229.704 264.637,229.697 264.620,230.524 263.969 C 231.557 263.155,232.226 263.098,231.980 263.846 M227.634 266.410 C 226.808 266.920,226.749 266.686,227.367 265.357 C 227.876 264.261,227.922 264.245,228.060 265.119 C 228.142 265.634,227.950 266.214,227.634 266.410 M224.615 268.061 C 224.615 268.381,222.738 269.451,222.177 269.451 C 221.546 269.451,222.133 268.481,222.967 268.146 C 224.253 267.629,224.615 267.610,224.615 268.061 " stroke="none" fill="#f73c59" fill-rule="evenodd"></path></g></svg>

