<svg id="svg" xmlns="http://www.w3.org/2000/svg" xmlns:xlink="http://www.w3.org/1999/xlink" width="400" height="400" viewBox="0, 0, 400,400"><g id="svgg"><path id="path0" d="M200.142 82.363 C 199.459 83.179,198.491 83.972,197.989 84.126 C 197.488 84.280,196.519 84.989,195.835 85.703 L 194.593 86.999 195.368 89.029 C 196.050 90.814,196.269 91.028,197.183 90.798 C 198.047 90.582,198.273 90.742,198.526 91.752 C 198.693 92.420,199.266 93.956,199.799 95.165 C 200.332 96.374,201.007 98.549,201.298 100.000 C 201.589 101.451,202.319 104.675,202.921 107.165 C 204.159 112.286,204.316 114.101,203.584 114.834 C 203.305 115.112,203.077 116.527,203.077 117.978 C 203.077 121.055,202.485 120.887,201.358 117.490 C 200.772 115.724,200.482 115.385,199.560 115.385 C 197.261 115.385,198.495 123.496,203.171 139.121 C 204.448 143.387,205.018 144.615,205.721 144.615 C 206.608 144.615,206.527 143.701,205.041 136.923 C 203.012 127.676,202.587 125.149,202.992 124.744 C 203.746 123.990,205.081 127.243,206.362 132.957 C 207.623 138.581,207.779 139.035,208.325 138.698 C 208.518 138.578,208.513 137.636,208.314 136.603 C 207.767 133.777,207.817 133.244,208.540 134.197 C 208.869 134.632,209.372 136.314,209.657 137.934 C 209.942 139.554,210.555 142.857,211.019 145.275 C 211.484 147.692,211.968 150.560,212.097 151.648 C 212.225 152.736,212.506 154.220,212.723 154.945 C 212.939 155.670,213.246 157.253,213.405 158.462 C 213.564 159.670,214.102 162.303,214.600 164.313 C 215.479 167.855,215.325 169.349,214.155 168.627 C 213.366 168.139,211.868 164.418,211.868 162.945 C 211.868 161.562,210.580 159.560,209.689 159.560 C 209.477 159.560,208.998 159.444,208.626 159.301 C 208.047 159.079,207.960 159.557,208.025 162.591 C 208.068 164.632,207.900 166.341,207.630 166.612 C 207.190 167.051,189.238 167.204,155.824 167.052 C 146.249 167.009,139.871 167.222,136.136 167.710 C 135.219 167.830,130.966 167.736,126.685 167.501 C 114.984 166.860,97.351 166.351,93.626 166.547 C 89.888 166.745,88.831 166.752,76.813 166.660 C 68.637 166.597,68.132 166.545,68.132 165.768 C 68.132 164.154,66.012 163.534,58.187 162.860 C 54.374 162.531,53.626 163.035,53.626 165.935 C 53.626 167.817,53.605 167.845,52.414 167.503 C 50.124 166.846,48.352 168.258,48.352 170.740 C 48.352 171.361,47.956 172.264,47.473 172.747 C 45.938 174.282,46.326 175.946,48.681 177.935 L 50.769 179.697 50.769 185.186 C 50.769 189.648,50.634 190.829,50.049 191.492 C 48.097 193.702,47.994 200.440,49.911 200.440 C 50.475 200.440,51.097 200.687,51.293 200.989 C 52.140 202.298,52.194 232.587,51.351 234.191 C 50.937 234.981,50.946 235.534,51.394 236.773 C 52.079 238.667,51.839 238.895,48.735 239.307 C 46.113 239.654,45.833 240.865,47.912 242.857 C 48.637 243.552,49.231 244.465,49.231 244.886 C 49.231 247.004,57.288 247.160,60.427 245.104 C 61.565 244.358,61.476 244.358,70.110 245.054 C 72.044 245.210,78.275 245.048,83.956 244.695 C 98.218 243.807,113.375 244.061,106.615 245.075 C 105.402 245.257,104.644 245.581,104.741 245.877 C 105.062 246.849,113.057 247.071,119.493 246.286 C 121.661 246.022,121.633 246.651,119.381 248.758 C 118.035 250.017,117.757 252.907,118.937 253.360 C 120.328 253.893,121.032 253.573,124.986 250.610 C 130.383 246.566,131.176 246.203,134.540 246.238 C 149.244 246.390,154.286 246.157,154.286 245.328 C 154.286 244.572,153.743 244.475,147.912 244.183 C 141.160 243.846,140.399 243.558,143.407 242.480 C 146.895 241.229,170.885 240.599,172.014 241.728 C 173.413 243.128,172.179 243.460,162.922 244.175 C 159.590 244.432,159.331 246.154,162.624 246.154 C 165.086 246.154,164.912 246.409,160.086 249.867 C 157.742 251.546,153.497 254.591,150.652 256.633 C 145.401 260.403,144.358 261.708,145.499 263.083 C 146.431 264.205,147.664 263.811,150.026 261.636 C 156.556 255.625,164.159 249.488,168.076 247.068 C 169.797 246.004,174.505 246.394,174.505 247.601 C 174.505 248.781,172.308 251.237,168.278 254.559 C 160.740 260.775,159.133 262.429,158.833 264.286 C 158.306 267.542,163.312 264.570,176.044 254.068 C 177.495 252.871,180.192 251.097,182.039 250.125 C 183.886 249.153,186.428 247.664,187.688 246.816 C 190.109 245.187,191.209 244.891,191.209 245.868 C 191.209 246.419,187.086 249.832,181.641 253.788 C 178.536 256.044,177.423 258.408,179.153 259.072 C 180.119 259.443,181.058 258.859,185.672 255.015 C 191.477 250.178,205.004 240.000,205.626 240.000 C 206.732 240.000,206.015 241.171,203.742 243.077 C 194.755 250.611,193.075 252.428,194.349 253.235 C 195.297 253.836,195.418 253.770,198.706 250.879 C 204.535 245.755,209.007 242.226,210.220 241.794 C 211.889 241.201,211.732 241.737,209.780 243.291 C 205.007 247.091,199.121 252.454,199.121 253.002 C 199.121 253.651,200.695 253.889,200.952 253.278 C 201.643 251.636,213.418 242.146,214.330 242.496 C 215.668 243.009,213.733 245.714,212.029 245.714 C 211.699 245.714,211.422 245.962,211.415 246.264 C 211.408 246.566,210.567 247.449,209.547 248.225 C 203.427 252.885,200.958 256.186,202.747 257.313 C 203.659 257.887,203.502 257.987,208.571 253.626 C 215.246 247.885,214.952 247.760,213.409 255.684 C 212.758 259.025,212.146 262.352,212.047 263.077 C 211.263 268.860,209.666 274.849,208.658 275.782 C 207.395 276.953,207.420 276.875,206.155 283.736 C 205.620 286.637,204.708 290.396,204.128 292.088 C 202.638 296.432,202.689 296.762,204.835 296.635 C 205.802 296.578,206.599 296.323,206.607 296.068 C 206.614 295.813,206.830 295.966,207.087 296.408 C 207.434 297.005,207.319 298.188,206.638 301.023 C 206.134 303.120,205.631 305.330,205.521 305.934 C 205.165 307.878,204.890 309.006,204.688 309.342 C 204.580 309.523,204.371 311.451,204.224 313.626 C 203.908 318.286,203.214 323.145,202.569 325.209 C 201.496 328.645,205.413 328.879,208.423 325.558 C 210.644 323.107,212.361 323.004,210.780 325.416 C 208.311 329.185,211.176 330.785,214.610 327.555 C 215.882 326.358,217.714 324.847,218.681 324.196 C 219.648 323.545,220.637 322.674,220.879 322.260 C 221.487 321.219,230.147 313.088,232.649 311.209 C 234.764 309.621,235.175 308.838,234.110 308.429 C 233.460 308.180,231.741 309.306,229.080 311.726 C 228.196 312.530,226.484 313.985,225.275 314.960 C 217.744 321.034,217.951 319.906,225.604 313.160 C 232.189 307.356,235.139 305.664,237.335 306.430 C 239.491 307.181,242.302 304.749,242.173 302.244 C 242.122 301.251,242.106 300.203,242.139 299.914 C 242.171 299.625,244.225 297.658,246.703 295.542 C 249.181 293.426,253.088 289.992,255.385 287.910 C 262.759 281.227,267.110 277.775,267.818 278.047 C 268.183 278.187,268.613 278.090,268.773 277.832 C 269.197 277.146,270.865 277.259,271.994 278.049 C 273.095 278.821,274.230 278.257,276.484 275.821 C 277.088 275.167,279.576 272.988,282.013 270.979 C 287.733 266.264,289.257 263.572,286.999 262.177 C 285.143 261.030,292.609 253.930,294.569 254.979 C 295.568 255.514,298.112 255.496,299.564 254.944 C 301.127 254.350,300.831 253.124,299.010 252.653 C 296.599 252.028,297.139 251.318,303.516 246.724 C 306.735 244.406,325.725 230.369,328.389 228.338 C 329.014 227.862,331.981 225.631,334.982 223.381 C 337.984 221.130,341.725 218.285,343.297 217.057 C 344.868 215.830,348.158 213.479,350.608 211.833 C 357.600 207.136,358.252 203.575,352.534 201.321 C 349.322 200.055,346.109 197.356,333.482 185.313 C 327.630 179.732,320.274 172.808,317.135 169.928 C 309.620 163.031,306.112 159.747,301.268 155.074 C 297.285 151.232,296.264 150.583,296.264 151.894 C 296.264 152.872,299.700 156.401,309.011 164.984 C 323.438 178.283,327.486 182.088,333.579 188.081 C 339.486 193.891,339.961 194.574,335.534 190.896 C 334.287 189.859,332.970 189.011,332.607 189.011 C 331.961 189.011,326.936 184.985,318.706 177.873 C 316.423 175.900,312.961 172.961,311.014 171.341 C 309.066 169.722,307.176 168.106,306.813 167.752 C 306.451 167.397,303.780 164.745,300.879 161.858 C 297.978 158.972,294.093 155.228,292.246 153.538 C 290.399 151.849,287.378 148.775,285.533 146.707 C 283.688 144.639,281.503 142.431,280.677 141.802 C 279.385 140.816,279.207 140.458,279.394 139.230 C 279.842 136.292,274.700 132.528,273.445 134.874 C 273.207 135.318,273.129 136.129,273.272 136.675 C 273.669 138.194,272.425 137.206,268.791 133.117 L 265.714 129.654 264.746 130.761 C 263.493 132.195,263.315 132.168,261.515 130.277 C 260.682 129.402,258.813 127.697,257.363 126.488 C 253.650 123.394,250.795 120.676,249.753 119.246 C 248.917 118.098,248.773 118.056,247.435 118.561 C 246.022 119.094,245.979 119.071,242.661 115.901 C 240.820 114.141,238.380 112.060,237.239 111.275 C 236.098 110.490,235.165 109.565,235.165 109.220 C 235.165 108.874,234.169 107.805,232.952 106.843 C 230.443 104.859,223.581 98.654,218.027 93.347 C 212.428 87.996,204.841 81.758,203.931 81.758 C 203.490 81.758,203.007 81.560,202.857 81.319 C 202.352 80.502,201.388 80.872,200.142 82.363 M207.892 89.602 C 207.164 89.847,206.153 88.759,206.170 87.748 C 206.184 86.895,206.280 86.928,207.264 88.132 C 207.857 88.857,208.140 89.519,207.892 89.602 M219.929 103.733 C 219.622 104.039,217.580 101.616,217.594 100.964 C 217.601 100.676,218.179 101.131,218.879 101.975 C 219.579 102.820,220.052 103.611,219.929 103.733 M214.286 105.055 C 214.286 106.008,212.571 105.877,212.384 104.909 C 212.264 104.285,212.460 104.137,213.258 104.250 C 213.823 104.330,214.286 104.692,214.286 105.055 M224.335 107.033 C 224.486 107.427,224.338 107.692,223.968 107.692 C 223.245 107.692,222.755 107.062,223.162 106.655 C 223.625 106.192,224.066 106.334,224.335 107.033 M219.341 109.875 C 219.341 110.447,217.851 111.209,216.732 111.209 C 215.435 111.209,215.611 110.481,217.033 109.961 C 218.621 109.381,219.341 109.354,219.341 109.875 M227.691 110.987 C 228.258 111.591,228.638 112.165,228.537 112.263 C 227.989 112.792,226.007 112.628,225.077 111.977 C 223.934 111.177,223.937 111.155,225.275 110.408 C 226.480 109.735,226.524 109.746,227.691 110.987 M222.418 114.259 C 222.418 115.239,219.630 116.156,219.053 115.366 C 218.250 114.269,218.284 114.158,219.668 113.318 C 220.835 112.610,222.418 113.151,222.418 114.259 M231.324 116.467 C 231.724 117.038,232.359 117.299,233.200 117.237 C 235.033 117.101,235.245 118.497,233.452 118.891 C 232.205 119.165,229.512 117.168,229.463 115.934 C 229.437 115.261,230.740 115.634,231.324 116.467 M226.586 119.552 C 227.525 120.515,228.208 121.378,228.103 121.471 C 226.268 123.087,224.463 122.906,222.915 120.952 C 220.395 117.770,223.638 116.534,226.586 119.552 M239.278 122.824 C 240.264 124.328,240.264 124.328,237.965 125.345 L 235.930 126.245 234.411 124.726 L 232.892 123.207 235.017 122.135 C 237.353 120.958,238.139 121.085,239.278 122.824 M218.389 122.535 C 219.432 124.000,219.737 125.341,219.080 125.572 C 218.448 125.795,216.096 122.385,216.468 121.784 C 216.933 121.031,217.467 121.240,218.389 122.535 M217.143 126.618 C 217.143 126.846,216.866 127.033,216.527 127.033 C 216.012 127.033,214.911 124.903,214.959 124.000 C 214.981 123.572,217.143 126.163,217.143 126.618 M230.784 125.957 C 231.314 126.816,231.677 127.573,231.589 127.640 C 231.137 127.980,228.526 128.886,228.415 128.740 C 228.344 128.648,227.841 127.926,227.296 127.136 L 226.304 125.701 227.768 125.066 C 229.747 124.206,229.691 124.189,230.784 125.957 M243.743 127.046 C 244.671 128.841,244.470 129.050,239.608 131.327 C 233.241 134.308,230.769 134.396,230.769 131.641 C 230.769 131.068,236.334 128.395,239.885 127.261 C 241.151 126.857,242.300 126.344,242.438 126.120 C 242.828 125.490,243.003 125.615,243.743 127.046 M223.764 129.040 L 224.824 130.169 223.731 130.994 C 221.430 132.731,218.549 133.806,217.819 133.200 C 216.550 132.148,217.066 131.105,219.657 129.484 C 222.654 127.610,222.441 127.633,223.764 129.040 M251.037 131.051 C 251.949 132.491,251.434 133.240,248.681 134.472 C 244.579 136.308,243.774 136.413,241.742 135.377 C 239.271 134.116,238.082 135.266,239.844 137.214 C 240.527 137.968,240.478 138.051,238.979 138.677 C 236.940 139.529,236.972 139.535,235.199 138.019 L 233.695 136.733 238.715 134.373 C 241.477 133.076,244.379 131.759,245.165 131.448 C 245.951 131.137,246.593 130.683,246.593 130.439 C 246.593 129.786,250.584 130.336,251.037 131.051 M227.661 134.691 L 228.661 135.757 226.836 136.909 C 223.262 139.165,222.881 139.237,221.707 137.872 C 220.321 136.261,220.333 136.226,222.749 134.888 C 225.413 133.411,226.420 133.371,227.661 134.691 M256.927 136.707 L 258.118 137.950 256.202 139.161 C 252.832 141.291,248.704 142.988,248.337 142.394 C 248.158 142.103,247.787 142.003,247.515 142.172 C 247.242 142.340,247.119 142.641,247.242 142.839 C 247.514 143.280,245.991 144.300,244.085 144.953 C 242.749 145.410,239.994 143.468,240.002 142.073 C 240.006 141.320,244.067 140.078,244.875 140.582 C 245.335 140.869,245.778 140.911,245.921 140.681 C 246.057 140.461,245.969 140.157,245.725 140.007 C 245.134 139.642,254.082 135.118,255.011 135.313 C 255.410 135.396,256.272 136.023,256.927 136.707 M219.984 140.617 C 218.507 142.042,216.993 140.631,217.785 138.567 C 218.016 137.966,218.237 138.037,219.233 139.033 C 219.977 139.777,220.252 140.358,219.984 140.617 M232.613 139.643 C 234.260 141.220,234.215 141.338,231.496 142.624 C 228.655 143.969,228.675 143.969,227.050 142.641 C 225.583 141.442,225.623 141.362,228.482 139.733 C 231.113 138.235,231.143 138.234,232.613 139.643 M261.319 142.363 L 261.319 144.713 258.048 146.418 C 255.013 148.000,254.705 148.076,253.778 147.468 C 252.150 146.401,250.840 146.599,251.157 147.864 C 251.377 148.740,251.174 149.032,249.930 149.622 C 247.886 150.592,247.382 150.523,246.003 149.082 L 244.808 147.835 247.788 146.476 C 254.521 143.405,256.530 142.523,257.433 142.241 C 257.956 142.077,258.710 141.445,259.109 140.835 C 260.343 138.953,261.319 139.628,261.319 142.363 M224.350 144.387 C 225.052 145.460,225.035 145.496,223.260 146.617 C 222.267 147.243,221.414 147.692,221.364 147.614 C 219.708 145.051,219.722 145.165,220.946 144.202 C 222.468 143.004,223.480 143.059,224.350 144.387 M237.802 147.250 C 237.198 147.712,235.951 148.431,235.031 148.848 L 233.359 149.606 231.977 148.223 C 231.216 147.463,230.683 146.760,230.792 146.660 C 230.900 146.560,232.176 145.876,233.626 145.140 L 236.264 143.801 237.582 145.105 L 238.901 146.409 237.802 147.250 M269.879 147.879 C 269.869 148.361,264.116 151.701,260.807 153.146 L 258.977 153.945 257.633 152.467 C 255.726 150.369,255.856 150.105,259.770 148.137 C 263.757 146.133,264.006 146.087,265.186 147.143 C 266.012 147.882,266.081 147.865,266.953 146.706 L 267.860 145.499 268.875 146.453 C 269.433 146.977,269.885 147.619,269.879 147.879 M283.081 149.929 C 287.699 153.077,289.684 155.018,288.678 155.404 C 287.406 155.893,277.363 148.268,277.363 146.814 C 277.363 146.183,278.467 146.784,283.081 149.929 M218.366 148.142 C 218.833 148.890,218.808 149.074,218.207 149.305 C 217.397 149.616,216.671 148.728,217.011 147.842 C 217.327 147.019,217.719 147.106,218.366 148.142 M229.909 149.690 C 231.161 150.981,231.307 151.318,230.764 151.661 C 229.810 152.264,229.662 152.205,228.993 150.955 C 228.659 150.332,228.032 149.633,227.600 149.401 C 226.584 148.857,226.588 148.132,227.606 148.132 C 228.042 148.132,229.078 148.833,229.909 149.690 M226.703 151.189 C 227.873 153.237,227.874 153.243,227.053 153.558 C 226.297 153.848,223.529 150.581,223.951 149.898 C 224.534 148.955,225.754 149.527,226.703 151.189 M243.211 150.998 L 244.443 152.483 242.112 153.820 C 239.219 155.479,239.023 155.478,237.621 153.812 C 236.142 152.054,236.137 152.069,238.573 150.672 C 241.224 149.152,241.705 149.186,243.211 150.998 M276.234 153.780 C 278.184 155.677,279.987 157.309,280.239 157.406 C 280.491 157.503,280.985 158.352,281.338 159.293 C 282.158 161.483,283.183 162.178,284.436 161.396 C 285.278 160.870,285.595 161.041,288.093 163.377 C 289.597 164.783,291.853 166.786,293.106 167.827 C 294.359 168.867,295.374 169.856,295.361 170.024 C 295.314 170.624,277.289 181.625,272.413 184.029 L 270.321 185.061 268.549 183.889 C 267.575 183.244,266.934 182.569,267.125 182.388 C 267.470 182.061,277.075 176.716,284.587 172.672 C 288.232 170.710,289.207 169.963,289.224 169.121 C 289.245 168.083,282.603 171.236,276.123 175.340 C 275.321 175.848,274.456 176.264,274.202 176.264 C 273.948 176.264,272.033 177.240,269.947 178.433 C 265.245 181.121,265.106 181.148,263.371 179.689 L 261.955 178.499 265.373 176.471 C 273.130 171.869,274.222 171.202,277.709 168.934 C 281.005 166.791,281.852 165.714,280.242 165.714 C 278.930 165.714,270.614 170.415,266.593 173.429 C 265.143 174.517,255.814 180.145,254.066 180.987 C 253.462 181.278,251.582 182.410,249.890 183.502 C 248.198 184.594,244.440 186.915,241.538 188.659 C 238.637 190.404,234.587 192.882,232.537 194.166 C 230.487 195.450,228.551 196.401,228.235 196.280 C 227.918 196.158,227.544 196.358,227.404 196.723 C 227.120 197.464,223.554 199.842,215.412 204.721 C 212.405 206.523,208.136 209.215,205.925 210.702 C 203.715 212.190,199.648 214.854,196.887 216.622 C 194.127 218.391,189.639 221.283,186.914 223.049 C 181.674 226.446,180.478 226.670,183.104 223.764 C 185.085 221.572,187.490 220.048,188.412 220.402 C 188.922 220.598,189.036 220.479,188.836 219.958 C 188.507 219.100,191.018 216.659,193.361 215.560 C 194.232 215.151,196.033 213.894,197.363 212.765 C 200.614 210.006,202.177 208.978,203.666 208.617 C 204.480 208.420,204.834 208.104,204.683 207.709 C 204.368 206.890,208.672 203.956,210.188 203.956 C 211.920 203.956,212.747 203.522,212.747 202.611 C 212.747 201.712,215.172 199.902,219.439 197.616 C 220.957 196.804,224.374 194.801,227.033 193.166 C 229.692 191.532,233.057 189.483,234.511 188.613 C 235.964 187.744,237.645 186.683,238.247 186.255 C 240.685 184.521,244.412 182.132,248.633 179.598 C 251.084 178.127,254.980 175.768,257.290 174.356 C 260.841 172.185,261.699 171.834,262.836 172.083 C 264.848 172.525,263.961 170.612,260.551 167.156 L 257.853 164.421 259.401 163.775 C 260.252 163.419,261.205 162.820,261.517 162.443 C 262.417 161.360,263.232 161.619,265.587 163.736 C 269.055 166.854,270.393 166.240,267.253 162.971 C 264.962 160.588,264.902 160.722,269.231 158.606 C 272.881 156.822,273.985 155.604,271.955 155.604 C 271.398 155.604,269.309 156.394,267.312 157.360 L 263.682 159.116 262.390 157.702 C 260.616 155.758,260.490 155.911,266.264 153.000 C 272.715 149.746,272.033 149.693,276.234 153.780 M255.662 152.973 L 257.576 154.738 255.163 155.921 L 252.750 157.105 250.991 155.386 C 248.835 153.281,248.832 153.199,250.879 152.118 C 253.162 150.912,253.490 150.971,255.662 152.973 M221.997 154.525 C 223.232 155.840,222.859 156.875,220.898 157.573 C 218.616 158.386,216.689 155.244,218.791 154.137 C 220.508 153.232,220.817 153.270,221.997 154.525 M235.132 155.351 L 236.591 156.856 233.811 158.259 L 231.032 159.663 230.023 158.403 C 228.535 156.543,229.981 154.553,231.626 156.197 C 231.949 156.520,232.088 156.395,232.088 155.780 C 232.088 154.945,232.838 153.846,233.408 153.846 C 233.554 153.846,234.330 154.523,235.132 155.351 M248.636 155.854 C 249.688 156.716,250.549 157.582,250.549 157.777 C 250.549 158.258,246.438 160.000,245.303 160.000 C 244.804 160.000,244.396 160.198,244.396 160.440 C 244.396 161.308,243.717 160.839,242.638 159.225 C 241.200 157.073,241.188 157.112,243.736 155.618 C 246.506 153.995,246.359 153.988,248.636 155.854 M260.357 158.156 C 261.878 159.743,261.863 159.817,259.798 160.870 C 257.518 162.033,256.878 161.992,255.583 160.595 C 254.167 159.066,254.209 158.859,256.154 157.832 C 258.370 156.662,258.971 156.709,260.357 158.156 M241.338 161.120 C 242.181 162.016,242.174 162.027,239.720 163.514 L 237.256 165.007 235.222 163.932 C 232.618 162.556,232.662 162.115,235.594 160.266 C 238.227 158.606,239.097 158.736,241.338 161.120 M227.021 160.866 C 227.959 161.845,228.117 162.227,227.652 162.392 C 227.312 162.512,226.495 162.808,225.838 163.048 C 223.728 163.818,221.020 161.036,222.967 160.097 C 224.629 159.296,225.713 159.501,227.021 160.866 M253.538 161.887 L 254.940 163.334 252.486 164.744 C 249.494 166.462,249.259 166.471,247.775 164.921 C 246.236 163.315,246.240 163.300,248.681 161.767 C 251.329 160.105,251.822 160.117,253.538 161.887 M220.119 163.759 C 221.888 164.999,222.182 166.100,221.060 167.294 C 219.606 168.842,218.902 168.650,218.895 166.703 C 218.892 165.797,218.770 164.610,218.624 164.066 C 218.313 162.906,218.768 162.813,220.119 163.759 M233.141 165.015 L 234.854 166.481 232.826 167.670 L 230.798 168.858 229.245 167.673 C 227.304 166.193,227.311 165.977,229.341 164.648 C 231.392 163.304,231.110 163.277,233.141 165.015 M245.834 166.186 C 247.427 167.499,247.907 168.352,247.052 168.352 C 246.821 168.352,245.623 168.947,244.390 169.674 L 242.147 170.996 240.422 169.564 C 238.286 167.790,238.254 167.967,241.004 166.311 C 243.898 164.569,243.873 164.569,245.834 166.186 M257.385 166.044 C 257.571 166.467,257.700 166.932,257.674 167.078 C 257.647 167.223,258.309 168.004,259.144 168.814 L 260.662 170.285 258.684 171.516 C 256.063 173.147,255.945 173.123,253.244 170.388 L 250.914 168.028 253.259 166.661 C 255.942 165.097,256.908 164.953,257.385 166.044 M226.102 169.861 C 227.591 171.814,227.561 172.046,225.659 173.221 C 224.103 174.183,224.031 174.188,222.619 173.428 C 220.458 172.264,219.324 173.308,221.099 174.827 C 222.332 175.883,222.243 176.075,219.890 177.420 C 217.591 178.734,206.848 185.683,201.923 189.043 C 198.834 191.149,198.780 191.167,198.009 190.315 C 197.578 189.839,196.954 189.451,196.621 189.451 C 195.650 189.451,195.433 190.730,196.250 191.633 C 197.320 192.815,193.854 195.531,192.610 194.486 C 192.202 194.143,191.478 193.582,191.001 193.239 C 190.185 192.653,190.378 192.461,194.218 190.044 C 202.295 184.959,210.336 179.632,210.645 179.161 C 211.257 178.231,210.154 178.426,207.619 179.698 C 206.209 180.406,204.647 181.111,204.148 181.265 C 203.648 181.420,201.333 182.780,199.001 184.289 C 188.857 190.855,187.471 191.392,185.704 189.439 C 184.950 188.606,184.950 188.537,185.714 187.692 C 186.530 186.791,186.055 186.429,185.190 187.293 C 184.843 187.641,184.461 187.641,183.812 187.293 C 182.581 186.635,181.837 186.691,182.118 187.422 C 182.487 188.386,171.837 196.042,167.473 197.949 C 167.110 198.107,165.852 198.930,164.677 199.778 C 162.338 201.466,161.850 201.589,160.748 200.769 C 159.954 200.179,163.589 197.302,175.275 189.268 C 180.122 185.935,181.178 184.638,179.553 184.014 C 178.202 183.496,175.163 185.473,176.264 186.154 C 177.004 186.611,176.755 187.255,175.680 187.663 C 170.822 189.511,162.390 194.184,157.391 197.801 C 154.428 199.944,150.551 202.109,150.831 201.462 C 151.137 200.757,156.729 195.737,158.681 194.415 C 165.544 189.766,179.150 181.099,182.958 178.950 C 185.958 177.256,186.405 176.703,184.774 176.703 C 182.592 176.703,168.164 185.605,158.681 192.802 C 153.596 196.662,150.838 198.457,150.506 198.125 C 150.386 198.005,151.264 197.191,152.457 196.316 C 155.059 194.405,156.534 192.484,155.200 192.740 C 153.160 193.133,149.399 195.782,141.538 202.361 C 134.548 208.211,125.974 214.550,126.748 213.294 C 127.098 212.726,133.136 207.875,137.802 204.413 C 139.253 203.337,141.824 201.153,143.516 199.560 C 145.209 197.968,147.582 195.992,148.791 195.170 C 150.000 194.348,152.967 192.180,155.385 190.351 C 157.802 188.522,162.589 185.148,166.023 182.854 C 172.276 178.674,173.279 177.759,172.101 177.307 C 171.072 176.912,159.170 184.578,151.876 190.334 C 150.180 191.674,147.110 193.884,145.055 195.246 C 143.000 196.608,140.231 198.732,138.901 199.966 C 134.078 204.441,132.513 205.104,131.452 203.120 C 131.023 202.318,131.571 201.797,137.247 197.606 C 152.558 186.302,160.052 180.033,156.154 181.791 C 155.731 181.982,154.707 182.172,153.880 182.214 C 152.810 182.267,152.279 182.548,152.044 183.183 C 151.640 184.275,143.881 189.543,142.944 189.361 C 141.427 189.067,142.078 188.049,144.985 186.169 C 146.674 185.076,148.123 184.029,148.204 183.841 C 148.285 183.653,149.672 182.564,151.287 181.421 C 155.094 178.724,157.514 176.425,157.156 175.845 C 156.701 175.109,155.733 175.308,154.576 176.374 C 149.282 181.251,142.418 184.386,142.418 181.926 C 142.418 181.187,145.602 179.212,147.983 178.476 C 150.145 177.807,150.374 177.637,149.641 177.246 C 148.673 176.730,136.613 174.298,132.308 173.751 C 130.427 173.512,135.988 173.350,148.571 173.275 C 159.088 173.213,169.275 172.980,171.209 172.757 C 181.500 171.571,190.616 172.249,191.128 174.239 C 191.644 176.245,193.650 176.356,195.768 174.496 C 198.062 172.482,200.748 173.613,199.609 176.114 C 198.939 177.582,198.899 177.566,201.868 177.021 C 204.083 176.614,204.396 176.431,204.396 175.539 C 204.396 174.527,204.456 174.495,207.674 173.837 C 208.148 173.740,210.013 173.866,211.821 174.118 C 216.590 174.781,218.263 174.208,221.108 170.938 C 223.705 167.952,224.513 167.777,226.102 169.861 M238.491 170.382 C 240.423 171.856,240.396 172.039,238.035 173.422 C 235.882 174.684,235.634 174.640,234.294 172.758 L 233.381 171.477 235.035 170.354 C 237.032 168.997,236.672 168.994,238.491 170.382 M251.656 171.297 C 254.909 173.705,254.923 173.623,250.909 175.645 L 247.817 177.202 247.145 176.243 C 246.776 175.716,245.907 174.780,245.215 174.163 C 243.551 172.681,243.581 172.584,246.258 170.781 C 249.042 168.906,248.333 168.838,251.656 171.297 M183.956 169.931 C 181.893 170.262,176.264 170.318,176.264 170.009 C 176.264 169.823,178.192 169.697,180.549 169.730 C 182.907 169.763,184.440 169.853,183.956 169.931 M67.912 172.640 L 69.670 172.962 67.473 173.184 C 64.508 173.484,60.220 173.203,60.220 172.708 C 60.220 172.230,65.425 172.184,67.912 172.640 M299.757 174.089 C 300.980 175.132,300.993 175.116,297.363 177.000 C 296.154 177.627,292.166 179.894,288.501 182.037 C 284.836 184.181,281.530 185.934,281.155 185.934 C 280.780 185.934,280.094 186.342,279.629 186.841 C 279.164 187.340,278.147 188.089,277.369 188.507 L 275.953 189.266 274.150 187.617 C 273.158 186.711,272.436 185.895,272.547 185.805 C 273.171 185.295,287.286 177.590,291.910 175.235 C 297.596 172.339,297.688 172.325,299.757 174.089 M230.990 175.055 C 232.059 175.841,232.940 176.809,232.950 177.207 C 232.974 178.207,235.640 180.458,237.545 181.086 C 239.613 181.769,239.536 182.144,237.033 183.572 C 235.885 184.228,234.648 185.011,234.286 185.312 C 233.576 185.902,226.500 189.997,222.198 192.307 C 220.747 193.086,217.879 194.765,215.824 196.037 C 213.769 197.310,211.593 198.395,210.989 198.450 C 210.385 198.504,208.979 199.419,207.866 200.483 C 203.370 204.782,200.896 205.832,199.590 203.998 C 198.365 202.278,198.389 202.218,201.008 200.314 C 205.878 196.773,207.381 195.964,208.238 196.423 C 208.906 196.780,209.147 196.628,209.624 195.550 C 210.634 193.268,221.239 186.496,221.964 187.670 C 222.336 188.272,223.736 187.800,223.736 187.074 C 223.736 186.785,223.519 186.332,223.254 186.067 C 222.630 185.443,227.163 182.304,229.853 181.498 L 231.753 180.928 230.788 180.147 C 230.257 179.717,229.949 179.162,230.102 178.913 C 230.256 178.665,230.024 178.456,229.586 178.450 C 228.251 178.430,225.577 175.902,226.374 175.411 C 226.736 175.188,227.429 174.701,227.912 174.330 C 229.031 173.470,228.743 173.402,230.990 175.055 M244.156 175.673 C 247.425 178.024,247.420 177.838,244.247 179.548 C 241.492 181.031,241.388 180.993,238.621 177.504 L 237.339 175.888 239.219 174.761 C 240.253 174.142,241.147 173.633,241.205 173.631 C 241.264 173.628,242.592 174.547,244.156 175.673 M110.330 175.204 C 110.330 175.826,108.255 177.114,107.253 177.115 C 106.259 177.115,106.323 177.011,107.912 176.032 C 109.677 174.946,110.330 174.722,110.330 175.204 M94.957 176.679 C 93.906 177.487,93.187 177.498,93.187 176.708 C 93.187 176.375,94.110 176.064,95.604 175.894 C 95.846 175.866,95.555 176.219,94.957 176.679 M100.415 176.663 C 100.797 177.281,98.085 179.341,96.889 179.341 C 95.474 179.341,95.545 178.984,97.253 177.522 C 98.702 176.281,99.967 175.938,100.415 176.663 M120.853 177.483 C 119.504 178.437,118.952 178.442,118.771 177.502 C 118.664 176.950,118.997 176.727,120.083 176.619 C 122.005 176.430,122.135 176.575,120.853 177.483 M114.012 177.055 C 114.487 177.824,111.213 179.891,110.482 179.284 C 109.876 178.782,109.942 178.601,111.053 177.712 C 112.322 176.696,113.613 176.410,114.012 177.055 M85.775 178.037 C 84.694 178.938,83.077 179.206,83.077 178.483 C 83.077 177.861,84.466 177.169,85.714 177.171 L 86.813 177.172 85.775 178.037 M304.587 178.652 L 306.050 180.162 304.718 180.960 C 298.406 184.743,282.966 193.652,280.659 194.842 C 279.692 195.341,278.600 196.004,278.232 196.314 C 277.864 196.624,275.491 198.137,272.958 199.675 C 270.424 201.214,267.363 203.076,266.154 203.814 C 264.945 204.551,262.473 206.001,260.659 207.035 C 258.846 208.069,256.374 209.557,255.165 210.341 C 253.956 211.125,250.737 213.109,248.011 214.751 L 243.055 217.735 241.485 216.986 C 239.508 216.043,239.602 215.919,245.458 211.718 C 256.961 203.466,271.730 194.286,273.503 194.286 C 273.817 194.286,274.304 193.918,274.584 193.469 C 274.865 193.020,276.050 192.102,277.217 191.429 C 278.385 190.756,280.626 189.371,282.198 188.352 C 283.769 187.332,286.538 185.734,288.352 184.802 C 290.165 183.870,292.637 182.490,293.846 181.735 C 296.145 180.301,302.322 177.143,302.830 177.143 C 302.992 177.143,303.783 177.822,304.587 178.652 M63.077 178.022 C 63.782 178.325,63.630 178.406,62.308 178.431 C 61.401 178.448,60.659 178.264,60.659 178.022 C 60.659 177.497,61.855 177.497,63.077 178.022 M70.330 178.036 C 70.330 178.562,69.090 179.126,68.728 178.765 C 68.343 178.380,68.996 177.582,69.696 177.582 C 70.045 177.582,70.330 177.786,70.330 178.036 M127.406 177.960 C 128.387 178.236,128.339 178.322,126.430 179.692 C 124.481 181.092,124.382 181.114,123.090 180.446 C 120.407 179.059,123.984 176.999,127.406 177.960 M225.209 178.832 L 226.406 180.082 224.741 181.182 C 221.582 183.271,220.405 183.742,219.781 183.164 C 219.327 182.744,219.267 182.796,219.486 183.418 C 219.775 184.238,219.489 184.460,211.648 189.516 C 202.769 195.241,202.580 195.344,201.824 194.870 C 200.586 194.094,200.696 192.666,202.061 191.790 C 202.741 191.354,204.125 190.374,205.136 189.612 C 209.112 186.618,217.067 181.976,217.764 182.244 C 218.279 182.442,218.399 182.327,218.205 181.822 C 218.012 181.319,218.704 180.644,220.728 179.360 C 224.056 177.248,223.728 177.287,225.209 178.832 M78.242 178.437 C 78.242 178.963,76.469 180.220,75.726 180.220 C 74.798 180.220,75.094 179.070,76.154 178.558 C 77.409 177.953,78.242 177.905,78.242 178.437 M105.596 178.770 C 106.353 179.177,101.323 182.738,100.549 182.341 C 99.068 181.582,99.879 180.149,102.583 178.747 C 103.697 178.169,104.489 178.175,105.596 178.770 M118.185 178.613 C 118.573 179.080,118.225 179.449,116.531 180.371 C 113.958 181.771,113.846 181.783,113.846 180.653 C 113.846 179.050,117.228 177.460,118.185 178.613 M135.385 178.510 C 135.385 178.805,134.798 178.929,133.898 178.824 C 132.478 178.658,132.438 178.692,133.013 179.569 C 133.918 180.950,123.984 187.607,122.218 186.802 L 121.102 186.294 122.199 185.449 C 122.803 184.985,124.040 184.001,124.949 183.263 C 126.085 182.341,126.875 182.008,127.474 182.198 C 128.100 182.397,128.281 182.306,128.116 181.876 C 127.853 181.190,129.278 179.765,131.209 178.785 C 132.774 177.990,135.385 177.818,135.385 178.510 M142.141 178.847 C 143.138 179.238,141.033 180.871,139.661 180.770 C 139.233 180.738,138.986 180.881,139.113 181.087 C 139.460 181.647,136.106 184.142,134.603 184.442 C 131.131 185.136,133.507 181.893,138.174 179.567 C 140.528 178.394,140.844 178.337,142.141 178.847 M90.686 179.231 C 91.010 179.798,88.560 181.499,87.956 181.126 C 87.548 180.874,87.719 180.529,88.594 179.841 C 89.860 178.845,90.379 178.694,90.686 179.231 M261.746 179.761 C 261.889 179.992,262.247 180.124,262.542 180.053 C 262.836 179.982,262.916 180.011,262.720 180.118 C 262.524 180.224,262.677 180.657,263.060 181.080 C 263.711 181.800,263.340 182.102,257.300 185.760 C 245.639 192.823,245.289 193.006,244.389 192.524 C 243.468 192.031,242.937 192.530,243.320 193.529 C 243.490 193.972,243.018 194.390,241.797 194.878 C 240.823 195.268,239.081 196.263,237.926 197.091 C 236.770 197.918,232.723 200.110,228.932 201.963 C 225.141 203.815,221.828 205.586,221.569 205.897 C 220.591 207.076,215.107 209.262,214.081 208.883 C 213.196 208.555,213.439 208.302,216.550 206.307 C 221.060 203.413,232.628 196.478,237.363 193.828 C 239.418 192.678,242.154 191.027,243.444 190.159 C 245.363 188.868,245.947 188.665,246.658 189.045 C 247.404 189.445,247.595 189.328,248.014 188.218 C 248.798 186.142,261.033 178.607,261.746 179.761 M109.584 180.769 C 110.244 181.259,110.032 181.559,107.648 183.516 C 102.149 188.030,102.178 189.469,107.692 185.714 C 111.907 182.845,113.739 182.462,110.769 185.072 C 108.231 187.303,109.904 187.645,112.830 185.493 C 114.565 184.217,114.656 184.199,115.569 184.944 C 116.641 185.818,116.183 186.221,105.982 193.407 C 99.879 197.705,96.529 200.187,93.933 202.332 C 92.062 203.878,91.700 204.021,90.746 203.586 C 89.703 203.111,89.259 202.198,90.071 202.198 C 90.292 202.198,91.627 201.242,93.038 200.074 C 94.450 198.906,96.791 197.122,98.242 196.110 C 104.532 191.723,107.230 189.496,107.244 188.681 C 107.256 187.918,106.777 188.008,105.495 189.011 C 104.074 190.122,103.454 190.104,100.648 188.865 L 98.326 187.841 99.822 186.718 C 100.645 186.100,102.209 185.150,103.297 184.606 C 104.385 184.062,105.933 182.853,106.738 181.918 C 108.354 180.041,108.515 179.976,109.584 180.769 M66.953 180.946 C 67.463 181.455,65.754 182.389,64.286 182.404 C 62.541 182.421,62.425 181.770,64.066 181.170 C 65.520 180.639,66.565 180.558,66.953 180.946 M82.198 181.048 C 82.198 181.579,80.189 182.857,79.356 182.857 C 78.336 182.857,78.548 181.737,79.670 181.196 C 80.895 180.605,82.198 180.529,82.198 181.048 M94.836 181.022 C 95.743 181.598,93.062 183.895,91.909 183.530 C 90.691 183.143,90.749 182.670,92.147 181.570 C 93.393 180.591,93.971 180.473,94.836 181.022 M122.180 181.079 C 123.776 182.088,119.239 185.062,117.512 184.138 C 116.121 183.394,116.374 182.876,118.711 181.680 C 120.895 180.564,121.265 180.500,122.180 181.079 M309.900 183.135 C 310.861 183.772,311.646 184.415,311.643 184.564 C 311.636 184.913,304.478 188.695,303.574 188.828 C 303.197 188.883,302.298 189.349,301.576 189.864 C 299.655 191.231,295.352 193.049,294.662 192.784 C 294.334 192.658,294.066 192.823,294.066 193.150 C 294.066 193.776,292.240 195.165,291.418 195.165 C 291.154 195.165,290.203 195.755,289.306 196.476 C 288.409 197.197,286.736 198.107,285.588 198.498 C 284.440 198.889,283.304 199.576,283.064 200.024 C 282.824 200.472,280.701 201.817,278.347 203.013 C 275.992 204.208,272.489 206.089,270.562 207.194 C 267.133 209.158,267.039 209.184,266.166 208.393 C 265.676 207.948,264.992 207.498,264.647 207.393 C 263.949 207.179,263.508 207.464,274.505 201.009 C 289.151 192.412,302.678 184.668,305.275 183.392 C 306.725 182.680,307.966 182.070,308.031 182.038 C 308.097 182.005,308.938 182.499,309.900 183.135 M99.104 183.010 C 100.585 184.093,97.637 186.269,95.447 185.709 L 94.286 185.412 96.007 183.915 C 97.962 182.215,98.001 182.204,99.104 183.010 M86.593 183.422 C 86.593 184.069,84.373 185.495,83.365 185.495 C 82.052 185.495,82.172 184.618,83.605 183.745 C 85.259 182.736,86.593 182.592,86.593 183.422 M70.223 183.846 C 70.123 184.148,69.475 184.462,68.782 184.543 C 67.676 184.672,67.593 184.605,68.101 183.993 C 68.788 183.166,70.485 183.048,70.223 183.846 M142.844 183.940 C 143.408 184.620,139.710 187.449,138.697 187.112 C 137.623 186.754,138.063 185.498,139.637 184.429 C 141.552 183.128,142.100 183.044,142.844 183.940 M266.968 184.987 C 267.913 185.974,268.046 186.335,267.600 186.699 C 266.684 187.446,254.894 194.725,254.601 194.725 C 254.454 194.725,253.575 195.250,252.649 195.892 C 250.865 197.128,250.440 197.076,248.132 195.330 C 247.020 194.489,247.876 193.726,254.066 190.038 C 256.363 188.670,259.223 186.940,260.422 186.193 C 265.095 183.282,265.299 183.245,266.968 184.987 M132.967 185.261 C 132.967 186.767,114.527 198.957,112.987 198.468 C 111.557 198.014,111.801 197.785,117.926 193.848 C 121.122 191.794,124.527 189.395,125.495 188.517 C 129.492 184.888,132.967 183.374,132.967 185.261 M75.354 185.006 C 75.819 185.758,72.563 187.829,71.848 187.236 C 70.877 186.430,71.069 185.952,72.637 185.271 C 74.319 184.540,75.024 184.471,75.354 185.006 M89.910 185.527 C 90.404 186.326,88.319 188.179,87.282 187.862 C 85.852 187.423,85.849 187.242,87.253 186.117 C 88.689 184.965,89.458 184.795,89.910 185.527 M65.691 187.215 C 65.983 187.687,62.940 189.680,62.539 189.279 C 62.177 188.917,64.178 186.813,64.886 186.813 C 65.192 186.813,65.554 186.994,65.691 187.215 M316.322 188.124 L 317.815 189.435 314.377 191.163 C 312.487 192.113,310.680 193.205,310.361 193.588 C 310.043 193.972,309.629 194.286,309.442 194.286 C 309.254 194.286,307.844 195.042,306.309 195.967 C 303.057 197.925,301.978 198.379,301.978 197.788 C 301.978 197.554,301.780 197.363,301.538 197.363 C 301.297 197.363,301.099 197.652,301.099 198.005 C 301.099 198.358,299.368 199.669,297.253 200.918 C 295.137 202.167,292.955 203.543,292.403 203.977 C 291.606 204.602,291.107 204.682,289.988 204.361 C 288.110 203.822,288.099 203.827,288.983 204.804 C 289.722 205.621,289.682 205.701,287.842 207.049 C 284.057 209.821,283.552 209.933,280.003 208.792 C 275.582 207.371,273.454 209.512,277.576 211.235 C 279.750 212.143,279.615 212.335,275.029 214.876 C 270.414 217.432,269.997 217.499,266.610 216.232 C 264.078 215.285,263.616 214.742,264.975 214.311 C 265.414 214.172,267.639 212.947,269.920 211.589 C 272.200 210.232,275.747 208.186,277.802 207.044 C 279.857 205.901,282.714 204.245,284.150 203.362 C 285.989 202.233,287.272 201.758,288.487 201.758 C 289.991 201.758,290.183 201.647,289.984 200.886 C 289.797 200.170,290.356 199.685,293.120 198.165 C 294.970 197.148,298.264 195.234,300.440 193.912 C 305.142 191.054,313.379 186.814,314.228 186.814 C 314.558 186.813,315.501 187.403,316.322 188.124 M93.790 187.638 C 94.664 187.981,94.228 188.415,91.625 189.791 C 90.020 190.639,89.288 189.694,90.528 188.375 C 91.604 187.229,92.332 187.065,93.790 187.638 M138.022 187.712 C 138.022 188.536,135.852 190.367,133.801 191.274 C 131.403 192.335,130.892 192.062,132.343 190.496 C 134.515 188.149,138.022 186.430,138.022 187.712 M79.991 188.022 C 79.968 188.825,76.616 190.725,76.112 190.222 C 75.405 189.515,75.477 188.984,76.374 188.304 C 77.190 187.685,80.006 187.465,79.991 188.022 M120.393 188.295 C 120.797 188.782,119.891 189.557,115.722 192.293 C 111.679 194.946,110.517 195.529,110.403 194.963 C 110.290 194.407,110.118 194.354,109.660 194.734 C 109.332 195.006,109.172 195.511,109.304 195.856 C 109.576 196.566,108.770 196.721,108.350 196.041 C 107.986 195.452,108.452 195.024,113.768 191.068 C 118.340 187.666,119.476 187.191,120.393 188.295 M272.457 189.061 L 274.319 190.430 269.577 193.539 C 265.020 196.526,247.621 207.033,247.231 207.033 C 247.127 207.033,245.653 207.923,243.956 209.011 C 242.259 210.099,240.805 210.989,240.725 210.989 C 240.575 210.989,230.592 216.996,227.473 218.964 C 225.651 220.112,222.857 221.233,222.857 220.814 C 222.857 220.214,224.736 218.022,225.251 218.022 C 225.567 218.022,226.098 217.688,226.430 217.280 C 226.957 216.632,226.937 216.574,226.270 216.825 C 221.460 218.627,240.405 205.062,247.912 201.328 C 249.000 200.787,251.623 199.166,253.742 197.727 C 256.499 195.853,257.841 195.188,258.467 195.386 C 259.126 195.596,259.441 195.398,259.751 194.582 C 260.132 193.580,268.906 187.778,270.133 187.716 C 270.388 187.703,271.434 188.308,272.457 189.061 M69.648 188.976 C 70.021 189.578,66.767 192.088,65.614 192.088 C 64.215 192.088,64.391 191.644,66.444 190.000 C 68.255 188.549,69.198 188.247,69.648 188.976 M141.860 190.114 C 142.047 191.736,136.470 195.488,135.362 194.485 C 134.198 193.432,134.265 193.327,137.582 191.007 C 140.592 188.901,141.692 188.671,141.860 190.114 M85.714 191.010 C 85.714 191.348,81.648 193.846,81.097 193.846 C 79.069 193.846,79.076 192.680,81.113 191.093 C 83.043 189.589,85.714 189.541,85.714 191.010 M98.221 189.961 C 99.730 190.648,99.680 190.778,97.094 192.881 L 94.847 194.709 93.887 193.289 L 92.928 191.868 94.486 190.689 C 96.273 189.337,96.679 189.258,98.221 189.961 M185.349 190.941 L 186.571 191.993 182.406 194.689 C 179.287 196.709,178.206 197.218,178.100 196.715 C 178.022 196.346,177.461 195.920,176.854 195.767 C 175.140 195.337,176.569 194.229,178.954 194.139 C 180.618 194.076,180.881 193.935,180.892 193.098 C 180.926 190.580,183.488 189.341,185.349 190.941 M74.022 191.781 C 74.738 192.305,74.744 192.404,74.097 192.941 C 73.499 193.437,73.254 193.405,72.509 192.730 C 71.835 192.121,71.759 191.849,72.187 191.578 C 72.943 191.098,73.113 191.117,74.022 191.781 M322.438 193.427 C 323.917 194.971,324.054 194.800,319.415 197.185 C 316.473 198.697,316.363 198.718,314.016 198.192 C 311.070 197.533,310.104 198.094,311.837 199.457 C 313.320 200.624,313.363 200.540,310.369 202.324 C 306.700 204.509,306.243 204.596,304.775 203.381 C 304.083 202.807,303.148 202.138,302.697 201.893 C 301.870 201.443,306.278 198.849,316.484 193.782 C 320.529 191.773,320.835 191.755,322.438 193.427 M71.648 194.354 C 71.648 194.896,71.052 194.809,70.127 194.133 C 69.653 193.786,69.453 193.318,69.647 193.005 C 69.992 192.447,71.648 193.564,71.648 194.354 M85.830 194.373 C 85.056 195.146,84.277 195.632,84.097 195.453 C 83.755 195.111,86.058 193.010,86.805 192.983 C 87.042 192.974,86.603 193.600,85.830 194.373 M129.862 193.361 C 129.995 193.577,129.831 193.859,129.496 193.987 C 129.162 194.116,126.370 196.032,123.293 198.245 C 119.686 200.838,117.546 202.117,117.272 201.843 C 116.791 201.362,117.592 200.688,124.150 196.054 C 128.448 193.018,129.379 192.579,129.862 193.361 M63.106 193.893 C 63.271 194.160,62.800 194.985,62.060 195.725 L 60.713 197.072 60.402 195.830 C 59.966 194.096,62.229 192.475,63.106 193.893 M78.865 194.553 C 79.935 194.963,79.725 195.337,77.543 196.904 C 74.700 198.946,73.256 197.918,75.814 195.673 C 77.471 194.217,77.737 194.120,78.865 194.553 M92.507 195.142 C 93.735 196.499,90.618 198.372,89.046 197.223 C 88.305 196.681,88.344 196.568,89.655 195.465 C 91.328 194.057,91.507 194.037,92.507 195.142 M189.174 195.789 L 190.321 197.292 188.968 198.430 C 188.224 199.056,186.730 200.088,185.647 200.722 L 183.679 201.875 182.179 200.421 L 180.678 198.967 183.491 197.080 C 185.039 196.042,186.431 194.989,186.585 194.739 C 187.102 193.903,188.019 194.274,189.174 195.789 M200.438 195.383 C 201.005 195.986,201.385 196.548,201.284 196.630 C 200.582 197.201,196.942 199.560,196.764 199.560 C 196.643 199.560,196.136 198.989,195.639 198.291 L 194.735 197.021 196.818 195.658 C 199.330 194.015,199.165 194.028,200.438 195.383 M133.409 195.607 C 133.848 196.092,134.126 196.551,134.027 196.627 C 131.647 198.445,127.755 200.834,127.464 200.654 C 127.251 200.522,126.857 200.827,126.588 201.330 C 125.591 203.191,121.264 205.517,120.567 204.565 C 119.857 203.596,120.284 203.194,127.625 197.912 C 132.634 194.309,132.340 194.426,133.409 195.607 M64.176 197.380 C 63.088 198.336,62.010 199.119,61.780 199.120 C 61.245 199.121,61.715 198.659,63.956 196.981 C 66.416 195.139,66.517 195.323,64.176 197.380 M247.584 196.837 L 249.135 198.070 245.776 200.214 C 228.564 211.201,225.683 212.711,223.470 211.911 C 222.078 211.408,220.659 211.632,220.659 212.355 C 220.659 212.571,220.195 212.747,219.629 212.747 C 219.062 212.747,218.247 213.135,217.818 213.609 C 217.389 214.083,215.825 215.094,214.343 215.854 C 212.861 216.615,210.956 217.885,210.110 218.677 C 208.047 220.607,206.746 221.262,206.326 220.583 C 205.911 219.910,208.196 217.984,211.852 215.925 C 213.414 215.045,215.720 213.488,216.976 212.465 C 219.251 210.612,223.237 208.352,224.229 208.352 C 225.783 208.352,233.248 204.029,241.758 198.201 C 246.166 195.182,245.653 195.302,247.584 196.837 M175.108 196.714 C 175.249 197.082,175.782 197.538,176.291 197.726 C 177.121 198.033,176.964 198.236,174.769 199.694 C 172.027 201.514,171.082 201.671,169.685 200.540 L 168.724 199.761 171.505 197.940 C 174.712 195.840,174.766 195.822,175.108 196.714 M107.692 197.272 C 107.692 197.464,106.011 198.844,103.956 200.338 C 99.443 203.620,98.956 202.890,103.333 199.403 C 106.195 197.122,107.692 196.391,107.692 197.272 M327.610 198.340 C 328.428 200.030,328.202 200.396,325.360 201.985 C 323.373 203.095,323.318 203.101,322.655 202.273 C 322.283 201.809,321.411 201.295,320.717 201.133 C 319.218 200.780,319.223 200.774,322.737 198.634 C 326.118 196.575,326.736 196.537,327.610 198.340 M66.554 199.303 C 65.555 200.497,64.689 201.151,64.302 201.002 C 63.836 200.823,64.103 200.321,65.332 199.062 C 67.627 196.712,68.565 196.897,66.554 199.303 M193.425 200.330 C 194.658 202.529,189.274 206.121,187.228 204.464 L 186.228 203.654 189.048 201.402 C 192.335 198.778,192.528 198.731,193.425 200.330 M111.680 200.017 C 112.452 200.430,112.273 200.674,109.783 202.587 C 107.529 204.320,106.894 204.615,106.264 204.223 C 105.139 203.524,105.261 203.296,107.802 201.346 C 110.343 199.396,110.451 199.359,111.680 200.017 M145.358 202.590 C 142.697 205.098,139.077 207.939,134.646 210.995 C 132.910 212.193,131.364 213.375,131.212 213.621 C 130.668 214.501,125.666 217.637,125.024 217.501 C 124.414 217.372,129.106 213.506,131.209 212.405 C 131.692 212.152,135.451 209.358,139.560 206.195 C 147.527 200.064,149.029 199.130,145.358 202.590 M180.655 201.534 C 181.915 202.875,181.203 203.981,178.242 205.282 C 177.275 205.707,173.121 208.568,169.011 211.640 C 160.999 217.629,160.000 218.294,160.000 217.636 C 160.000 217.407,161.236 216.386,162.747 215.367 C 169.365 210.904,172.575 207.510,169.150 208.597 C 167.619 209.083,164.323 210.926,163.787 211.595 C 163.517 211.933,161.418 213.593,159.121 215.286 C 156.824 216.978,154.065 219.065,152.989 219.922 C 151.180 221.364,150.330 221.604,150.330 220.671 C 150.330 219.914,162.790 210.549,163.798 210.549 C 164.075 210.549,164.416 210.250,164.557 209.884 C 164.873 209.061,172.734 205.215,173.338 205.588 C 173.588 205.742,173.667 205.575,173.522 205.197 C 173.179 204.303,173.484 203.923,176.044 202.060 C 178.656 200.160,179.296 200.087,180.655 201.534 M168.352 201.319 C 169.435 202.021,162.424 207.057,161.317 206.372 C 160.680 205.979,161.034 205.543,164.012 203.065 C 166.731 200.803,167.238 200.599,168.352 201.319 M333.919 203.245 C 333.919 205.651,332.114 207.162,330.679 205.955 C 330.245 205.590,329.505 205.015,329.035 204.677 C 328.223 204.093,328.272 204.015,329.994 203.136 C 330.992 202.627,331.932 202.010,332.084 201.765 C 332.868 200.496,333.919 201.345,333.919 203.245 M73.823 202.308 C 73.793 203.041,70.347 205.777,69.845 205.467 C 69.100 205.006,69.454 204.441,71.319 203.121 C 73.396 201.649,73.857 201.500,73.823 202.308 M115.375 203.062 C 115.829 203.796,109.940 207.709,108.902 207.363 C 108.336 207.174,113.790 202.637,114.583 202.637 C 114.875 202.637,115.231 202.828,115.375 203.062 M63.037 203.453 C 63.392 204.026,61.156 205.952,60.699 205.467 C 60.078 204.807,60.974 203.077,61.938 203.077 C 62.415 203.077,62.910 203.246,63.037 203.453 M158.901 204.028 C 158.901 205.265,149.690 211.868,147.964 211.868 C 146.651 211.868,147.260 211.225,151.440 208.197 C 153.728 206.540,156.045 204.710,156.591 204.131 C 157.687 202.966,158.901 202.912,158.901 204.028 M80.807 203.902 C 81.435 204.300,79.396 206.140,75.752 208.465 C 73.381 209.978,72.241 209.191,74.184 207.383 C 77.444 204.349,79.668 203.180,80.807 203.902 M300.050 204.574 C 299.825 205.469,299.919 205.596,300.664 205.401 C 301.531 205.174,302.857 205.915,302.857 206.626 C 302.857 207.226,297.555 210.145,297.042 209.828 C 296.759 209.653,296.695 209.740,296.883 210.046 C 297.086 210.373,296.495 210.858,295.241 211.396 C 294.165 211.857,293.151 212.449,292.990 212.711 C 292.565 213.398,290.716 213.296,289.178 212.500 C 287.642 211.706,287.804 211.353,290.594 209.420 C 292.087 208.385,292.514 208.269,293.216 208.707 C 294.975 209.806,296.490 208.812,294.953 207.567 L 293.909 206.722 295.856 205.612 C 300.270 203.095,300.431 203.055,300.050 204.574 M315.412 204.001 C 315.577 204.267,316.406 204.775,317.254 205.130 C 319.041 205.876,318.936 206.025,315.328 207.879 L 312.635 209.264 310.617 208.039 C 308.106 206.514,308.084 206.653,311.105 204.962 C 313.776 203.467,314.924 203.211,315.412 204.001 M130.496 204.736 C 130.933 205.552,123.509 211.747,122.697 211.245 C 122.502 211.125,121.478 211.909,120.421 212.986 C 118.397 215.049,117.598 215.316,116.297 214.364 C 115.180 213.548,120.473 209.231,122.590 209.231 C 123.643 209.231,123.956 209.038,123.956 208.389 C 123.956 207.278,128.095 204.006,129.545 203.969 C 129.839 203.962,130.267 204.307,130.496 204.736 M197.919 205.484 L 199.134 206.949 196.882 208.335 C 195.643 209.097,194.587 209.660,194.535 209.586 C 194.483 209.511,194.010 208.827,193.484 208.064 L 192.528 206.678 194.176 205.332 C 196.217 203.664,196.415 203.672,197.919 205.484 M89.213 205.255 C 89.965 205.730,88.705 207.473,87.610 207.473 C 86.603 207.473,86.369 206.087,87.265 205.431 C 88.222 204.731,88.365 204.718,89.213 205.255 M95.983 205.495 C 95.716 206.192,94.945 206.409,94.945 205.788 C 94.945 205.323,95.426 204.835,95.884 204.835 C 96.078 204.835,96.122 205.132,95.983 205.495 M120.088 205.431 C 120.760 205.942,120.607 206.172,118.560 207.725 C 114.395 210.885,114.762 210.723,114.331 209.588 C 113.568 207.584,118.364 204.121,120.088 205.431 M143.297 207.127 C 139.750 210.440,135.258 214.086,135.019 213.847 C 134.904 213.732,135.381 213.191,136.077 212.644 C 136.774 212.096,139.128 210.127,141.309 208.268 C 145.868 204.382,146.823 203.833,143.297 207.127 M103.736 206.572 C 103.736 207.164,99.852 209.767,99.262 209.571 C 98.994 209.482,99.743 208.682,100.926 207.795 C 103.163 206.116,103.736 205.866,103.736 206.572 M184.176 206.969 C 184.176 208.635,182.057 210.318,181.076 209.430 C 179.917 208.381,179.969 208.230,181.868 207.129 C 183.894 205.955,184.176 205.936,184.176 206.969 M66.374 207.419 C 66.374 207.973,65.083 208.966,64.770 208.653 C 64.320 208.203,64.992 207.033,65.700 207.033 C 66.071 207.033,66.374 207.207,66.374 207.419 M86.096 207.623 C 86.677 208.323,86.318 208.791,85.201 208.791 C 84.758 208.791,84.393 209.038,84.389 209.341 C 84.378 210.313,79.973 214.945,79.059 214.945 C 78.581 214.945,78.294 215.114,78.422 215.320 C 78.783 215.905,77.556 217.314,76.990 216.964 C 75.978 216.339,76.560 215.466,80.769 211.288 C 85.363 206.729,85.358 206.733,86.096 207.623 M324.155 207.543 C 325.930 208.352,325.523 209.447,322.821 211.137 L 320.368 212.672 318.804 211.611 C 317.944 211.027,317.070 210.549,316.862 210.549 C 315.866 210.549,316.704 209.614,318.791 208.398 C 321.297 206.937,322.429 206.757,324.155 207.543 M107.692 208.519 C 107.692 209.049,103.288 212.747,102.656 212.747 C 101.730 212.747,102.793 211.180,104.725 209.698 C 107.229 207.776,107.692 207.592,107.692 208.519 M262.751 208.849 C 262.405 209.435,262.362 209.849,262.637 209.955 C 264.321 210.604,264.399 210.974,263.077 212.052 C 261.618 213.241,260.220 213.769,260.220 213.131 C 260.220 212.904,259.515 213.423,258.654 214.284 C 257.792 215.145,256.853 215.821,256.566 215.785 C 255.447 215.646,254.982 215.848,255.187 216.383 C 255.656 217.605,250.025 219.965,248.208 219.308 C 247.320 218.987,246.601 218.616,246.611 218.483 C 246.650 217.961,252.759 214.461,253.179 214.720 C 253.425 214.872,253.626 214.794,253.626 214.545 C 253.626 213.981,257.951 210.759,260.879 209.142 C 263.528 207.679,263.433 207.694,262.751 208.849 M309.189 209.167 C 311.043 210.217,310.843 210.529,306.762 212.963 C 304.731 214.174,302.582 215.511,301.986 215.934 C 300.572 216.939,299.778 216.905,297.368 215.733 C 294.786 214.479,294.719 214.569,300.881 211.014 C 306.362 207.851,306.723 207.770,309.189 209.167 M92.747 209.451 C 92.179 210.055,91.517 210.549,91.275 210.549 C 91.034 210.549,91.300 210.055,91.868 209.451 C 92.436 208.846,93.098 208.352,93.340 208.352 C 93.582 208.352,93.315 208.846,92.747 209.451 M156.703 211.265 C 154.329 213.370,153.407 213.851,153.407 212.985 C 153.407 212.191,156.744 209.662,157.758 209.689 C 158.215 209.701,157.846 210.253,156.703 211.265 M73.122 210.445 C 73.359 210.829,70.513 214.066,69.938 214.066 C 68.550 214.066,68.639 212.779,70.116 211.482 C 71.644 210.140,72.707 209.773,73.122 210.445 M179.780 210.912 C 179.780 212.137,173.776 216.056,172.950 215.370 C 172.215 214.761,173.205 213.813,176.674 211.805 C 178.774 210.590,179.780 210.301,179.780 210.912 M188.316 210.816 C 189.054 211.099,189.290 212.308,188.607 212.308 C 188.385 212.308,187.940 212.405,187.618 212.523 C 186.553 212.915,185.684 212.040,186.346 211.242 C 186.977 210.482,187.276 210.417,188.316 210.816 M95.768 211.758 C 95.436 212.181,94.831 212.777,94.424 213.082 C 94.016 213.387,91.939 215.133,89.808 216.961 C 85.687 220.497,70.330 231.077,70.330 230.380 C 70.330 229.815,75.235 225.955,78.462 223.982 C 79.912 223.095,82.218 221.539,83.587 220.525 C 84.955 219.511,87.625 217.560,89.521 216.189 C 91.416 214.819,93.548 213.088,94.258 212.343 C 95.627 210.907,96.788 210.457,95.768 211.758 M208.774 213.077 C 208.753 214.045,204.180 217.201,203.292 216.860 C 202.197 216.440,202.524 216.012,205.385 214.127 C 208.475 212.089,208.798 211.989,208.774 213.077 M313.388 212.945 C 313.679 213.295,314.602 213.808,315.440 214.084 C 317.028 214.608,316.870 215.824,315.214 215.824 C 314.817 215.824,313.113 216.630,311.429 217.614 C 307.669 219.811,306.626 220.036,304.448 219.119 C 302.372 218.246,302.367 218.252,307.988 214.895 C 312.816 212.012,312.660 212.068,313.388 212.945 M107.943 214.739 C 107.210 215.859,105.770 216.185,105.253 215.349 C 105.092 215.088,105.419 214.544,105.982 214.141 C 108.284 212.487,109.230 212.776,107.943 214.739 M146.516 213.834 C 146.656 214.567,139.676 220.269,138.808 220.131 C 137.439 219.913,137.824 219.411,141.808 216.224 C 145.415 213.338,146.334 212.872,146.516 213.834 M286.279 216.787 C 287.065 216.901,286.608 217.357,283.907 219.153 L 280.562 221.377 279.308 220.377 C 278.618 219.827,277.693 219.319,277.253 219.249 C 276.656 219.153,277.091 218.618,278.964 217.143 C 282.935 214.016,283.058 213.976,284.265 215.411 C 284.837 216.090,285.743 216.710,286.279 216.787 M65.495 216.018 C 65.495 216.850,64.746 217.287,63.885 216.957 C 63.330 216.744,63.302 216.567,63.741 216.039 C 64.433 215.204,65.495 215.192,65.495 216.018 M116.154 216.585 C 117.256 216.901,117.111 217.234,115.385 218.352 C 113.444 219.609,110.389 220.672,110.093 220.193 C 109.677 219.520,113.862 215.734,114.658 216.063 C 115.058 216.228,115.731 216.463,116.154 216.585 M220.415 218.352 C 215.730 224.644,213.107 226.833,210.374 226.730 C 207.896 226.637,208.654 225.671,214.286 221.740 C 215.978 220.559,218.218 218.942,219.264 218.148 C 221.709 216.291,221.922 216.328,220.415 218.352 M264.217 218.703 C 265.754 219.497,265.792 219.796,264.505 220.968 C 261.899 223.342,259.549 223.691,256.036 222.223 C 254.041 221.389,254.229 221.100,258.329 218.700 C 261.248 216.991,261.731 216.833,262.296 217.398 C 262.651 217.753,263.515 218.340,264.217 218.703 M101.417 218.359 C 99.771 220.077,95.533 222.561,94.908 222.175 C 94.545 221.950,94.705 221.598,95.435 221.016 C 99.904 217.451,104.052 215.609,101.417 218.359 M183.736 217.708 C 183.736 218.249,179.964 221.327,178.711 221.808 C 176.997 222.465,177.918 220.936,180.303 219.164 C 183.174 217.030,183.736 216.792,183.736 217.708 M170.360 218.071 C 170.531 218.348,169.829 219.280,168.738 220.224 C 167.108 221.632,166.753 221.781,166.419 221.198 C 165.715 219.964,169.617 216.869,170.360 218.071 M240.261 218.415 L 241.320 219.248 239.107 220.668 C 236.971 222.039,236.864 222.061,236.030 221.306 C 234.859 220.247,234.913 220.072,236.813 218.767 C 238.824 217.386,238.938 217.374,240.261 218.415 M336.441 218.193 C 336.160 218.926,331.180 222.857,330.533 222.857 C 329.573 222.857,331.056 221.099,333.482 219.362 C 336.112 217.479,336.823 217.198,336.441 218.193 M123.516 218.860 C 123.516 219.187,114.985 225.055,114.509 225.055 C 113.696 225.055,114.635 223.719,116.362 222.418 C 121.265 218.723,123.516 217.603,123.516 218.860 M201.302 218.352 C 201.243 219.479,194.537 223.285,193.840 222.587 C 193.216 221.963,197.038 219.338,198.148 219.628 C 198.749 219.786,199.070 219.582,199.239 218.937 C 199.461 218.087,201.343 217.553,201.302 218.352 M294.398 219.484 C 296.049 221.135,290.611 223.416,288.330 222.029 L 286.968 221.201 288.869 219.846 C 290.911 218.391,293.158 218.244,294.398 219.484 M61.978 219.534 C 61.978 219.883,61.780 220.290,61.538 220.440 C 61.297 220.589,61.099 220.304,61.099 219.806 C 61.099 219.308,61.297 218.901,61.538 218.901 C 61.780 218.901,61.978 219.186,61.978 219.534 M130.558 220.429 C 130.252 220.797,129.798 221.099,129.548 221.099 C 129.299 221.099,129.454 220.702,129.893 220.217 C 130.802 219.213,131.408 219.405,130.558 220.429 M324.396 219.510 C 324.396 219.603,323.901 220.003,323.297 220.399 C 322.049 221.217,321.867 221.053,322.889 220.031 C 323.519 219.401,324.396 219.098,324.396 219.510 M136.684 221.209 C 136.649 222.215,124.447 231.202,123.110 231.207 C 121.994 231.211,124.376 229.086,130.306 224.786 C 136.100 220.585,136.718 220.238,136.684 221.209 M246.066 221.187 C 246.894 222.015,246.757 222.192,243.953 223.922 C 239.502 226.670,237.744 225.148,242.094 222.313 C 244.845 220.519,245.276 220.397,246.066 221.187 M205.709 221.429 C 205.706 221.610,205.063 222.170,204.280 222.672 C 203.498 223.175,202.284 223.959,201.583 224.414 L 200.309 225.242 200.825 224.278 C 201.708 222.627,205.728 220.282,205.709 221.429 M300.425 221.840 C 302.431 222.796,302.420 222.827,299.510 224.567 C 297.069 226.027,293.626 226.057,293.626 224.617 C 293.626 224.325,297.838 221.476,298.776 221.134 C 298.829 221.114,299.570 221.432,300.425 221.840 M150.330 221.734 C 150.330 222.218,145.369 225.909,145.014 225.689 C 144.267 225.227,144.615 224.700,146.703 223.132 C 148.493 221.789,150.330 221.081,150.330 221.734 M158.242 221.704 C 158.242 222.015,153.307 225.934,152.917 225.934 C 151.813 225.934,152.808 224.619,155.006 223.171 C 157.251 221.692,158.242 221.244,158.242 221.704 M108.571 223.317 C 106.210 225.335,101.099 229.054,101.099 228.753 C 101.099 228.335,105.430 224.527,107.428 223.189 C 109.818 221.589,110.503 221.666,108.571 223.317 M127.697 222.411 C 127.260 223.117,119.871 228.150,119.628 227.907 C 119.143 227.421,123.709 223.330,124.961 223.129 C 125.254 223.081,125.890 222.809,126.374 222.524 C 127.456 221.885,128.053 221.834,127.697 222.411 M177.286 222.500 C 177.385 222.859,168.095 229.451,167.489 229.451 C 166.429 229.451,167.208 228.524,169.859 226.632 C 171.413 225.523,172.821 224.615,172.988 224.615 C 173.154 224.615,173.978 224.012,174.818 223.274 C 176.215 222.048,177.086 221.774,177.286 222.500 M232.708 223.361 C 232.580 223.567,232.215 223.736,231.896 223.736 C 231.199 223.736,230.231 222.663,230.597 222.297 C 230.980 221.913,232.979 222.921,232.708 223.361 M272.527 222.637 C 272.828 223.000,273.434 223.297,273.874 223.297 C 275.928 223.297,275.301 225.067,272.773 226.408 L 270.879 227.413 268.749 226.490 C 265.956 225.281,265.952 225.075,268.678 223.398 C 271.283 221.796,271.752 221.703,272.527 222.637 M68.825 224.205 C 66.401 226.334,65.025 227.370,64.859 227.193 C 64.623 226.942,69.962 222.342,70.205 222.586 C 70.324 222.705,69.704 223.434,68.825 224.205 M192.967 223.707 C 192.967 224.076,186.342 228.571,185.799 228.571 C 184.845 228.571,185.884 227.470,188.862 225.322 C 191.925 223.113,192.967 222.703,192.967 223.707 M320.000 223.019 C 320.000 223.107,319.209 223.703,318.242 224.343 C 317.275 224.983,316.484 225.326,316.484 225.104 C 316.484 224.883,317.126 224.290,317.912 223.787 C 319.258 222.925,320.000 222.652,320.000 223.019 M307.558 224.409 C 306.880 225.006,305.989 225.497,305.580 225.501 C 305.170 225.504,304.359 225.634,303.777 225.790 C 303.032 225.989,302.813 225.921,303.037 225.560 C 303.539 224.747,306.486 223.336,307.692 223.330 L 308.791 223.324 307.558 224.409 M161.758 224.402 C 161.758 224.938,158.832 227.228,158.132 227.240 C 156.961 227.259,157.229 226.713,159.027 225.418 C 160.546 224.324,161.758 223.873,161.758 224.402 M252.787 225.561 C 254.769 226.780,254.941 226.998,254.222 227.379 C 253.774 227.617,252.973 228.204,252.444 228.683 C 251.483 229.553,251.478 229.553,249.958 228.614 C 248.658 227.810,248.267 227.750,247.279 228.200 C 244.584 229.428,244.438 227.538,247.093 225.791 C 250.012 223.870,250.038 223.869,252.787 225.561 M199.560 224.995 C 199.560 226.252,191.467 232.421,190.938 231.566 C 190.530 230.905,194.925 226.888,196.477 226.505 C 197.085 226.355,197.841 225.868,198.157 225.423 C 198.754 224.583,199.560 224.337,199.560 224.995 M137.614 225.676 C 136.769 226.695,132.328 229.618,132.049 229.339 C 131.834 229.123,137.448 225.055,137.961 225.055 C 138.054 225.055,137.898 225.334,137.614 225.676 M180.846 226.867 C 180.154 227.986,173.398 231.608,172.447 231.369 C 171.881 231.227,171.130 231.349,170.778 231.641 C 170.427 231.932,169.921 232.098,169.655 232.010 C 169.201 231.858,171.976 229.930,177.579 226.504 C 179.888 225.092,181.811 225.306,180.846 226.867 M283.975 225.861 L 284.970 226.667 281.847 228.762 L 278.723 230.858 276.709 230.089 C 274.505 229.247,274.417 228.841,276.156 227.542 C 277.205 226.759,277.406 226.740,278.326 227.336 C 280.942 229.030,282.619 228.654,280.659 226.813 C 280.055 226.245,279.560 225.618,279.560 225.418 C 279.560 224.709,282.976 225.052,283.975 225.861 M112.200 226.165 C 112.253 226.662,107.415 230.169,106.239 230.486 C 104.922 230.841,105.565 230.084,108.571 227.741 C 111.329 225.591,112.102 225.255,112.200 226.165 M144.379 226.346 C 144.643 226.773,141.082 229.451,140.250 229.451 C 139.312 229.451,139.851 228.762,141.882 227.365 C 144.264 225.727,144.050 225.815,144.379 226.346 M238.901 226.813 C 238.752 227.055,238.405 227.253,238.130 227.253 C 237.855 227.253,237.078 227.782,236.402 228.429 C 235.727 229.077,235.025 229.457,234.843 229.275 C 234.398 228.831,237.372 226.400,238.378 226.385 C 238.815 226.379,239.051 226.571,238.901 226.813 M225.495 227.169 C 225.495 228.117,221.220 231.648,220.073 231.648 C 218.510 231.648,219.033 230.683,221.611 228.808 C 224.208 226.917,225.495 226.375,225.495 227.169 M302.418 227.183 C 302.418 227.731,299.248 229.885,298.826 229.624 C 298.087 229.167,298.496 228.141,299.670 227.504 C 301.011 226.777,302.418 226.612,302.418 227.183 M292.927 227.644 C 293.692 227.943,293.647 228.057,292.420 228.931 C 290.803 230.082,290.811 230.082,289.388 229.149 C 287.429 227.866,290.337 226.628,292.927 227.644 M311.587 229.521 C 307.475 233.203,302.787 235.738,305.314 232.913 C 306.611 231.463,312.689 227.301,313.120 227.567 C 313.331 227.698,312.641 228.577,311.587 229.521 M156.171 230.066 C 155.497 230.813,154.911 231.493,154.868 231.576 C 154.826 231.660,154.360 231.592,153.833 231.424 C 152.912 231.132,152.939 231.055,154.538 229.417 C 156.712 227.191,158.223 227.791,156.171 230.066 M148.980 228.828 C 148.662 229.211,147.501 230.114,146.399 230.834 L 144.396 232.144 146.581 230.138 C 148.689 228.203,150.170 227.395,148.980 228.828 M98.901 230.549 C 98.333 231.154,97.671 231.648,97.429 231.648 C 97.187 231.648,97.454 231.154,98.022 230.549 C 98.590 229.945,99.252 229.451,99.494 229.451 C 99.736 229.451,99.469 229.945,98.901 230.549 M181.995 230.787 C 180.429 232.126,179.780 232.389,179.780 231.685 C 179.780 231.115,182.067 229.478,182.857 229.482 C 183.251 229.485,182.905 230.009,181.995 230.787 M262.479 230.330 L 263.516 231.209 262.479 232.088 C 261.199 233.172,260.138 233.224,260.243 232.198 C 260.379 230.860,260.254 230.800,258.695 231.451 C 256.166 232.508,255.789 231.753,258.132 230.325 C 259.946 229.219,261.169 229.220,262.479 230.330 M85.694 230.573 C 85.382 230.949,84.715 231.471,84.212 231.732 C 83.395 232.156,83.411 232.082,84.362 231.049 C 85.488 229.825,86.664 229.405,85.694 230.573 M244.349 231.792 L 246.151 232.816 242.909 234.869 C 239.093 237.286,239.086 237.287,238.130 235.669 C 237.309 234.279,237.485 234.005,240.659 231.739 C 242.303 230.565,242.185 230.563,244.349 231.792 M207.473 231.601 C 207.473 232.047,206.134 232.654,205.827 232.347 C 205.717 232.237,205.757 231.935,205.916 231.678 C 206.267 231.110,207.473 231.051,207.473 231.601 M163.297 232.527 C 162.859 233.011,162.285 233.400,162.020 233.392 C 161.755 233.384,162.005 232.988,162.576 232.513 C 163.919 231.395,164.315 231.403,163.297 232.527 M274.653 233.187 C 275.742 234.277,270.809 236.349,268.956 235.581 L 267.599 235.019 268.635 234.192 C 270.582 232.636,273.598 232.133,274.653 233.187 M228.702 233.245 C 229.193 233.735,228.147 235.135,226.752 235.856 C 225.302 236.606,225.313 236.489,226.915 234.176 C 227.758 232.959,228.191 232.733,228.702 233.245 M285.275 234.117 C 285.275 234.913,283.680 234.906,283.374 234.109 C 283.056 233.281,283.392 233.017,284.421 233.286 C 284.891 233.409,285.275 233.783,285.275 234.117 M279.290 236.028 C 277.574 237.679,276.816 238.131,276.085 237.940 C 274.644 237.563,275.178 236.850,278.056 235.310 C 281.657 233.384,281.895 233.522,279.290 236.028 M291.736 235.453 C 292.452 237.321,288.825 239.107,286.184 238.187 L 284.765 237.692 287.328 236.222 C 290.195 234.577,291.324 234.380,291.736 235.453 M250.110 238.901 C 248.909 240.179,248.428 240.272,248.054 239.296 C 247.732 238.458,248.602 237.818,250.077 237.809 L 251.142 237.802 250.110 238.901 M262.775 239.670 C 262.874 240.190,262.644 240.440,262.064 240.440 C 261.103 240.440,260.061 239.426,260.535 238.952 C 261.093 238.394,262.625 238.886,262.775 239.670 M107.204 239.805 C 107.312 239.912,106.819 240.000,106.110 240.000 C 104.219 240.000,92.231 240.753,80.639 241.601 C 73.001 242.159,70.297 242.219,69.650 241.843 C 68.947 241.436,69.348 241.336,71.868 241.291 C 73.560 241.261,75.736 241.177,76.703 241.105 C 77.670 241.032,80.440 240.849,82.857 240.698 C 87.322 240.419,90.343 240.164,96.264 239.567 C 99.447 239.246,106.805 239.406,107.204 239.805 M217.582 241.366 C 217.582 241.868,216.390 241.879,216.082 241.380 C 215.953 241.172,215.961 240.889,216.099 240.751 C 216.442 240.408,217.582 240.881,217.582 241.366 M124.396 241.898 L 125.495 242.367 124.178 242.542 C 121.335 242.919,117.077 242.176,118.035 241.470 C 118.972 240.780,122.306 241.004,124.396 241.898 M272.353 241.529 C 273.900 242.175,274.043 243.077,272.599 243.077 C 271.579 243.077,269.813 241.799,270.128 241.289 C 270.457 240.756,270.520 240.763,272.353 241.529 M294.066 241.223 C 294.066 241.412,292.582 242.708,290.769 244.104 C 286.564 247.341,286.495 246.984,290.659 243.533 C 294.083 240.696,294.066 240.708,294.066 241.223 M284.992 242.524 C 285.483 242.815,284.391 243.501,283.422 243.510 C 283.007 243.513,282.446 243.101,282.175 242.594 C 281.695 241.697,283.519 241.652,284.992 242.524 M275.788 245.981 C 277.228 246.534,276.277 247.912,274.456 247.912 C 273.565 247.912,273.149 246.587,273.892 246.116 C 274.628 245.650,274.880 245.632,275.788 245.981 M289.175 247.329 C 288.243 248.466,280.410 254.183,280.146 253.919 C 280.017 253.790,281.245 252.732,282.874 251.568 C 284.503 250.403,286.649 248.810,287.643 248.026 C 289.673 246.427,290.058 246.252,289.175 247.329 M232.967 247.435 C 232.967 248.118,229.397 250.501,228.747 250.252 C 227.705 249.852,228.063 248.820,229.560 247.907 C 231.044 247.003,232.967 246.736,232.967 247.435 M265.934 247.692 C 266.405 248.260,266.230 248.352,264.669 248.352 C 262.848 248.352,262.191 247.711,263.626 247.336 C 265.023 246.971,265.381 247.026,265.934 247.692 M240.062 249.231 C 241.221 249.231,240.745 249.906,238.653 251.227 C 236.920 252.321,234.983 252.640,234.530 251.907 C 234.185 251.350,237.865 248.721,238.596 249.002 C 238.924 249.128,239.584 249.231,240.062 249.231 M244.396 253.652 C 244.396 254.318,244.088 254.505,243.000 254.505 L 241.605 254.505 242.625 253.420 C 243.738 252.235,244.396 252.321,244.396 253.652 M252.506 254.031 C 252.990 254.814,249.130 257.189,248.460 256.519 C 248.315 256.374,248.763 255.663,249.455 254.940 C 250.700 253.641,252.021 253.247,252.506 254.031 M256.246 257.381 C 255.416 258.237,254.670 258.735,254.588 258.488 C 254.426 258.004,256.651 255.861,257.339 255.838 C 257.568 255.830,257.076 256.525,256.246 257.381 M239.560 257.444 C 239.560 258.182,237.553 259.780,236.627 259.780 C 235.152 259.780,235.366 259.212,237.253 258.118 C 238.986 257.114,239.560 256.946,239.560 257.444 M264.615 257.326 C 264.615 257.761,261.031 260.299,260.776 260.044 C 260.432 259.699,263.300 257.186,264.066 257.161 C 264.368 257.151,264.615 257.225,264.615 257.326 M228.571 259.710 C 228.571 260.025,227.302 260.809,225.714 261.475 C 225.473 261.576,225.754 261.137,226.340 260.500 C 227.371 259.379,228.571 258.953,228.571 259.710 M245.057 260.657 C 244.269 261.528,243.077 261.855,243.077 261.201 C 243.077 260.784,245.412 259.332,245.669 259.589 C 245.772 259.691,245.496 260.172,245.057 260.657 M234.470 261.805 C 235.585 262.233,235.303 262.584,232.948 263.702 C 230.189 265.012,229.152 264.456,231.058 262.689 C 232.303 261.535,233.175 261.309,234.470 261.805 M268.200 263.341 C 267.391 264.076,266.608 264.556,266.459 264.407 C 266.150 264.099,268.561 262.011,269.231 262.007 C 269.473 262.005,269.009 262.605,268.200 263.341 M256.264 263.297 C 256.264 263.538,255.856 263.736,255.359 263.736 C 254.861 263.736,254.576 263.538,254.725 263.297 C 254.875 263.055,255.282 262.857,255.630 262.857 C 255.979 262.857,256.264 263.055,256.264 263.297 M240.201 265.964 C 240.062 266.189,239.639 266.374,239.261 266.374 C 238.702 266.374,238.675 266.251,239.117 265.719 C 239.684 265.035,240.641 265.252,240.201 265.964 M264.602 266.610 C 263.644 267.763,260.659 269.987,260.659 269.546 C 260.659 269.162,264.503 265.934,264.961 265.934 C 265.072 265.934,264.910 266.238,264.602 266.610 M249.491 267.522 C 250.776 267.844,250.844 268.608,249.682 269.660 C 248.763 270.491,245.848 269.861,246.410 268.953 C 246.544 268.735,246.838 268.671,247.063 268.810 C 247.985 269.380,248.391 268.464,247.611 267.574 C 246.839 266.694,246.840 266.674,247.623 266.960 C 248.069 267.123,248.909 267.376,249.491 267.522 M276.973 270.015 C 273.348 274.398,272.382 275.232,270.807 275.341 C 269.097 275.459,269.012 275.643,271.978 272.834 C 278.914 266.267,281.088 265.040,276.973 270.015 M228.571 268.001 C 228.571 268.655,225.723 271.209,224.995 271.209 C 223.290 271.209,223.521 269.621,225.395 268.459 C 226.601 267.711,228.571 267.427,228.571 268.001 M235.165 269.801 C 235.165 270.419,231.897 273.331,231.035 273.481 C 229.520 273.745,229.844 272.715,231.583 271.738 C 232.523 271.209,233.540 270.479,233.843 270.114 C 234.434 269.402,235.165 269.229,235.165 269.801 M258.901 271.429 C 258.600 271.791,258.032 272.082,257.638 272.074 C 257.037 272.062,257.060 271.957,257.776 271.415 C 258.887 270.575,259.602 270.583,258.901 271.429 M245.186 272.901 C 246.950 273.400,243.233 276.684,241.369 276.275 C 239.388 275.840,239.242 275.181,240.816 273.775 C 242.193 272.544,243.208 272.341,245.186 272.901 M228.378 276.706 C 229.247 277.380,226.676 280.414,225.219 280.433 C 223.700 280.453,223.722 279.165,225.267 277.620 C 227.051 275.835,227.199 275.792,228.378 276.706 M235.070 280.372 C 236.499 281.278,233.611 283.892,232.083 283.075 C 230.980 282.484,230.989 282.269,232.165 281.017 C 233.154 279.964,234.097 279.754,235.070 280.372 M248.307 282.308 C 248.229 283.266,243.977 286.790,243.489 286.302 C 242.799 285.612,243.449 284.521,245.407 283.082 C 247.308 281.683,248.381 281.397,248.307 282.308 M220.659 284.527 C 220.659 285.501,219.938 286.593,219.294 286.593 C 219.123 286.593,219.196 285.901,219.456 285.055 C 219.992 283.308,220.659 283.016,220.659 284.527 M226.813 287.855 C 226.813 288.362,224.143 290.223,223.844 289.924 C 223.475 289.555,225.986 287.013,226.441 287.294 C 226.646 287.421,226.813 287.673,226.813 287.855 M217.802 296.703 C 217.365 297.187,216.809 297.582,216.567 297.582 C 216.325 297.582,216.486 297.187,216.923 296.703 C 217.361 296.220,217.916 295.824,218.158 295.824 C 218.400 295.824,218.240 296.220,217.802 296.703 M225.286 302.846 C 223.857 304.290,222.605 305.389,222.505 305.289 C 222.324 305.108,227.281 300.267,227.679 300.236 C 227.792 300.227,226.715 301.401,225.286 302.846 " stroke="none" fill="#f73c59" fill-rule="evenodd"></path></g></svg>