<svg id="svg" xmlns="http://www.w3.org/2000/svg" xmlns:xlink="http://www.w3.org/1999/xlink" width="400" height="400" viewBox="0, 0, 400,400"><g id="svgg"><path id="path0" d="M179.967 43.392 C 178.511 44.848,179.590 59.341,181.154 59.341 C 181.912 59.341,181.978 58.936,181.978 54.322 C 181.978 49.242,182.175 47.912,182.927 47.912 C 184.179 47.912,185.457 55.197,186.359 67.473 C 186.607 70.857,187.012 76.198,187.258 79.341 C 187.504 82.484,187.897 88.121,188.131 91.868 C 188.366 95.615,188.652 99.571,188.768 100.659 C 189.403 106.639,190.566 146.075,190.128 146.783 C 189.757 147.385,189.011 147.393,189.011 146.795 C 189.011 146.544,188.566 145.736,188.022 145.001 C 187.080 143.728,187.026 143.208,186.886 134.152 C 186.733 124.166,186.536 123.077,184.888 123.077 C 182.791 123.077,181.956 124.970,182.466 128.571 C 184.315 141.653,183.685 147.905,180.808 145.028 C 180.480 144.700,178.731 144.699,174.896 145.025 C 155.427 146.681,155.165 146.690,155.165 145.654 C 155.165 144.995,153.480 144.958,134.835 145.215 C 115.846 145.477,111.368 145.602,102.088 146.126 C 98.357 146.337,97.650 146.002,99.231 144.774 C 101.131 143.297,98.904 142.857,89.526 142.857 L 80.758 142.857 78.911 144.559 C 76.902 146.411,73.942 147.082,66.484 147.376 C 63.034 147.512,62.829 147.409,64.205 146.230 C 66.023 144.674,65.106 144.392,58.420 144.455 C 52.629 144.509,38.654 145.637,36.813 146.198 C 36.198 146.386,36.044 146.166,36.044 145.102 C 36.044 143.120,30.964 141.697,27.963 142.838 C 26.200 143.508,25.916 145.621,25.944 157.878 C 25.958 164.001,25.762 173.746,25.509 179.533 C 25.066 189.643,25.133 191.648,25.910 191.648 C 27.366 191.648,28.011 187.713,28.360 176.703 C 28.661 167.205,29.099 162.170,29.957 158.337 C 30.962 153.841,31.296 156.609,30.774 165.114 C 30.494 169.675,30.322 177.580,30.392 182.680 C 30.510 191.260,30.455 192.048,29.663 193.229 C 28.680 194.695,28.546 217.211,29.467 226.295 C 29.720 228.791,30.018 236.123,30.129 242.589 L 30.332 254.345 29.229 255.304 C 27.504 256.804,27.481 256.721,27.322 248.272 C 27.168 240.124,26.903 238.417,25.715 237.962 C 23.617 237.156,23.502 238.755,24.397 256.264 C 24.782 263.793,24.326 263.489,35.094 263.390 C 47.929 263.272,56.996 261.911,51.639 260.906 C 47.384 260.108,53.728 258.353,60.113 258.562 C 64.743 258.714,64.965 259.447,60.531 259.945 C 55.471 260.512,56.385 261.248,62.673 261.671 C 68.295 262.049,85.216 260.492,90.613 259.101 C 93.582 258.336,112.527 258.163,112.527 258.901 C 112.527 259.143,112.342 259.341,112.114 259.341 C 106.708 259.341,91.213 261.260,90.765 261.985 C 89.487 264.053,132.938 262.951,143.626 260.645 C 146.560 260.012,146.664 259.102,143.846 258.712 C 139.600 258.124,138.193 256.914,140.908 256.185 C 143.367 255.526,167.457 255.794,168.524 256.493 C 169.326 257.019,170.476 257.038,175.869 256.613 C 183.940 255.978,183.741 255.902,183.717 259.657 L 183.697 262.637 182.883 261.098 C 180.383 256.373,176.661 257.848,178.214 262.949 C 179.370 266.749,179.913 278.100,179.512 290.110 C 179.314 296.033,179.136 308.692,179.116 318.242 C 179.096 327.791,178.855 340.354,178.581 346.160 C 178.267 352.793,178.228 357.856,178.477 359.786 C 178.694 361.475,178.879 363.995,178.887 365.385 C 178.906 368.814,179.593 368.697,181.683 364.910 C 183.692 361.268,187.106 356.273,188.830 354.452 C 189.819 353.408,190.455 352.496,190.244 352.426 C 190.034 352.356,190.342 351.646,190.930 350.850 C 191.638 349.890,192.077 349.595,192.231 349.975 C 192.476 350.579,193.526 349.538,196.484 345.757 C 198.116 343.670,198.923 343.205,198.570 344.555 C 198.315 345.528,201.724 344.741,203.080 343.514 C 204.022 342.661,204.396 342.684,204.396 343.593 C 204.396 344.202,204.585 344.151,205.495 343.297 C 206.099 342.729,206.593 341.922,206.593 341.503 C 206.593 340.532,211.068 336.722,211.321 337.478 C 211.639 338.433,212.120 338.082,214.243 335.348 C 215.385 333.878,216.899 332.345,217.607 331.942 C 218.715 331.312,218.903 330.931,218.950 329.231 C 219.079 324.597,219.555 324.177,239.011 311.559 C 243.934 308.365,243.955 308.345,243.758 306.813 C 243.547 305.161,247.527 301.293,258.572 292.418 C 263.510 288.450,263.878 288.399,260.098 292.209 C 255.654 296.687,256.474 297.264,261.910 293.485 C 263.761 292.198,267.321 289.721,269.822 287.981 C 285.911 276.785,293.066 270.674,291.829 269.184 C 291.507 268.796,291.451 268.377,291.689 268.144 C 292.143 267.700,307.584 257.199,316.484 251.283 C 323.953 246.317,327.033 244.045,327.033 243.503 C 327.033 242.598,325.709 243.186,321.072 246.153 C 316.416 249.131,315.165 249.694,315.165 248.808 C 315.165 247.920,320.166 244.225,337.582 232.247 C 355.397 219.995,360.422 216.454,364.043 213.599 C 369.559 209.251,369.297 209.368,370.881 210.539 L 372.227 211.535 373.916 210.203 C 374.845 209.471,377.153 208.235,379.046 207.457 C 380.939 206.679,382.554 205.820,382.635 205.549 C 383.723 201.898,381.696 198.207,376.544 194.458 C 375.086 193.398,371.905 190.583,369.475 188.204 C 367.044 185.824,364.264 183.378,363.297 182.768 C 362.330 182.158,360.549 180.775,359.341 179.693 C 358.132 178.612,355.659 176.605,353.846 175.234 C 352.033 173.862,349.593 171.951,348.424 170.986 C 345.845 168.857,345.495 168.820,345.495 170.671 C 345.495 172.499,346.020 173.246,351.359 179.018 C 356.482 184.555,356.643 185.132,352.023 181.395 C 334.194 166.973,330.371 163.672,324.176 157.348 C 319.589 152.665,320.101 152.435,325.890 156.576 C 327.815 157.953,328.352 158.085,328.352 157.181 C 328.352 156.840,327.016 155.612,325.385 154.453 C 321.055 151.378,317.740 148.141,318.019 147.263 C 318.291 146.405,317.410 145.554,313.188 142.595 C 311.496 141.410,306.617 137.647,302.345 134.233 C 298.072 130.820,293.127 127.075,291.354 125.911 C 284.879 121.659,270.693 110.276,268.851 107.854 C 268.400 107.261,266.950 106.084,265.628 105.239 C 264.306 104.393,261.510 102.055,259.415 100.043 C 254.726 95.541,247.661 89.269,244.159 86.499 C 242.718 85.359,240.487 83.579,239.201 82.543 C 234.859 79.044,231.877 76.910,229.813 75.824 C 228.682 75.230,227.643 74.383,227.503 73.942 C 227.363 73.501,225.420 71.873,223.185 70.324 C 220.950 68.775,218.255 66.709,217.195 65.732 C 216.136 64.755,214.619 63.560,213.823 63.077 C 213.028 62.593,207.763 58.722,202.123 54.473 C 190.301 45.568,186.469 43.090,185.913 43.991 C 185.615 44.473,185.216 44.401,183.811 43.612 C 181.727 42.440,180.963 42.396,179.967 43.392 M214.872 70.501 C 217.259 72.065,220.675 74.510,222.463 75.933 C 224.251 77.357,227.198 79.691,229.011 81.121 C 230.824 82.550,235.054 86.097,238.410 89.003 C 241.767 91.908,245.031 94.713,245.663 95.235 C 246.296 95.758,246.675 96.324,246.507 96.494 C 246.057 96.948,236.559 89.906,223.297 79.286 C 208.060 67.084,205.362 64.271,214.872 70.501 M202.540 83.113 C 202.615 83.505,202.183 84.022,201.535 84.317 C 200.002 85.016,200.007 85.019,200.579 83.504 C 201.104 82.112,202.301 81.873,202.540 83.113 M223.098 89.272 C 230.202 95.321,237.636 101.403,248.791 110.292 C 259.023 118.445,262.840 121.896,267.704 127.391 C 269.532 129.458,271.099 130.795,272.088 131.134 C 273.858 131.740,279.446 135.610,283.297 138.896 C 288.479 143.318,291.108 144.765,291.606 143.469 C 291.982 142.490,293.448 143.458,297.018 147.043 C 298.521 148.553,300.653 150.386,301.757 151.117 C 303.238 152.098,304.133 153.175,305.178 155.234 C 306.512 157.862,307.040 158.359,314.358 163.878 C 320.629 168.607,323.742 171.377,330.533 178.271 C 338.908 186.771,340.603 188.060,341.442 186.562 C 341.811 185.903,342.668 186.541,347.638 191.175 C 353.347 196.498,354.062 197.457,352.711 197.975 C 351.623 198.393,351.507 198.346,349.011 196.484 C 346.225 194.405,345.779 194.320,346.119 195.934 C 346.344 197.003,346.055 197.406,343.626 199.418 C 339.679 202.687,332.762 208.294,330.270 210.245 C 324.704 214.603,319.233 220.659,320.864 220.659 C 321.356 220.659,321.758 220.486,321.758 220.274 C 321.758 219.894,329.425 214.250,331.288 213.259 C 332.131 212.810,332.264 212.868,332.387 213.737 C 332.549 214.874,334.188 215.316,335.183 214.490 C 335.945 213.858,337.143 214.236,337.143 215.109 C 337.143 215.455,334.225 217.801,330.659 220.321 C 321.012 227.139,322.186 226.516,321.030 225.430 L 320.039 224.499 317.712 225.968 C 314.988 227.688,301.564 237.831,296.484 242.009 C 294.549 243.599,292.374 245.205,291.648 245.577 C 290.923 245.950,289.788 246.761,289.125 247.381 C 287.081 249.293,287.353 248.178,289.481 245.926 C 290.587 244.755,291.853 243.091,292.294 242.228 C 293.713 239.451,296.240 235.918,299.626 231.978 C 303.202 227.817,303.487 227.574,302.863 229.215 C 301.829 231.936,305.926 231.125,307.608 228.276 C 310.353 223.628,313.846 219.808,313.846 221.455 C 313.846 223.702,315.355 223.012,317.509 219.780 C 319.605 216.634,325.490 209.977,332.049 203.329 C 337.570 197.734,342.418 191.937,342.418 190.929 C 342.418 188.769,339.281 191.491,332.216 199.780 C 330.156 202.198,326.909 205.758,325.000 207.692 C 323.092 209.626,320.663 212.352,319.602 213.750 C 318.542 215.147,317.456 216.426,317.189 216.590 C 316.922 216.755,317.446 215.908,318.354 214.708 C 319.262 213.509,321.018 210.747,322.256 208.571 C 324.237 205.090,326.221 202.122,331.773 194.333 C 333.530 191.868,334.609 189.476,334.313 188.705 C 333.799 187.365,332.581 188.409,329.463 192.857 C 327.641 195.456,325.245 198.769,324.139 200.220 C 323.032 201.670,320.644 204.934,318.832 207.473 C 312.825 215.887,305.031 224.439,307.280 220.148 C 307.576 219.583,310.708 214.799,314.239 209.517 C 317.770 204.235,321.137 199.191,321.721 198.308 C 322.305 197.425,323.800 195.418,325.044 193.846 C 326.288 192.275,327.918 190.099,328.666 189.011 C 329.414 187.923,330.441 186.596,330.947 186.062 C 332.274 184.664,332.117 184.024,330.637 184.790 C 329.173 185.547,326.509 188.369,323.858 191.970 C 322.802 193.404,321.229 195.451,320.362 196.519 C 319.495 197.588,317.285 200.736,315.451 203.516 C 311.563 209.409,310.318 211.195,304.396 219.374 C 301.978 222.713,298.269 227.879,296.154 230.854 C 292.167 236.463,289.840 239.547,283.511 247.611 C 279.450 252.785,277.309 255.557,276.318 256.923 C 275.817 257.614,275.563 257.688,275.133 257.270 C 274.406 256.565,274.810 255.984,289.487 236.633 C 293.858 230.870,298.589 224.473,299.998 222.418 C 301.408 220.363,303.827 217.037,305.374 215.028 C 306.921 213.019,308.118 211.168,308.034 210.916 C 307.678 209.848,297.231 221.777,288.759 232.925 C 276.011 249.701,274.725 251.161,274.725 248.864 C 274.725 247.956,276.550 245.252,281.340 239.066 C 283.141 236.740,285.703 233.399,287.033 231.644 C 288.363 229.888,290.750 226.847,292.337 224.885 C 295.898 220.486,304.231 209.065,305.565 206.758 C 307.881 202.749,311.788 198.060,318.738 190.943 C 325.293 184.232,326.818 182.418,325.903 182.418 C 325.765 182.418,325.400 182.665,325.092 182.967 C 324.785 183.269,321.622 186.088,318.063 189.231 C 311.831 194.735,307.203 200.091,302.941 206.729 C 298.215 214.090,288.409 226.841,282.436 233.390 C 279.380 236.741,275.927 241.042,269.800 249.132 C 267.981 251.533,262.757 257.880,259.473 261.678 C 258.611 262.674,258.280 262.814,257.773 262.393 C 256.801 261.586,256.878 261.422,261.239 255.022 C 272.851 237.982,277.755 232.302,280.084 233.196 C 280.878 233.500,281.894 231.450,281.526 230.289 C 281.376 229.817,280.522 229.247,279.511 228.944 L 277.757 228.419 280.747 225.389 C 282.391 223.723,286.060 220.456,288.901 218.130 C 296.222 212.135,295.855 211.566,288.132 216.938 C 280.405 222.311,255.811 246.044,248.072 255.595 C 246.524 257.504,245.902 258.015,245.796 257.463 C 245.716 257.045,245.467 256.703,245.242 256.703 C 243.972 256.703,245.388 254.574,249.780 249.881 C 252.500 246.975,256.985 242.060,259.746 238.959 C 264.890 233.183,283.343 216.826,290.656 211.561 C 292.669 210.111,302.457 200.338,302.317 199.917 C 302.109 199.295,299.963 200.868,287.253 210.960 C 284.123 213.445,280.597 216.383,270.769 224.691 C 265.408 229.224,251.856 242.628,245.070 250.110 C 241.227 254.348,241.082 254.450,240.747 253.167 C 240.317 251.523,260.153 230.502,272.747 219.255 C 275.890 216.449,279.841 212.748,281.527 211.032 C 283.212 209.316,284.829 207.912,285.118 207.912 C 285.408 207.912,285.776 207.312,285.937 206.579 C 286.098 205.845,286.708 204.932,287.291 204.550 C 287.874 204.168,288.352 203.464,288.352 202.986 C 288.352 202.008,289.210 200.798,292.857 196.640 C 294.982 194.216,295.811 192.958,295.275 192.969 C 294.882 192.977,277.892 209.543,259.448 227.901 C 236.027 251.212,237.085 250.251,236.670 248.596 C 236.356 247.343,237.326 246.172,244.119 239.611 C 249.059 234.838,251.081 231.648,249.165 231.648 C 248.916 231.648,248.341 232.093,247.887 232.637 C 245.159 235.907,250.276 224.890,253.362 220.847 C 256.736 216.430,273.579 199.317,280.989 192.779 C 283.104 190.912,284.835 189.196,284.835 188.964 C 284.835 188.102,275.752 195.339,268.994 201.586 C 266.930 203.494,264.457 205.710,263.500 206.512 C 262.542 207.313,259.780 209.887,257.363 212.232 C 254.945 214.576,250.704 218.569,247.939 221.105 C 245.173 223.640,240.544 228.137,237.651 231.099 C 232.371 236.504,231.648 237.069,231.648 235.795 C 231.648 234.850,240.060 225.166,247.087 218.021 C 253.740 211.256,277.904 188.070,280.440 186.020 C 281.044 185.531,281.417 185.009,281.269 184.860 C 280.214 183.800,259.781 201.657,244.626 216.882 C 234.014 227.544,233.104 228.058,241.052 218.901 C 241.576 218.297,244.605 214.637,247.783 210.769 C 250.960 206.901,255.154 201.857,257.102 199.560 C 259.049 197.264,260.647 195.236,260.651 195.055 C 260.699 193.139,254.904 198.584,248.286 206.674 C 245.149 210.509,239.520 217.153,235.778 221.439 C 232.036 225.724,228.208 230.516,227.273 232.088 C 225.762 234.627,223.714 237.212,216.160 246.117 C 215.014 247.467,213.630 249.212,213.083 249.995 C 212.536 250.777,211.852 251.420,211.564 251.423 C 210.491 251.434,210.567 250.558,211.763 249.147 C 212.441 248.347,213.535 246.901,214.193 245.934 C 216.872 241.998,224.187 232.967,224.696 232.967 C 224.903 232.967,224.955 232.503,224.813 231.935 C 224.608 231.119,225.226 230.042,227.780 226.771 C 229.554 224.497,231.668 221.549,232.478 220.220 C 233.287 218.890,235.048 216.360,236.391 214.597 C 238.823 211.402,239.935 207.945,238.332 208.560 C 238.001 208.687,237.573 208.791,237.380 208.791 C 236.020 208.791,218.901 224.352,218.901 225.589 C 218.901 225.779,218.703 225.934,218.462 225.934 C 217.235 225.934,223.673 217.350,227.296 214.154 C 228.873 212.763,230.169 210.327,229.534 209.948 C 229.367 209.849,227.549 211.351,225.495 213.287 C 223.440 215.223,220.526 217.787,219.021 218.985 C 217.515 220.183,214.450 223.126,212.208 225.525 C 207.958 230.073,205.970 231.022,207.700 227.678 C 209.844 223.531,227.261 202.587,238.048 191.185 C 245.351 183.465,254.758 173.111,257.995 169.231 C 259.507 167.418,263.896 162.423,267.747 158.132 C 271.599 153.841,274.465 150.330,274.118 150.330 C 272.377 150.330,265.898 156.540,252.103 171.429 C 247.287 176.626,239.599 184.736,235.019 189.451 C 226.309 198.415,220.993 204.434,212.695 214.725 C 200.029 230.435,196.660 234.721,194.727 237.582 C 191.952 241.689,189.011 244.551,189.011 243.145 C 189.011 242.595,192.110 237.989,194.676 234.725 C 195.912 233.154,199.696 228.110,203.086 223.516 C 206.475 218.923,211.074 212.716,213.305 209.724 C 223.594 195.926,224.803 194.012,223.010 194.363 C 222.117 194.538,216.663 201.049,199.878 221.978 C 192.548 231.116,185.745 238.639,185.253 238.147 C 185.089 237.983,186.213 236.374,187.752 234.572 C 191.530 230.149,192.305 229.165,199.396 219.780 C 211.498 203.764,212.691 202.225,215.558 198.939 C 218.402 195.677,219.084 194.286,217.838 194.286 C 216.775 194.286,206.307 205.977,198.126 216.301 C 187.142 230.163,185.212 232.326,183.916 232.225 C 183.121 232.163,182.857 232.362,182.857 233.025 C 182.857 235.011,177.515 241.314,176.413 240.628 C 174.903 239.688,175.337 238.989,181.991 231.648 C 190.688 222.054,198.063 213.357,203.865 205.854 C 206.329 202.667,209.748 198.546,211.463 196.697 C 213.177 194.848,214.469 193.224,214.333 193.088 C 213.715 192.470,201.518 204.357,193.034 213.846 C 186.305 221.372,173.547 234.725,173.085 234.725 C 171.581 234.725,172.815 232.988,179.502 225.686 C 186.048 218.539,189.902 214.204,192.566 210.989 C 193.868 209.418,197.607 205.162,200.874 201.532 C 204.140 197.901,208.791 192.681,211.209 189.930 C 213.626 187.180,217.780 182.535,220.440 179.608 C 223.100 176.681,228.421 170.725,232.266 166.374 C 236.111 162.022,240.946 156.737,243.012 154.629 C 245.077 152.521,246.641 150.671,246.488 150.517 C 245.650 149.679,239.050 155.995,228.996 167.253 C 225.758 170.879,221.105 175.923,218.655 178.462 C 216.206 181.000,212.955 184.462,211.432 186.154 C 209.908 187.846,208.437 189.429,208.163 189.670 C 207.889 189.912,204.728 193.473,201.138 197.582 C 194.810 204.828,190.880 209.019,184.869 214.932 C 181.918 217.836,180.831 218.172,183.410 215.383 C 184.194 214.536,185.817 212.657,187.018 211.207 C 188.218 209.757,191.787 205.604,194.949 201.978 C 198.111 198.352,202.403 193.292,204.487 190.735 C 206.571 188.178,210.600 183.628,213.439 180.625 C 219.711 173.992,225.398 167.595,233.908 157.600 C 237.448 153.443,242.245 148.141,244.568 145.818 C 246.891 143.495,248.791 141.398,248.791 141.158 C 248.791 140.918,249.111 140.402,249.503 140.010 C 249.894 139.619,250.119 139.204,250.003 139.087 C 249.164 138.248,236.662 150.419,231.231 157.363 C 230.002 158.934,228.538 160.714,227.978 161.319 C 227.418 161.923,225.808 163.802,224.400 165.495 C 221.007 169.574,215.276 175.581,212.443 178.029 C 211.188 179.113,206.572 184.352,202.185 189.670 C 197.798 194.989,192.288 201.418,189.939 203.956 C 187.590 206.495,184.306 210.253,182.640 212.308 C 180.974 214.363,179.499 216.143,179.363 216.264 C 179.227 216.385,178.574 217.211,177.912 218.100 C 173.773 223.654,164.835 233.308,164.835 232.223 C 164.835 231.854,173.997 220.080,177.446 216.016 C 178.459 214.823,181.130 211.651,183.380 208.969 C 185.631 206.286,189.753 201.440,192.539 198.200 C 195.326 194.959,199.658 189.586,202.167 186.259 C 204.675 182.932,207.308 179.603,208.017 178.861 C 208.726 178.119,209.197 177.402,209.063 177.268 C 208.621 176.827,202.187 183.411,196.941 189.670 C 191.688 195.940,188.121 199.560,187.198 199.560 C 185.651 199.560,164.920 219.476,158.462 227.166 C 155.933 230.177,154.725 231.008,154.725 229.736 C 154.725 228.909,156.916 225.975,158.716 224.390 C 159.543 223.662,160.450 222.553,160.730 221.927 C 161.972 219.158,182.298 197.117,197.222 182.356 C 201.779 177.849,206.895 172.706,208.593 170.927 C 211.180 168.215,226.267 154.387,228.532 152.651 C 229.051 152.253,229.079 152.112,228.640 152.102 C 227.733 152.080,222.343 155.838,218.308 159.305 C 216.315 161.017,212.617 164.186,210.090 166.348 C 205.152 170.572,177.644 197.860,168.860 207.249 C 163.462 213.019,161.641 214.311,165.758 209.451 C 169.213 205.372,169.789 204.736,178.462 195.419 C 187.690 185.505,193.468 179.047,197.960 173.626 C 199.663 171.571,202.203 168.625,203.605 167.079 C 206.073 164.358,206.937 162.198,205.558 162.198 C 204.814 162.198,198.194 168.921,195.170 172.747 C 191.672 177.173,173.187 197.134,174.818 194.725 C 175.064 194.363,179.940 187.796,185.654 180.132 C 191.369 172.468,196.044 165.980,196.044 165.714 C 196.044 163.180,182.162 179.743,169.303 197.619 C 167.061 200.736,166.108 201.433,165.479 200.415 C 164.890 199.462,165.798 197.798,169.334 193.352 C 171.332 190.839,174.716 186.511,176.853 183.732 C 178.990 180.954,182.597 176.407,184.868 173.626 C 188.789 168.827,189.753 167.033,188.414 167.033 C 187.177 167.033,183.515 170.899,176.823 179.270 C 173.023 184.023,168.129 189.973,165.946 192.491 C 161.322 197.827,156.092 204.107,153.612 207.301 C 148.356 214.071,143.235 220.220,142.853 220.220 C 141.552 220.220,144.893 215.191,150.739 208.352 C 151.875 207.022,153.619 204.846,154.614 203.516 C 155.609 202.187,157.376 199.877,158.541 198.384 C 165.716 189.187,167.741 186.451,171.170 181.319 C 174.291 176.648,174.846 175.575,174.210 175.443 C 173.247 175.245,171.109 177.607,165.312 185.275 C 162.936 188.418,159.677 192.473,158.069 194.286 C 156.461 196.099,154.515 198.428,153.744 199.461 L 152.343 201.340 151.761 200.229 C 150.988 198.753,151.200 198.389,156.897 191.429 C 159.469 188.286,162.192 184.813,162.948 183.711 C 163.703 182.609,164.635 181.448,165.018 181.130 C 165.731 180.538,165.977 179.337,165.385 179.345 C 164.634 179.356,160.549 183.674,151.665 193.846 C 146.492 199.769,141.034 205.901,139.537 207.473 C 138.039 209.044,136.172 211.022,135.388 211.868 C 133.593 213.804,134.537 212.083,137.113 208.723 C 137.975 207.597,140.153 204.531,141.952 201.910 C 146.817 194.819,147.768 193.662,161.758 177.826 C 163.330 176.048,166.742 172.324,169.341 169.552 C 173.660 164.945,174.882 163.077,173.575 163.077 C 172.028 163.077,165.168 169.598,157.622 178.242 C 151.559 185.187,142.524 193.431,146.662 188.242 C 147.385 187.335,150.067 183.824,152.623 180.440 C 155.179 177.055,159.269 172.258,161.712 169.780 C 164.155 167.302,166.154 164.978,166.154 164.615 C 166.154 162.967,164.105 164.200,159.398 168.681 C 141.713 185.519,136.896 189.890,136.027 189.890 C 135.674 189.890,135.385 190.156,135.385 190.481 C 135.385 190.806,134.445 192.160,133.297 193.490 C 132.148 194.820,129.725 197.745,127.912 199.990 C 123.979 204.861,123.486 205.390,123.170 205.075 C 122.752 204.657,125.436 201.132,133.338 191.722 C 137.621 186.621,146.295 177.502,153.765 170.246 C 157.546 166.574,160.498 163.429,160.326 163.257 C 159.467 162.398,147.872 171.368,140.299 178.750 C 133.926 184.963,133.870 185.005,133.450 183.911 C 133.084 182.957,135.322 180.360,142.711 173.165 C 150.758 165.329,153.581 161.758,151.727 161.758 C 150.998 161.758,147.578 165.027,145.826 167.398 C 144.834 168.741,141.634 172.121,138.715 174.910 C 127.575 185.550,121.414 192.188,115.225 200.220 C 114.666 200.945,112.968 202.923,111.453 204.615 C 109.937 206.308,107.107 209.473,105.165 211.648 C 99.103 218.439,93.734 223.826,93.464 223.389 C 93.321 223.158,93.744 222.371,94.404 221.640 C 95.064 220.909,96.791 218.761,98.242 216.867 C 99.692 214.973,102.281 211.837,103.993 209.898 C 105.706 207.960,108.753 204.198,110.763 201.538 C 115.931 194.703,118.083 192.262,129.935 179.791 C 134.490 174.998,141.538 164.879,141.538 163.132 C 141.538 162.211,139.925 162.630,139.449 163.675 C 137.502 167.946,111.399 196.820,110.393 195.814 C 110.270 195.692,110.769 194.951,111.502 194.169 C 112.235 193.387,114.190 190.967,115.847 188.791 C 118.832 184.870,121.605 181.419,126.941 174.983 C 130.837 170.284,137.076 161.945,137.668 160.648 C 138.839 158.077,136.785 158.777,134.836 161.612 C 133.258 163.909,128.969 169.008,125.471 172.747 C 121.324 177.179,115.831 183.457,111.048 189.231 C 102.769 199.224,97.824 204.832,97.080 205.072 C 96.683 205.200,95.105 206.831,93.574 208.696 C 92.043 210.562,89.775 213.176,88.533 214.505 C 87.292 215.835,84.938 218.604,83.303 220.659 C 80.292 224.445,79.475 225.032,79.201 223.606 C 79.028 222.710,80.749 220.604,88.962 211.662 C 95.118 204.960,101.159 197.860,108.950 188.168 C 111.697 184.752,116.131 179.637,118.803 176.802 C 126.003 169.164,133.011 160.111,132.615 158.960 C 132.392 158.312,129.676 161.112,126.436 165.331 C 125.020 167.175,121.983 170.340,119.687 172.364 C 112.502 178.698,101.848 190.258,95.920 198.153 C 93.607 201.232,93.315 201.350,92.940 199.351 C 92.712 198.137,92.835 197.543,93.464 196.806 C 96.034 193.798,102.840 186.287,107.499 181.319 C 113.516 174.900,114.090 174.224,117.226 169.857 C 119.994 166.001,121.196 163.779,120.366 164.050 C 119.778 164.242,118.086 166.216,112.516 173.208 C 110.870 175.275,107.677 178.532,105.421 180.447 C 98.917 185.968,92.222 192.271,90.549 194.448 C 89.073 196.370,87.473 197.124,87.473 195.899 C 87.473 195.431,98.261 183.339,101.069 180.659 C 106.497 175.479,115.512 163.278,114.592 162.357 C 113.286 161.051,103.281 171.346,87.507 190.226 C 81.201 197.774,81.159 197.812,79.674 197.534 C 78.031 197.225,68.958 205.646,66.187 210.051 C 65.325 211.421,64.845 211.834,64.507 211.496 C 63.530 210.519,68.208 205.216,78.188 195.987 C 81.421 192.996,85.266 189.066,86.731 187.253 C 89.991 183.218,100.589 171.159,104.994 166.472 C 108.183 163.080,108.950 161.506,106.413 163.563 C 97.363 170.898,90.916 177.081,80.395 188.516 C 75.278 194.078,67.782 201.115,67.390 200.724 C 66.261 199.595,74.412 190.153,89.579 175.019 C 99.317 165.302,99.852 164.619,96.576 166.067 C 91.602 168.268,77.837 180.990,67.775 192.686 C 65.684 195.117,65.536 194.329,67.389 190.630 C 69.222 186.972,81.051 174.894,91.319 166.196 C 96.724 161.618,97.364 160.879,95.927 160.879 C 92.926 160.879,84.322 167.547,72.871 178.747 C 68.830 182.700,65.319 185.934,65.069 185.934 C 63.089 185.934,67.714 180.581,77.691 171.327 C 82.052 167.282,86.965 162.470,88.609 160.633 L 91.599 157.293 94.261 157.554 C 101.488 158.260,114.313 158.291,121.670 157.618 C 125.852 157.236,130.426 156.923,131.836 156.923 C 133.950 156.923,134.505 156.762,135.010 156.002 C 135.815 154.789,143.173 154.333,148.904 155.140 C 152.126 155.594,153.757 155.569,158.992 154.984 C 162.427 154.600,166.531 154.286,168.113 154.286 C 169.737 154.286,170.989 154.094,170.989 153.846 C 170.989 152.802,174.243 153.394,175.216 154.615 L 176.179 155.824 182.958 155.920 C 191.210 156.036,191.666 156.173,192.280 158.721 C 193.011 161.752,195.209 161.595,197.112 158.377 C 199.298 154.679,203.842 150.238,204.874 150.790 C 206.041 151.414,206.997 150.813,209.257 148.034 C 212.457 144.098,216.419 140.220,217.240 140.220 C 218.766 140.220,217.976 141.633,214.341 145.408 C 207.581 152.427,204.835 156.154,204.835 158.307 C 204.835 160.246,210.274 157.189,216.231 151.902 C 218.268 150.094,220.129 148.735,220.365 148.881 C 220.602 149.027,220.675 148.952,220.527 148.713 C 220.139 148.085,228.699 140.218,236.484 134.050 C 240.971 130.494,241.372 130.112,241.091 129.658 C 240.355 128.467,235.774 131.344,228.791 137.381 C 226.374 139.471,222.813 142.541,220.879 144.203 C 218.945 145.864,216.384 148.071,215.187 149.106 C 211.741 152.089,213.324 150.152,219.535 143.789 C 226.112 137.049,231.112 132.910,240.701 126.267 C 247.619 121.475,249.364 119.512,246.131 120.158 C 243.864 120.612,232.109 128.922,223.632 136.065 C 220.661 138.569,219.341 138.925,219.341 137.223 C 219.341 136.264,226.880 128.802,230.029 126.643 C 231.194 125.845,232.282 124.844,232.447 124.420 C 232.888 123.286,237.555 119.344,240.275 117.809 C 241.572 117.077,242.879 116.084,243.181 115.602 C 243.970 114.338,244.380 114.476,247.126 116.923 C 248.482 118.132,249.708 119.121,249.851 119.121 C 251.387 119.121,246.673 114.092,239.121 107.677 C 229.733 99.702,226.886 97.054,226.638 96.063 C 226.491 95.481,225.927 94.871,225.384 94.708 C 223.456 94.132,219.780 90.064,219.780 88.506 C 219.780 87.437,219.459 86.864,218.462 86.154 C 217.736 85.637,217.143 84.894,217.143 84.501 C 217.143 83.864,217.201 83.860,217.692 84.462 C 217.995 84.833,220.427 86.997,223.098 89.272 M210.547 86.811 C 210.995 87.350,210.907 87.619,210.052 88.317 C 209.021 89.157,209.010 89.157,208.866 88.287 C 208.557 86.411,209.517 85.569,210.547 86.811 M203.516 88.776 C 203.516 90.135,202.321 91.174,201.064 90.907 C 200.578 90.804,200.756 90.357,201.778 89.121 C 203.421 87.134,203.516 87.115,203.516 88.776 M214.066 89.959 C 214.066 90.617,211.778 93.183,211.400 92.949 C 210.719 92.528,210.927 91.961,212.193 90.787 C 213.374 89.692,214.066 89.386,214.066 89.959 M218.791 93.768 C 220.115 94.960,220.041 95.290,218.352 95.740 C 215.273 96.559,213.509 94.913,215.656 93.225 C 216.867 92.272,217.192 92.329,218.791 93.768 M208.779 96.059 C 208.485 96.413,208.070 96.703,207.858 96.703 C 207.237 96.703,207.413 95.946,208.222 95.137 C 209.118 94.242,209.611 95.057,208.779 96.059 M210.989 99.121 C 210.989 99.805,210.740 100.220,210.330 100.220 C 209.550 100.220,209.518 100.008,210.125 98.872 C 210.737 97.729,210.989 97.802,210.989 99.121 M226.192 99.415 C 228.598 101.143,228.596 101.188,226.044 102.657 C 224.896 103.318,223.610 104.158,223.187 104.525 C 222.480 105.138,222.418 105.095,222.418 104.001 C 222.418 103.074,222.126 102.710,221.099 102.352 C 219.235 101.702,219.365 101.239,221.978 99.220 C 223.899 97.736,223.851 97.734,226.192 99.415 M198.131 130.515 C 197.979 133.222,197.054 133.358,197.046 130.674 C 197.042 129.518,196.886 123.923,196.700 118.242 C 196.514 112.560,196.526 105.736,196.728 103.077 C 197.094 98.246,198.453 124.800,198.131 130.515 M208.146 104.132 C 207.985 104.639,207.691 105.055,207.494 105.055 C 206.904 105.055,206.658 103.408,207.172 102.894 C 207.856 102.210,208.497 103.025,208.146 104.132 M231.984 104.868 C 233.152 105.986,233.452 106.509,233.024 106.681 C 232.692 106.813,230.904 107.961,229.050 109.230 L 225.680 111.539 224.871 109.584 C 224.410 108.469,224.229 107.469,224.449 107.257 C 228.635 103.217,229.855 102.830,231.984 104.868 M214.505 104.310 C 214.505 104.965,209.264 111.209,208.713 111.209 C 207.648 111.209,208.995 108.987,212.243 105.385 C 213.788 103.671,214.505 103.330,214.505 104.310 M219.780 107.314 C 219.780 107.572,218.609 108.999,217.178 110.485 C 215.746 111.971,214.141 113.741,213.611 114.419 C 212.694 115.590,212.607 115.614,211.818 114.900 C 210.656 113.848,210.604 113.948,214.542 109.739 C 217.996 106.046,219.780 105.221,219.780 107.314 M203.777 120.653 C 203.906 134.415,203.838 135.034,202.466 132.710 C 201.050 130.313,202.009 105.598,203.461 107.051 C 203.566 107.155,203.708 113.276,203.777 120.653 M238.200 110.513 C 239.402 111.580,240.742 112.653,241.178 112.897 C 241.614 113.141,241.873 113.425,241.755 113.528 C 241.346 113.881,232.307 120.255,231.209 120.964 C 230.604 121.354,227.934 123.767,225.275 126.327 C 222.615 128.886,220.291 130.982,220.110 130.984 C 217.467 131.022,229.234 119.606,237.882 113.742 C 238.572 113.274,238.759 112.902,238.461 112.591 C 237.908 112.013,234.969 113.276,231.800 115.454 L 229.534 117.011 228.174 116.005 C 226.368 114.670,226.443 114.304,228.901 112.463 C 234.992 107.900,235.207 107.854,238.200 110.513 M222.205 111.670 C 222.699 113.227,213.774 123.488,212.785 122.499 C 211.761 121.475,213.882 118.084,218.580 113.233 C 221.175 110.554,221.769 110.297,222.205 111.670 M226.131 117.777 C 227.144 118.896,227.078 119.006,223.732 121.793 C 219.122 125.632,219.423 125.451,218.681 124.835 C 217.670 123.996,217.799 123.753,221.155 120.221 C 224.523 116.675,224.946 116.467,226.131 117.777 M209.143 117.890 C 209.868 118.616,209.794 119.158,208.791 120.440 L 207.932 121.538 207.922 119.451 C 207.912 117.323,208.203 116.950,209.143 117.890 M275.266 124.525 C 278.111 126.894,280.440 128.921,280.440 129.031 C 280.440 130.351,270.177 122.121,268.905 119.780 C 268.330 118.721,267.954 118.441,275.266 124.525 M210.440 126.410 C 210.021 126.829,209.181 126.151,209.493 125.646 C 209.679 125.345,209.924 125.353,210.240 125.669 C 210.499 125.927,210.589 126.261,210.440 126.410 M215.626 128.827 C 215.918 129.299,213.788 131.868,213.105 131.868 C 212.510 131.868,212.703 130.368,213.432 129.329 C 214.166 128.281,215.150 128.056,215.626 128.827 M217.588 133.616 C 217.332 134.094,216.732 134.695,216.254 134.950 C 214.990 135.627,215.092 134.377,216.374 133.483 C 217.729 132.538,218.141 132.583,217.588 133.616 M292.527 135.107 C 293.495 135.940,294.173 136.736,294.034 136.877 C 293.896 137.018,292.709 136.137,291.397 134.920 C 288.798 132.509,289.682 132.655,292.527 135.107 M210.549 134.260 C 210.549 134.608,210.352 135.015,210.110 135.165 C 209.868 135.314,209.670 135.029,209.670 134.531 C 209.670 134.034,209.868 133.626,210.110 133.626 C 210.352 133.626,210.549 133.911,210.549 134.260 M200.314 136.569 C 200.471 136.979,200.346 139.600,200.037 142.394 C 199.727 145.187,199.428 148.126,199.371 148.925 C 199.315 149.724,198.840 150.806,198.316 151.330 L 197.363 152.283 197.363 144.858 C 197.363 138.565,197.474 137.309,198.090 136.628 C 199.001 135.622,199.940 135.597,200.314 136.569 M213.683 138.141 C 212.951 138.873,212.537 138.146,213.218 137.325 C 213.630 136.829,213.868 136.769,213.989 137.133 C 214.086 137.423,213.948 137.876,213.683 138.141 M210.549 141.455 C 210.549 141.650,209.567 142.887,208.367 144.202 L 206.185 146.593 207.372 143.846 C 208.439 141.376,210.549 139.788,210.549 141.455 M310.938 150.539 C 316.904 155.089,322.141 159.754,321.740 160.161 C 321.157 160.754,304.176 146.868,304.176 145.798 C 304.176 145.545,304.387 145.547,304.725 145.803 C 305.027 146.032,307.823 148.163,310.938 150.539 M205.209 147.961 C 204.686 149.213,204.676 149.216,204.498 148.182 C 204.400 147.605,204.578 146.972,204.894 146.777 C 205.732 146.259,205.805 146.534,205.209 147.961 M100.148 148.957 C 100.908 149.439,95.801 149.953,91.291 149.849 C 87.958 149.772,86.767 149.243,89.121 148.886 C 91.437 148.535,99.565 148.588,100.148 148.957 M43.909 152.356 C 44.287 152.686,42.918 153.846,42.149 153.846 C 41.341 153.846,39.560 152.606,39.560 152.044 C 39.560 151.765,43.561 152.052,43.909 152.356 M71.772 157.294 C 72.455 157.564,72.298 157.911,70.548 160.010 C 66.373 165.019,66.777 164.661,66.287 163.786 C 65.954 163.191,66.069 162.770,66.769 162.025 C 67.275 161.486,68.005 160.118,68.391 158.985 C 69.115 156.860,69.802 156.516,71.772 157.294 M87.827 157.837 C 87.611 158.486,75.487 169.260,75.246 169.019 C 75.035 168.808,78.336 164.510,81.026 161.493 C 83.097 159.169,88.319 156.362,87.827 157.837 M77.995 159.517 C 78.130 159.735,76.948 161.465,75.368 163.363 C 72.773 166.481,67.743 173.282,66.802 174.945 C 65.552 177.153,65.598 174.399,66.857 171.618 C 69.349 166.115,76.961 157.844,77.995 159.517 M53.626 165.275 C 53.345 165.800,53.019 166.133,52.901 166.015 C 52.783 165.896,52.940 165.394,53.250 164.898 C 53.982 163.725,54.291 164.033,53.626 165.275 M57.822 166.813 C 56.219 169.140,55.385 169.794,55.385 168.723 C 55.385 168.136,57.395 165.314,58.385 164.510 C 59.704 163.440,59.461 164.434,57.822 166.813 M63.736 167.596 C 63.736 168.355,60.690 173.187,60.212 173.187 C 59.184 173.187,59.461 172.082,61.094 169.678 C 62.824 167.130,63.736 166.411,63.736 167.596 M43.126 170.676 C 42.767 171.035,42.637 170.986,42.637 170.491 C 42.637 169.617,43.228 169.026,43.447 169.681 C 43.540 169.959,43.395 170.407,43.126 170.676 M50.110 169.446 C 50.110 170.157,46.057 175.816,45.704 175.598 C 44.966 175.142,45.217 174.484,47.143 171.830 C 48.702 169.682,50.110 168.550,50.110 169.446 M57.336 176.374 C 56.595 178.768,49.374 190.355,48.424 190.672 C 46.461 191.326,49.431 185.889,56.226 176.387 C 57.131 175.122,57.725 175.114,57.336 176.374 M43.316 180.153 C 42.622 180.833,42.611 180.799,43.139 179.620 C 43.449 178.928,43.783 178.601,43.881 178.894 C 43.978 179.187,43.724 179.754,43.316 180.153 M62.857 178.990 C 62.857 179.592,60.238 182.418,59.680 182.418 C 59.233 182.418,62.062 178.503,62.527 178.479 C 62.709 178.469,62.857 178.699,62.857 178.990 M147.167 183.846 C 139.049 194.331,128.704 207.245,128.298 207.399 C 126.121 208.226,137.346 193.362,144.585 185.833 C 148.712 181.540,149.305 181.084,147.167 183.846 M131.868 186.301 C 131.868 186.717,130.756 188.436,129.396 190.122 C 128.036 191.807,125.344 195.165,123.413 197.582 C 121.482 200.000,118.787 203.168,117.424 204.623 C 116.060 206.078,113.583 208.798,111.918 210.667 C 109.263 213.649,107.686 214.795,107.695 213.736 C 107.697 213.555,109.991 210.736,112.794 207.473 C 115.597 204.209,120.590 198.212,123.890 194.147 C 127.190 190.082,130.187 186.395,130.549 185.953 C 131.300 185.041,131.868 185.191,131.868 186.301 M56.669 187.802 C 55.738 189.627,52.188 194.752,51.991 194.555 C 51.732 194.296,52.497 192.875,54.677 189.566 C 56.425 186.914,57.698 185.786,56.669 187.802 M62.592 188.831 C 62.739 189.215,62.724 189.759,62.557 190.040 C 61.845 191.240,55.798 199.085,55.391 199.336 C 53.705 200.379,56.683 195.037,59.747 191.524 C 60.425 190.746,61.119 189.665,61.289 189.121 C 61.650 187.965,62.211 187.840,62.592 188.831 M45.918 193.956 C 45.461 195.483,44.228 197.492,43.622 197.694 C 42.742 197.987,42.990 196.932,44.286 194.882 C 45.590 192.818,46.394 192.361,45.918 193.956 M63.476 196.593 C 62.509 198.298,58.263 203.956,57.951 203.956 C 56.850 203.956,57.900 201.737,60.265 199.070 C 62.649 196.381,64.334 195.081,63.476 196.593 M347.912 201.572 C 343.821 204.849,335.198 210.947,334.980 210.717 C 334.840 210.569,335.406 209.927,336.238 209.290 C 339.446 206.834,343.595 202.589,345.061 200.262 L 346.593 197.831 347.912 199.173 L 349.231 200.516 347.912 201.572 M90.389 203.217 C 90.079 204.452,84.142 212.308,83.518 212.308 C 82.645 212.308,82.096 210.514,82.735 209.744 C 89.939 201.045,91.205 199.965,90.389 203.217 M149.444 203.555 C 149.450 204.184,142.731 212.227,136.972 218.485 C 135.736 219.827,133.055 222.863,131.014 225.231 C 127.641 229.145,127.251 229.465,126.729 228.750 C 125.872 227.578,125.929 227.459,128.903 224.268 C 130.415 222.646,132.639 220.132,133.846 218.681 C 135.053 217.231,138.892 212.819,142.376 208.878 C 148.543 201.904,149.421 201.242,149.444 203.555 M184.834 204.054 C 183.919 205.088,181.171 208.012,178.728 210.551 C 173.606 215.875,169.637 220.372,165.927 225.055 C 162.211 229.747,159.987 232.088,159.247 232.088 C 158.619 232.088,160.046 230.087,163.948 225.495 C 164.873 224.407,166.325 222.677,167.174 221.650 C 169.595 218.725,186.089 201.767,186.304 201.982 C 186.410 202.088,185.748 203.020,184.834 204.054 M52.119 204.190 C 51.213 205.573,50.323 205.652,51.032 204.286 C 51.314 203.742,51.759 203.028,52.020 202.699 C 52.824 201.688,52.910 202.983,52.119 204.190 M161.175 205.405 C 160.572 206.180,158.465 208.593,156.491 210.769 C 154.518 212.945,152.688 215.170,152.425 215.714 C 151.938 216.723,151.209 217.055,151.209 216.269 C 151.209 216.030,151.495 215.486,151.844 215.060 C 152.194 214.634,154.613 211.615,157.221 208.352 C 160.549 204.186,162.008 202.653,162.116 203.208 C 162.201 203.642,161.777 204.631,161.175 205.405 M356.044 203.336 C 356.044 204.213,347.701 209.784,344.668 210.932 L 342.303 211.827 343.276 210.792 C 345.952 207.943,356.044 202.050,356.044 203.336 M72.730 207.675 C 72.068 208.544,71.434 209.163,71.323 209.052 C 71.211 208.940,71.662 208.138,72.325 207.270 C 72.987 206.401,73.620 205.782,73.732 205.893 C 73.844 206.005,73.393 206.807,72.730 207.675 M39.786 209.121 C 39.452 211.804,38.921 213.187,38.226 213.187 C 37.514 213.187,37.772 210.439,38.669 208.462 C 39.824 205.917,40.161 206.116,39.786 209.121 M55.382 206.923 C 55.380 207.104,54.477 208.538,53.374 210.110 C 52.271 211.681,51.136 213.313,50.853 213.736 C 50.242 214.650,49.231 214.756,49.231 213.906 C 49.231 213.056,54.173 206.617,54.835 206.604 C 55.137 206.598,55.383 206.742,55.382 206.923 M120.440 208.510 C 120.440 210.124,112.175 220.184,111.597 219.273 C 110.944 218.242,110.641 218.669,118.771 209.148 C 119.900 207.826,120.440 207.620,120.440 208.510 M96.646 212.061 C 94.835 214.380,94.066 214.992,94.066 214.113 C 94.066 213.569,98.085 209.148,98.345 209.407 C 98.460 209.522,97.696 210.717,96.646 212.061 M126.154 209.604 C 126.154 210.638,118.842 219.517,118.477 218.927 C 118.346 218.714,119.026 217.584,119.987 216.413 C 120.948 215.243,122.581 213.160,123.615 211.783 C 125.395 209.413,126.154 208.762,126.154 209.604 M81.665 213.686 C 81.843 214.610,76.023 221.524,75.170 221.402 C 73.821 221.210,74.346 219.891,77.181 216.349 C 80.029 212.789,81.342 212.009,81.665 213.686 M233.790 214.388 C 233.458 214.807,231.604 217.032,229.670 219.333 C 227.736 221.634,225.202 224.753,224.040 226.264 C 222.731 227.965,221.602 229.011,221.073 229.011 C 219.796 229.011,219.974 228.681,222.967 225.517 C 224.478 223.920,227.559 220.591,229.813 218.120 C 232.068 215.648,234.021 213.626,234.153 213.626 C 234.285 213.626,234.122 213.969,233.790 214.388 M62.418 214.403 C 62.418 214.589,61.888 215.521,61.240 216.474 C 59.821 218.562,59.307 217.792,60.659 215.605 C 61.533 214.191,62.418 213.586,62.418 214.403 M160.097 217.015 C 159.122 218.173,157.674 219.714,156.879 220.440 L 155.434 221.758 156.508 220.428 C 159.073 217.252,161.519 214.559,161.687 214.728 C 161.788 214.828,161.072 215.857,160.097 217.015 M105.934 217.120 C 105.934 217.990,98.248 226.813,97.491 226.813 C 96.375 226.813,97.597 224.719,100.901 220.969 C 104.253 217.163,105.934 215.878,105.934 217.120 M91.428 218.682 C 90.812 219.833,90.110 220.144,90.110 219.265 C 90.110 218.621,91.491 217.058,91.793 217.361 C 91.916 217.483,91.751 218.078,91.428 218.682 M124.111 220.079 C 121.742 222.793,120.393 223.708,121.323 221.971 C 122.047 220.618,125.715 216.997,126.036 217.318 C 126.179 217.461,125.313 218.703,124.111 220.079 M347.445 218.506 C 346.330 219.683,340.872 223.685,337.025 226.146 C 334.988 227.449,336.056 225.921,338.598 223.897 C 345.225 218.617,350.227 215.569,347.445 218.506 M149.011 219.746 C 149.011 220.708,147.149 223.086,145.853 223.779 C 144.713 224.390,145.421 222.954,147.426 220.587 C 149.057 218.661,149.011 218.686,149.011 219.746 M58.020 220.989 C 58.019 221.170,57.531 221.912,56.937 222.637 C 55.710 224.133,55.415 223.365,56.593 221.745 C 57.352 220.702,58.024 220.346,58.020 220.989 M110.062 221.021 C 110.717 222.082,93.357 240.317,92.503 239.463 C 92.008 238.968,96.814 233.211,102.787 227.143 C 109.068 220.762,109.616 220.300,110.062 221.021 M114.874 224.125 C 113.658 226.012,109.451 230.476,109.451 229.879 C 109.451 229.316,110.522 227.860,113.494 224.380 C 115.454 222.086,116.287 221.931,114.874 224.125 M139.681 224.259 C 138.623 225.854,135.348 229.451,134.955 229.451 C 133.371 229.451,134.624 226.843,137.968 223.181 C 139.431 221.578,140.863 222.479,139.681 224.259 M72.088 224.185 C 72.088 224.819,69.847 228.132,69.418 228.132 C 68.456 228.132,68.663 227.087,69.940 225.498 C 71.334 223.764,72.088 223.303,72.088 224.185 M60.817 225.921 C 60.393 226.638,59.971 227.150,59.878 227.058 C 59.690 226.870,61.090 224.615,61.394 224.615 C 61.501 224.615,61.241 225.203,60.817 225.921 M84.970 226.721 C 83.802 228.286,82.793 228.617,83.530 227.194 C 83.827 226.622,84.385 225.793,84.771 225.351 C 85.819 224.151,85.994 225.350,84.970 226.721 M91.429 226.291 C 91.429 226.488,90.810 227.230,90.053 227.940 L 88.677 229.231 89.723 227.588 C 90.710 226.038,91.429 225.492,91.429 226.291 M48.129 228.296 C 47.263 230.120,46.154 231.227,46.154 230.266 C 46.154 229.512,48.347 226.222,48.648 226.524 C 48.768 226.644,48.535 227.441,48.129 228.296 M77.363 227.645 C 77.363 228.607,74.496 231.988,74.051 231.553 C 73.338 230.856,76.135 226.106,76.958 226.615 C 77.181 226.753,77.363 227.216,77.363 227.645 M117.802 227.541 C 117.802 228.162,115.539 230.747,113.768 232.149 C 111.565 233.893,111.879 233.241,114.907 229.780 C 116.936 227.461,117.802 226.792,117.802 227.541 M245.714 228.274 C 245.714 229.080,241.065 234.379,239.753 235.069 C 237.539 236.233,238.641 234.135,241.946 230.894 C 245.340 227.566,245.714 227.305,245.714 228.274 M278.071 230.589 C 278.276 231.405,278.122 231.945,277.530 232.492 C 277.075 232.912,274.987 234.872,272.889 236.848 C 268.827 240.673,267.692 241.203,267.692 239.275 C 267.692 238.371,268.702 237.143,272.198 233.796 C 277.041 229.158,277.631 228.836,278.071 230.589 M77.980 233.915 C 75.280 237.200,73.718 238.407,74.733 236.424 C 75.374 235.171,80.085 230.268,80.372 230.555 C 80.484 230.667,79.407 232.179,77.980 233.915 M319.121 230.970 C 319.121 231.963,304.747 243.077,303.463 243.077 C 301.598 243.077,309.973 235.523,315.810 231.940 C 318.720 230.154,319.121 230.037,319.121 230.970 M124.641 231.426 C 125.811 232.327,123.375 234.725,121.290 234.725 L 119.956 234.725 121.610 232.747 C 123.470 230.522,123.468 230.523,124.641 231.426 M149.634 231.805 C 149.351 232.542,148.571 232.814,148.571 232.176 C 148.571 231.748,149.552 230.724,149.761 230.933 C 149.844 231.016,149.786 231.408,149.634 231.805 M219.341 231.551 C 219.341 231.980,219.016 232.796,218.619 233.362 C 217.648 234.749,216.878 233.589,217.648 231.899 C 218.236 230.609,219.341 230.382,219.341 231.551 M204.829 232.418 C 204.817 232.989,201.852 236.276,201.585 236.013 C 201.266 235.699,203.887 232.088,204.434 232.088 C 204.654 232.088,204.832 232.236,204.829 232.418 M71.209 233.655 C 71.209 234.914,68.648 238.073,68.320 237.218 C 68.165 236.815,68.572 235.885,69.303 234.969 C 70.439 233.545,71.209 233.015,71.209 233.655 M65.055 234.911 C 65.055 235.712,62.393 239.207,61.578 239.476 C 60.706 239.764,61.251 238.491,62.991 236.180 C 64.461 234.226,65.055 233.861,65.055 234.911 M216.264 235.194 C 216.264 236.393,215.326 237.422,214.704 236.905 C 214.248 236.527,214.202 236.171,214.530 235.558 C 215.004 234.672,216.264 234.407,216.264 235.194 M147.253 235.550 C 147.253 236.148,141.531 242.400,140.837 242.560 C 139.480 242.872,140.375 241.402,143.396 238.362 C 146.436 235.301,147.253 234.706,147.253 235.550 M322.198 235.783 C 322.198 236.143,313.084 243.571,309.897 245.808 C 306.702 248.051,306.638 248.074,307.672 246.622 C 308.258 245.800,310.805 243.627,313.332 241.794 C 315.860 239.961,318.741 237.834,319.733 237.067 C 321.419 235.765,322.198 235.359,322.198 235.783 M46.641 236.813 C 45.882 238.193,44.863 239.352,44.849 238.850 C 44.835 238.352,46.489 236.044,46.861 236.044 C 46.972 236.044,46.874 236.390,46.641 236.813 M158.618 238.505 C 157.595 239.528,153.011 241.509,152.605 241.104 C 152.496 240.994,153.472 239.841,154.775 238.540 C 157.105 236.213,157.163 236.186,158.410 236.811 L 159.677 237.446 158.618 238.505 M241.938 238.842 C 240.751 240.144,239.522 241.330,239.206 241.479 C 238.891 241.628,239.765 240.467,241.150 238.899 C 242.535 237.332,243.764 236.145,243.882 236.263 C 243.999 236.380,243.124 237.541,241.938 238.842 M236.533 238.132 C 235.842 239.394,232.088 242.868,232.088 242.245 C 232.088 241.928,233.017 240.700,234.152 239.516 C 236.236 237.341,237.307 236.718,236.533 238.132 M106.845 239.062 C 106.603 239.513,105.212 241.343,103.753 243.128 C 102.294 244.913,101.100 246.499,101.099 246.653 C 101.099 246.806,99.980 247.071,98.612 247.242 C 97.245 247.413,95.811 247.661,95.426 247.792 C 94.302 248.176,97.019 245.599,101.758 241.785 C 106.136 238.262,107.729 237.409,106.845 239.062 M83.516 239.028 C 83.516 239.531,79.181 243.723,78.925 243.467 C 78.642 243.185,82.582 238.681,83.111 238.681 C 83.334 238.681,83.516 238.837,83.516 239.028 M112.065 240.331 C 109.699 243.044,106.158 246.593,105.817 246.593 C 105.155 246.593,107.983 242.896,110.304 240.725 C 112.680 238.504,113.895 238.232,112.065 240.331 M149.435 239.011 C 149.400 239.732,147.321 241.854,146.814 241.685 C 146.456 241.566,146.676 241.027,147.462 240.093 C 148.581 238.762,149.470 238.275,149.435 239.011 M228.571 239.062 C 228.571 239.547,227.116 241.436,224.800 243.956 C 223.800 245.044,222.366 246.626,221.614 247.473 C 219.572 249.768,219.796 247.977,221.877 245.372 C 225.670 240.622,228.571 237.887,228.571 239.062 M125.713 239.451 C 125.706 240.740,122.547 244.623,120.739 245.563 C 118.310 246.826,118.634 245.854,121.755 242.512 C 124.663 239.399,125.717 238.583,125.713 239.451 M118.209 240.769 C 116.029 243.663,112.411 246.623,111.800 246.012 C 111.372 245.584,117.044 240.000,117.906 240.000 C 118.675 240.000,118.714 240.100,118.209 240.769 M163.954 240.330 C 163.950 240.847,162.104 243.692,160.733 245.293 C 159.498 246.736,158.325 246.489,158.906 244.909 C 159.024 244.587,159.121 243.945,159.121 243.481 C 159.121 242.953,159.900 242.149,161.209 241.328 C 163.360 239.977,163.958 239.760,163.954 240.330 M134.940 241.328 C 133.923 243.229,128.792 247.348,128.791 246.264 C 128.790 244.063,131.690 240.517,133.435 240.584 C 134.959 240.643,135.234 240.779,134.940 241.328 M181.964 242.334 C 181.947 242.974,179.909 244.513,179.337 244.317 C 179.109 244.240,179.428 243.531,180.046 242.743 C 181.113 241.382,181.994 241.194,181.964 242.334 M154.489 243.930 C 155.139 244.981,149.754 249.231,147.773 249.231 C 145.405 249.231,151.015 244.072,153.930 243.569 C 154.097 243.540,154.349 243.702,154.489 243.930 M173.626 243.873 C 173.626 244.324,170.987 246.298,170.729 246.040 C 170.388 245.699,172.352 243.516,172.999 243.516 C 173.344 243.516,173.626 243.677,173.626 243.873 M69.890 244.615 C 69.890 244.978,69.807 245.275,69.706 245.275 C 69.605 245.275,69.190 245.402,68.784 245.558 C 68.129 245.809,68.112 245.734,68.634 244.899 C 69.319 243.802,69.890 243.673,69.890 244.615 M144.274 246.252 C 143.750 246.775,143.200 247.083,143.053 246.935 C 142.905 246.788,143.212 246.238,143.736 245.714 C 144.260 245.190,144.810 244.883,144.957 245.031 C 145.105 245.178,144.797 245.728,144.274 246.252 M206.754 247.292 C 205.838 248.492,205.457 248.748,205.356 248.228 C 205.169 247.258,207.085 244.711,207.608 245.235 C 207.856 245.482,207.523 246.283,206.754 247.292 M228.768 245.837 C 228.622 246.216,228.216 246.636,227.864 246.771 C 227.382 246.956,227.418 246.758,228.008 245.969 C 228.867 244.820,229.179 244.766,228.768 245.837 M264.163 245.165 C 264.156 245.346,262.562 247.374,260.620 249.670 C 258.679 251.967,255.583 255.725,253.741 258.022 C 251.899 260.319,249.199 263.681,247.742 265.495 C 239.038 276.325,223.923 291.836,227.438 286.332 C 230.679 281.256,241.626 267.506,247.007 261.752 C 248.593 260.056,250.975 257.402,252.300 255.855 C 258.665 248.428,264.231 243.412,264.163 245.165 M193.591 248.247 C 193.164 248.899,192.737 249.201,192.643 248.919 C 192.549 248.636,192.822 247.872,193.249 247.220 C 193.676 246.567,194.103 246.265,194.197 246.547 C 194.291 246.830,194.019 247.595,193.591 248.247 M288.816 251.608 C 287.190 254.240,279.101 261.225,278.442 260.567 C 278.108 260.233,282.977 253.540,284.291 252.527 C 288.510 249.276,290.509 248.869,288.816 251.608 M224.615 250.465 C 224.615 251.107,223.375 252.533,223.077 252.235 C 222.707 251.864,223.627 250.110,224.191 250.110 C 224.425 250.110,224.615 250.270,224.615 250.465 M274.725 250.561 C 274.725 251.819,271.455 255.379,270.852 254.777 C 270.085 254.009,270.636 252.868,272.551 251.256 C 273.988 250.048,274.725 249.812,274.725 250.561 M227.889 252.198 C 227.214 253.104,226.597 253.929,226.518 254.029 C 226.439 254.130,226.263 254.101,226.127 253.966 C 225.883 253.722,228.449 250.549,228.889 250.549 C 229.013 250.549,228.563 251.291,227.889 252.198 M234.725 251.869 C 234.725 252.581,229.273 258.588,229.099 258.067 C 228.894 257.450,229.876 255.884,232.223 253.088 C 233.784 251.227,234.725 250.769,234.725 251.869 M63.077 252.531 C 66.220 252.720,71.462 252.994,74.725 253.140 C 84.094 253.561,77.712 253.957,60.220 254.041 C 48.127 254.100,45.595 254.010,46.057 253.540 C 46.726 252.858,55.755 251.458,56.703 251.888 C 57.066 252.053,59.934 252.342,63.077 252.531 M217.847 252.947 C 217.692 253.562,217.273 254.066,216.915 254.066 C 216.088 254.066,216.098 253.849,216.983 252.498 C 217.840 251.190,218.236 251.395,217.847 252.947 M208.336 255.055 C 208.313 255.854,206.247 258.262,205.890 257.905 C 205.724 257.738,206.061 256.907,206.640 256.057 C 207.722 254.468,208.364 254.089,208.336 255.055 M238.627 256.583 C 232.933 263.420,231.490 265.055,231.150 265.055 C 230.228 265.055,235.187 257.778,237.522 255.705 C 238.657 254.696,239.584 255.433,238.627 256.583 M269.451 256.484 C 269.807 256.913,269.852 257.335,269.581 257.692 C 264.820 263.976,263.402 265.144,262.027 263.913 C 261.684 263.607,268.010 255.824,268.601 255.824 C 268.767 255.824,269.150 256.121,269.451 256.484 M244.396 259.225 C 244.396 260.115,241.469 262.418,240.338 262.418 C 238.853 262.418,239.079 261.740,241.326 259.459 C 242.625 258.141,244.396 258.006,244.396 259.225 M212.747 259.770 C 212.747 260.346,210.596 261.731,210.245 261.381 C 209.867 261.003,211.423 259.341,212.156 259.341 C 212.481 259.341,212.747 259.534,212.747 259.770 M271.916 263.419 C 270.179 266.296,269.179 267.408,268.632 267.070 C 267.648 266.462,268.167 265.191,270.439 262.642 C 273.041 259.723,273.880 260.165,271.916 263.419 M225.186 264.505 C 225.032 264.929,224.463 265.811,223.923 266.467 C 223.383 267.123,222.861 267.900,222.763 268.193 C 222.569 268.777,221.538 268.334,221.538 267.668 C 221.538 267.129,224.606 263.736,225.092 263.736 C 225.298 263.736,225.341 264.082,225.186 264.505 M238.681 264.396 C 239.301 265.142,239.117 265.473,236.546 268.224 C 233.876 271.080,233.421 269.422,235.934 265.996 C 237.750 263.521,237.889 263.440,238.681 264.396 M200.607 265.904 C 199.791 267.286,199.121 267.659,199.121 266.732 C 199.121 266.132,200.935 264.085,201.217 264.367 C 201.320 264.470,201.046 265.162,200.607 265.904 M207.912 264.420 C 207.912 264.815,204.440 269.811,203.958 270.109 C 203.005 270.698,203.602 269.286,205.361 266.792 C 206.979 264.497,207.912 263.630,207.912 264.420 M261.978 266.082 C 261.978 266.501,259.163 270.611,258.174 271.636 C 257.879 271.941,257.157 270.663,257.150 269.821 C 257.146 269.420,258.035 268.173,259.126 267.051 C 260.974 265.149,261.978 264.808,261.978 266.082 M255.289 266.923 C 254.739 267.709,254.239 268.434,254.177 268.535 C 254.116 268.636,253.945 268.597,253.798 268.450 C 253.462 268.114,255.295 265.495,255.867 265.495 C 256.100 265.495,255.840 266.137,255.289 266.923 M219.581 271.538 C 218.743 273.069,217.788 274.286,217.424 274.286 C 216.743 274.286,217.237 272.554,218.221 271.493 C 219.650 269.951,220.435 269.977,219.581 271.538 M262.908 273.112 C 261.551 274.468,261.296 273.681,262.477 271.781 C 263.451 270.216,263.526 270.176,263.665 271.158 C 263.754 271.787,263.451 272.569,262.908 273.112 M233.846 271.155 C 233.846 271.709,232.556 272.702,232.243 272.389 C 231.793 271.939,232.464 270.769,233.173 270.769 C 233.543 270.769,233.846 270.943,233.846 271.155 M277.367 274.814 C 273.535 278.418,272.088 279.491,272.088 278.728 C 272.088 278.163,280.574 270.754,280.869 271.063 C 280.995 271.196,279.419 272.884,277.367 274.814 M225.185 273.144 C 224.751 273.724,224.330 274.137,224.250 274.061 C 223.976 273.798,225.086 272.088,225.530 272.088 C 225.775 272.088,225.620 272.563,225.185 273.144 M251.868 275.855 C 251.868 277.012,251.348 278.154,249.890 280.197 C 247.231 283.924,247.034 284.059,245.774 283.038 C 244.550 282.046,244.674 281.777,248.535 277.039 C 251.112 273.876,251.868 273.608,251.868 275.855 M230.330 275.837 C 230.330 276.501,223.063 286.313,221.571 287.663 C 219.819 289.248,219.977 287.266,221.804 284.734 C 227.548 276.773,230.330 273.871,230.330 275.837 M259.780 276.510 C 259.780 277.083,255.326 281.846,255.048 281.569 C 254.874 281.394,259.339 276.044,259.658 276.044 C 259.725 276.044,259.780 276.254,259.780 276.510 M214.945 277.363 C 214.945 277.961,213.174 279.694,212.871 279.391 C 212.545 279.065,213.973 276.923,214.516 276.923 C 214.752 276.923,214.945 277.121,214.945 277.363 M237.206 283.607 C 235.084 287.111,233.416 288.554,232.743 287.466 C 232.461 287.009,237.782 281.152,238.147 281.517 C 238.258 281.628,237.834 282.568,237.206 283.607 M203.284 285.659 C 202.281 287.503,200.879 288.923,200.879 288.096 C 200.879 287.065,203.867 282.842,204.294 283.269 C 204.398 283.372,203.943 284.448,203.284 285.659 M243.077 286.344 C 243.077 286.690,242.479 287.399,241.747 287.920 L 240.418 288.867 241.169 287.290 C 241.918 285.721,243.077 285.146,243.077 286.344 M217.143 291.546 C 217.143 292.642,214.764 295.681,214.589 294.807 C 214.502 294.369,214.892 293.332,215.457 292.503 C 216.522 290.938,217.143 290.586,217.143 291.546 M230.118 292.760 C 230.841 293.931,226.303 299.446,225.378 298.521 C 224.899 298.042,225.480 296.808,227.418 294.189 C 228.792 292.334,229.593 291.910,230.118 292.760 M210.356 299.875 C 209.203 302.294,207.439 304.250,207.667 302.857 C 207.766 302.253,207.861 301.343,207.879 300.835 C 207.940 299.116,210.740 295.789,210.907 297.238 C 210.983 297.894,210.735 299.081,210.356 299.875 M217.199 298.352 C 216.648 299.373,214.565 301.305,214.300 301.040 C 214.013 300.753,216.664 297.582,217.190 297.582 C 217.458 297.582,217.461 297.865,217.199 298.352 M186.597 312.418 C 186.135 314.924,184.615 314.380,184.615 311.708 C 184.615 308.927,185.350 305.100,186.045 304.259 C 186.668 303.506,187.090 309.747,186.597 312.418 M214.705 306.793 C 213.553 308.260,212.515 309.365,212.399 309.249 C 212.130 308.980,213.245 307.278,215.004 305.275 C 217.216 302.755,216.995 303.879,214.705 306.793 M204.123 306.703 C 203.785 308.121,203.075 309.596,202.844 309.364 C 202.540 309.061,203.622 305.495,204.018 305.495 C 204.235 305.495,204.282 306.038,204.123 306.703 M202.637 317.363 C 202.356 317.888,202.028 318.218,201.907 318.097 C 201.786 317.976,201.917 317.448,202.198 316.923 C 202.479 316.398,202.807 316.068,202.928 316.188 C 203.049 316.309,202.918 316.838,202.637 317.363 M196.923 323.019 C 196.923 323.442,196.633 324.172,196.278 324.641 C 195.532 325.627,195.346 324.744,195.880 322.752 C 196.177 321.646,196.923 321.837,196.923 323.019 M210.549 332.290 C 210.549 332.522,209.214 333.985,207.582 335.540 C 203.841 339.107,201.754 340.843,201.775 340.369 C 201.800 339.790,206.295 335.086,208.415 333.419 C 210.601 331.700,210.549 331.727,210.549 332.290 " stroke="none" fill="#f73c59" fill-rule="evenodd"></path></g></svg>